<?xml version="1.0" standalone="no"?>
<!DOCTYPE svg PUBLIC "-//W3C//DTD SVG 1.1//EN" "http://www.w3.org/Graphics/SVG/1.1/DTD/svg11.dtd" >
<svg xmlns="http://www.w3.org/2000/svg" xmlns:xlink="http://www.w3.org/1999/xlink" version="1.1">
<metadata></metadata>
<defs>
<font id="wendy_lpregular" horiz-adv-x="835" >
<font-face units-per-em="2048" ascent="1638" descent="-410" />
<missing-glyph horiz-adv-x="491" />
<glyph horiz-adv-x="0" />
<glyph unicode="&#xd;" horiz-adv-x="491" />
<glyph unicode=" "  horiz-adv-x="491" />
<glyph unicode="&#x09;" horiz-adv-x="491" />
<glyph unicode="&#xa0;" horiz-adv-x="491" />
<glyph unicode="!" horiz-adv-x="479" d="M167 406q-1 -41 4 -82t18.5 -73t41.5 -32q12 0 27.5 9.5t15.5 25.5q0 6 -3 9l-7 7q-8 8 -12 45t-6 81t-2 83v53v76q0 39 2 80q4 76 7 151.5t9 153.5q4 35 9 74t5 74q0 16 -7 28.5t-25 12.5q-25 0 -37 -17.5t-14 -40.5q-10 -109 -12.5 -216t-6.5 -218q-6 -111 -6 -225 q0 -18 -1 -59zM170 45q0 -27 20.5 -44t47.5 -17q16 0 30.5 10t25.5 26.5t18 34t7 33.5q0 23 -17 41t-40 18q-12 0 -28.5 -11t-31 -26.5t-23.5 -34t-9 -30.5z" />
<glyph unicode="&#x22;" horiz-adv-x="344" d="M57 893q0 -14 6.5 -29.5t24.5 -15.5t29.5 36t15.5 82t5 89t1 59q0 14 -7 25.5t-23 11.5t-28.5 -12.5t-14.5 -28.5q-4 -53 -6.5 -108.5t-2.5 -108.5zM201 889q0 -12 6 -25.5t22 -13.5q20 0 27.5 17.5t11.5 33.5q10 49 18.5 104.5t8.5 106.5q0 14 -7 25.5t-24 11.5 q-37 0 -43 -37q-10 -53 -15 -111.5t-5 -111.5z" />
<glyph unicode="#" horiz-adv-x="1230" d="M119 354q0 -35 33 -45q31 -8 67.5 -12t74.5 -5t76 0t68 1q-4 -47 -11 -95t-28 -92q-6 -12 -6 -22q0 -14 10.5 -23.5t24.5 -9.5q29 0 45 31t24.5 72t10.5 80.5t4 60.5l260 12q-4 -51 -12 -105.5t-35 -99.5q-4 -6 -6 -11t-2 -13q0 -16 10 -24.5t27 -8.5q16 0 29.5 8 t19.5 25q20 53 29.5 113.5t13.5 117.5q57 0 114.5 -2t112.5 -18q4 0 8 -1t11 -1q16 0 28.5 10t12.5 27q0 23 -27 34t-62.5 16t-70.5 5h-49h-37q-18 0 -35 -2q4 49 4 96q0 49 2 96q61 0 131 1t129 16q35 10 35 43q0 16 -10 28.5t-29 12.5q-12 0 -24 -6q-53 -18 -111.5 -23.5 t-114.5 -5.5q4 53 12.5 108.5t26.5 106.5q2 4 4 10t2 10q0 14 -10 23.5t-25 9.5q-29 0 -45 -33.5t-23 -79t-10 -89.5t-3 -64q-66 2 -130.5 5t-130.5 7q6 47 14.5 102.5t31.5 98.5q8 16 8 27q0 16 -10.5 24t-26.5 8t-29.5 -8t-19.5 -24q-18 -51 -26.5 -110.5t-12.5 -115.5 q-20 0 -72.5 4t-108 1t-97.5 -14t-42 -42q0 -16 12.5 -26.5t28.5 -10.5q4 0 8.5 1t8.5 1q47 12 94 16.5t94 4.5h33q18 0 35 -2q-4 -55 -5 -111.5t-6 -112.5h-32q-59 0 -116.5 3.5t-111.5 23.5q-16 6 -26 6q-39 0 -39 -39zM514 365l12 217q66 -4 130 -7.5t130 -7.5 q-2 -47 -4 -95t-6 -95q-133 -10 -262 -12z" />
<glyph unicode="$" horiz-adv-x="665" d="M59 561q0 -33 27 -51t62.5 -27.5t72.5 -12.5t60 -3q0 -47 -1 -93t-1 -93q0 -10 -3.5 -18.5t-3.5 -18.5q0 -20 12.5 -33.5t32.5 -13.5q16 0 30.5 11t14.5 28v116t-2 117q18 2 55.5 8t74 18.5t63.5 30.5t27 47q0 27 -25 50.5t-57.5 43t-66.5 33t-54 19.5q2 33 3 64.5 t5 62.5q35 -4 53.5 -15.5t30.5 -25.5t22.5 -24.5t26.5 -10.5q18 0 30.5 14.5t12.5 32.5q0 23 -20.5 41.5t-49 31.5t-57 21.5t-47.5 8.5q0 29 2 59.5t2 58.5q0 16 -7 28.5t-28 12.5q-18 0 -28.5 -10t-14.5 -24.5t-4 -32.5v-29v-65q-23 -4 -58.5 -17.5t-68 -33t-56.5 -45 t-24 -54.5q0 -27 22.5 -44t53.5 -28.5t63.5 -17.5t51.5 -12v-23q2 -27 2 -53q0 -27 -4 -53h-29q-20 0 -44.5 3t-43 9t-18.5 16q0 20 -12.5 36.5t-34.5 16.5q-23 0 -36.5 -18t-13.5 -39zM186 780q0 12 14.5 22.5t35 19.5t40 15.5t29.5 8.5q0 -27 -1 -52.5t-3 -54.5 q-6 2 -24.5 6.5t-39 10.5t-36 12t-15.5 12zM367 535q2 27 2 51q0 27 2 53q8 -2 28.5 -9t42 -16.5t39 -18.5t17.5 -17q0 -10 -17.5 -17.5t-40 -13.5t-44 -9t-29.5 -3z" />
<glyph unicode="%" horiz-adv-x="1064" d="M63 741q0 -35 18.5 -61.5t55.5 -26.5q45 0 85 28t72 69t53.5 88t29.5 86q14 -2 27.5 -4t27.5 -2q29 0 68 2t72.5 -4.5t57 -26t23.5 -64.5q0 -47 -28.5 -104t-70.5 -121.5t-91 -134.5t-91 -140.5t-71 -139t-29 -130.5q0 -18 4.5 -38.5t13.5 -38t24.5 -28.5t37.5 -11 q20 0 37 13t17 36q0 16 -9.5 21t-22 10.5t-21.5 12.5t-9 27q0 47 28.5 110.5t71.5 135.5t94.5 145.5t94.5 144.5t71.5 133.5t28.5 107.5q0 49 -18.5 79.5t-48 47t-67.5 21.5t-79 5q-10 0 -30.5 -1t-43.5 -1q-20 0 -37.5 3t-19.5 14q-18 70 -96 69q-18 0 -30.5 -6t-29.5 -18 q-72 -53 -121 -134t-49 -174zM143 760q0 18 12.5 52t31 67.5t41 58.5t42.5 25q14 0 20.5 -10.5t6.5 -22.5q0 -23 -12.5 -55.5t-33 -63.5t-45 -52.5t-48.5 -21.5q-10 0 -12.5 8.5t-2.5 14.5zM580 131q0 -109 106 -108q49 0 97 23.5t86 61t60.5 87t22.5 98.5q0 57 -37.5 83.5 t-91.5 26.5q-47 0 -91 -25.5t-77.5 -65.5t-54 -88t-20.5 -93zM666 150q0 18 10 48.5t26.5 59.5t37 49.5t40.5 20.5q35 0 59.5 -11.5t24.5 -52.5q0 -37 -13 -67.5t-36.5 -54t-55.5 -37t-67 -13.5q-16 0 -21 23.5t-5 34.5z" />
<glyph unicode="&#x26;" horiz-adv-x="1308" d="M82 207q0 -33 12 -62.5t33 -56.5q43 -55 103.5 -90t129 -54.5t140 -27.5t137.5 -8q92 0 177 11t173 32q6 2 11.5 3t11.5 1q6 -2 19 -13.5t31.5 -24.5t37 -23.5t35.5 -10.5q16 0 31.5 11.5t15.5 27.5q0 14 -8.5 23.5t-20.5 15.5t-25.5 11t-23.5 12q20 8 50 24.5t58.5 37 t49 44t20.5 49.5q0 33 -21.5 53.5t-52 29.5t-64.5 12.5t-59 3.5q-16 0 -39.5 -5.5t-23.5 -27.5q0 -23 24.5 -29t53 -9t53.5 -7t25 -21q0 -10 -19.5 -27.5t-45.5 -34t-50.5 -28.5t-34.5 -12q-25 0 -64.5 26.5t-88 69.5t-98.5 96.5t-93 105.5t-73.5 97t-41.5 74l19 12 q61 37 139 97.5t147.5 132t117.5 152.5t48 159q0 84 -56 121t-132 37q-109 0 -181.5 -53.5t-116.5 -135.5t-63.5 -178t-19.5 -184q0 -23 2 -46.5t2 -46.5q0 -14 -28.5 -31.5t-72.5 -39t-94.5 -49t-94.5 -63.5t-72.5 -82t-28.5 -101zM172 205q0 45 35 86t84 75.5t101 61.5 t85 41l21 6l6 -10q84 -139 185.5 -246.5t230.5 -204.5q-49 -14 -119 -23t-162 -9q-53 0 -121.5 7t-134.5 26.5t-120 54t-81 90.5q-10 25 -10 45zM547 627v35q0 74 12 157.5t45 154t92.5 118t153.5 47.5q45 0 74.5 -19.5t29.5 -68.5q0 -57 -45 -127t-109.5 -134.5t-134 -118 t-116.5 -77.5q-2 16 -2 33z" />
<glyph unicode="'" horiz-adv-x="235" d="M57 891q0 -12 6.5 -26.5t22.5 -14.5q20 0 27.5 17.5t11.5 33.5q10 49 18.5 104.5t8.5 106.5q0 14 -7.5 25.5t-23.5 11.5t-26.5 -10.5t-14.5 -26.5q-10 -49 -16.5 -109.5t-6.5 -111.5z" />
<glyph unicode="(" horiz-adv-x="698" d="M41 422q0 -115 28.5 -225.5t84 -208t136.5 -176t187 -127.5q14 -6 38 -15.5t50.5 -17.5t51 -14.5t38.5 -6.5q16 0 27.5 7.5t11.5 25.5q0 16 -10 24.5t-22 12.5q-47 14 -91.5 26.5t-87.5 34.5q-92 47 -161.5 119t-116.5 159t-70.5 185.5t-23.5 198.5q0 147 47 274 t129 234.5t188.5 197t226.5 158.5q21 11 21 31q0 27 -33 27q-23 0 -48.5 -9.5t-52 -24t-51 -28.5t-40.5 -27q-98 -72 -182.5 -164t-145.5 -200.5t-95 -228t-34 -242.5z" />
<glyph unicode=")" horiz-adv-x="698" d="M-147 -360q0 -10 10 -20.5t20 -10.5q6 0 11 4q141 66 261.5 159t208 209.5t136.5 257t49 302.5q0 113 -27.5 222t-83 206.5t-135.5 175.5t-184 127q-12 6 -36 14t-49.5 17.5t-49 15.5t-35.5 6q-16 0 -28.5 -6t-12.5 -27q0 -16 11 -25.5t24 -13.5q41 -12 79.5 -23 t77.5 -32q92 -47 164 -117.5t119 -157.5t71.5 -186.5t24.5 -199.5q0 -117 -29.5 -226.5t-85 -208t-133 -181.5t-174.5 -148q-45 -31 -91 -53.5t-93 -49.5q-20 -10 -20 -30z" />
<glyph unicode="*" horiz-adv-x="362" d="M20 915q0 -33 33 -32q10 0 34 9t34 13q0 -10 -2 -25.5t-1 -30.5t7 -26.5t22 -11.5q14 0 21.5 10t11.5 23.5t5 29t1 25.5q14 -10 35 -25.5t37 -15.5q12 0 21.5 8t9.5 21q0 20 -22.5 36.5t-39.5 26.5q18 8 48 21.5t30 36.5q0 14 -10 21t-23 7q-14 0 -35.5 -10t-35.5 -16 q4 16 6 30.5t2 30.5q0 14 -5 28.5t-24 14.5q-16 0 -24.5 -10t-13.5 -24.5t-6 -30t-1 -27.5q-12 10 -32.5 26.5t-36.5 16.5q-12 0 -21.5 -9t-9.5 -22q0 -18 22.5 -37.5t36.5 -29.5q-8 -4 -20.5 -8.5t-24.5 -9.5t-20.5 -13t-8.5 -21z" />
<glyph unicode="+" d="M115 373h245v-271h74v271h246v67h-246v271h-74v-271h-245v-67z" />
<glyph unicode="," horiz-adv-x="333" d="M78 -94q0 -12 7 -23.5t21 -11.5q16 0 26.5 12.5t14.5 24.5q8 18 25.5 65t35 99.5t31 99t13.5 64.5q0 35 -35 34q-12 0 -20.5 -8t-12.5 -18q-25 -80 -48 -159t-52 -157q-6 -10 -6 -22z" />
<glyph unicode="-" horiz-adv-x="604" d="M100 317q0 -29 28 -35t50 -6q53 0 107.5 8.5t107.5 8.5q23 0 42.5 -6t39.5 -6q18 0 31.5 13.5t13.5 31.5q0 29 -26.5 34t-47.5 5q-57 0 -113.5 -7.5t-113.5 -7.5q-23 0 -31 4t-12 10.5t-9 10.5t-17 4q-23 0 -36.5 -20.5t-13.5 -41.5z" />
<glyph unicode="." horiz-adv-x="333" d="M78 18q0 -25 16.5 -40t40.5 -15q18 0 40 9.5t40 23.5t30.5 33t12.5 37q0 23 -15.5 35t-35.5 12t-35 -7q-8 8 -18 9q-12 0 -25.5 -10.5t-25 -26t-18.5 -31.5t-7 -29z" />
<glyph unicode="/" horiz-adv-x="806" d="M-94 -141q0 -31 31 -31q18 0 33.5 14.5t28.5 35t23.5 42t18.5 35.5q82 139 175 271t191.5 260t201 253t202.5 252q8 10 31.5 40t48 63.5t44 64.5t19.5 43q0 14 -11 22.5t-23 8.5q-16 0 -29.5 -13.5t-25 -32t-20.5 -36.5t-18 -31q-29 -47 -63.5 -90t-69.5 -84 q-61 -76 -121.5 -150.5t-119.5 -152.5q-133 -168 -256 -339t-240 -351q-10 -16 -30.5 -44t-20.5 -50z" />
<glyph unicode="0" horiz-adv-x="1079" d="M33 453q0 -84 32.5 -169t91 -153t136.5 -111t168 -43q12 0 24.5 1.5t22.5 3.5q219 35 341 176t122 366q0 96 -21.5 191.5t-68.5 172.5t-125 125t-189 48q-121 0 -219 -53.5t-168.5 -139.5t-108.5 -194.5t-38 -220.5zM102 461q0 90 33 183t91.5 168t140.5 122t180 47 q92 0 158.5 -43t109.5 -109.5t62.5 -149.5t19.5 -163q0 -190 -92 -307t-283 -156q-10 -4 -22 -4h-21q-76 0 -144.5 37t-119.5 96.5t-82 133t-31 145.5z" />
<glyph unicode="1" horiz-adv-x="393" d="M74 915q0 -16 11 -31.5t30 -15.5q12 0 23.5 10.5t20.5 25t17 28.5t14 22q-14 -180 -28.5 -357t-14.5 -357v-68q0 -47 8.5 -96t25 -86t50.5 -37q16 0 29.5 13.5t13.5 31.5q0 14 -7 23.5t-15 19.5q-8 12 -13.5 42t-7.5 64.5t-3 66.5t-1 50q0 131 9.5 261t23.5 261 q6 61 15.5 128t9.5 128q0 23 -9.5 40.5t-33.5 17.5q-12 0 -40 -24.5t-56.5 -55.5t-50 -61.5t-21.5 -43.5z" />
<glyph unicode="2" horiz-adv-x="1124" d="M29 -2q0 -41 43 -41q29 0 57.5 11.5t52.5 23.5q72 35 144.5 48t150.5 13q98 0 194.5 -19.5t192.5 -41.5q23 -4 45.5 -8t44.5 -4q14 0 38 5t45.5 15t38 24.5t16.5 32.5q0 27 -25 27q-16 0 -42 -14.5t-58 -14.5q-14 0 -35 4q-113 23 -223.5 44.5t-227.5 21.5h-35 q-16 0 -32 -2q70 51 163 126t178 162t143 183t58 192q0 70 -28.5 125.5t-75.5 94t-108.5 60t-125.5 21.5q-68 0 -149.5 -20t-160.5 -55t-147.5 -83t-109.5 -104q-14 -18 -14 -37q0 -18 12 -34.5t33 -16.5q18 0 28.5 11.5t18.5 25.5q25 51 81 94t124.5 73t140.5 46.5 t127 16.5q49 0 97.5 -15.5t85 -45.5t59 -73t22.5 -98q0 -90 -63.5 -185t-152.5 -182.5t-185 -160t-164 -115.5q-23 -16 -69 -26.5t-91 -22.5t-78.5 -31.5t-33.5 -50.5z" />
<glyph unicode="3" horiz-adv-x="1128" d="M-16 831q0 -18 13 -33.5t33.5 -26.5t41 -17t37.5 -6q31 0 30 28q0 10 -7 17.5t-14 12.5t-14.5 11t-7.5 14q0 10 11.5 18.5t17.5 12.5q47 31 109.5 58.5t130 48t135 32t125.5 11.5q37 0 85 -8.5t91 -27t72.5 -50t29.5 -78.5q0 -31 -13 -59.5t-33.5 -54t-45.5 -48 t-47 -39.5q-33 4 -102.5 3t-141 -13t-126 -41t-54.5 -80q0 -35 27.5 -53.5t58.5 -18.5t75 13.5t90 32t88 38t71 33.5q78 -8 135 -53t57 -129q0 -82 -55.5 -154.5t-136 -126t-172 -85t-162.5 -31.5q-18 0 -62.5 5t-89.5 16t-79.5 28.5t-34.5 40.5q8 14 26.5 20t32.5 6 t26.5 -3t26.5 -3t24.5 6t10.5 23q0 16 -15.5 25.5t-35 14.5t-40 7t-32.5 2q-18 0 -40.5 -4t-42 -14.5t-32 -26.5t-12.5 -41q0 -43 40 -75t95.5 -53.5t112.5 -31.5t90 -10q59 0 131 17.5t143.5 48t139 74.5t120 97.5t84 114.5t31.5 129q0 86 -52 143.5t-128 86.5 q51 41 94 102t43 131q0 63 -36.5 107.5t-92 71t-118 38.5t-113.5 12q-57 0 -146.5 -17t-181.5 -47t-173 -67.5t-122 -76.5q-10 -10 -17 -20.5t-7 -27.5zM428 514q8 18 34.5 30.5t57.5 20.5t62 12.5t49 4.5q-18 -10 -42 -21.5t-49.5 -23t-51 -18.5t-46.5 -7q-4 0 -7 1t-7 1z " />
<glyph unicode="4" horiz-adv-x="1042" d="M31 463q0 -55 32.5 -89t79.5 -51.5t100.5 -22.5t94.5 -5q88 0 175 12t173 27q0 -78 2 -169t-6 -167q-2 -20 -12.5 -27.5t-10.5 -33.5q0 -25 14.5 -45.5t43.5 -20.5q23 0 37 12.5t14 34.5q0 104 -1 209.5t7 210.5q0 14 25.5 17t55.5 6.5t54.5 12.5t24.5 36q0 45 -41 45 q-20 0 -41 -15q-16 -12 -36.5 -15t-41.5 -7q6 156 14.5 311.5t8.5 312.5q0 35 -18.5 57.5t-55.5 22.5q-33 0 -93.5 -34.5t-132 -91t-147.5 -124t-141.5 -134t-110.5 -122t-57 -86.5q-10 -37 -10 -67zM115 473q0 41 33.5 93t87 108.5t120 113t131 104.5t122 85t93.5 53h3v-76 q2 -139 -5.5 -275t-13.5 -276q-80 -16 -162 -28.5t-166 -12.5q-27 0 -68.5 3.5t-80.5 15.5t-66.5 33.5t-27.5 58.5z" />
<glyph unicode="5" horiz-adv-x="1085" d="M53 369q0 -45 41 -45q27 0 44.5 21.5t31.5 51t27.5 58t29.5 45.5q68 61 145 102t171 41q57 0 120.5 -17.5t114.5 -51t85 -84t34 -117.5q0 -72 -38 -134.5t-97.5 -108.5t-130 -72.5t-137.5 -26.5q-61 0 -105.5 17.5t-77 37.5t-57.5 37.5t-45 17.5t-37.5 -12t-17.5 -35 q0 -20 16 -33q59 -51 142 -75.5t159 -24.5q82 0 171 33t165 89t125 133t49 167q0 80 -41 141.5t-103.5 103.5t-138 62.5t-145.5 20.5q-74 0 -144.5 -21.5t-132.5 -62.5q31 82 42.5 157.5t11.5 163.5v66q41 -10 87 -9t87 1q25 0 78 1t111.5 2t110.5 5t70 10q39 14 39 49 t-34 35h-13q-78 -8 -154.5 -17.5t-154.5 -9.5q-25 0 -57.5 1t-66.5 3t-65.5 7.5t-56.5 15.5q-10 6 -20 6q-27 0 -37 -17.5t-10 -39.5q0 -31 5 -62.5t5 -64.5q0 -96 -24.5 -202.5t-73.5 -190.5q-12 -23 -29.5 -39.5t-34 -35t-28 -40t-11.5 -53.5z" />
<glyph unicode="6" horiz-adv-x="1105" d="M12 346q0 -98 48.5 -172t124 -121t165.5 -70.5t176 -23.5q74 0 159 20.5t157.5 63.5t121 108.5t48.5 153.5q0 92 -55.5 152.5t-135.5 95.5t-170 49t-162 14q-98 0 -189 -20.5t-181 -58.5q18 86 62 174t109.5 158.5t149.5 115.5t181 45q63 0 95 -14.5t51 -30.5t32.5 -30.5 t40.5 -14.5q16 0 29.5 10.5t13.5 28.5q0 35 -28 59.5t-65.5 41t-77.5 24.5t-67 8q-92 0 -172 -37q-106 -45 -191 -121.5t-145.5 -174t-92.5 -209t-32 -224.5zM94 393q0 23 4 38t27 28q37 23 84 39t97 27.5t100.5 17.5t93.5 6q53 0 125.5 -13.5t139 -43t113 -77.5t46.5 -118 q0 -68 -41 -120t-101.5 -86t-130 -51t-127.5 -17q-86 0 -163.5 23.5t-137 69.5t-94.5 115.5t-35 161.5z" />
<glyph unicode="7" horiz-adv-x="1044" d="M-31 979q0 -41 44 -63.5t101.5 -35t115 -15.5t81.5 -3q135 0 270.5 16.5t270.5 41.5q-123 -205 -233.5 -423t-184.5 -448q-2 -4 -2 -16q0 -20 15.5 -32.5t33.5 -12.5q23 0 34 13t17 34q10 35 17.5 67.5t17.5 67.5q63 205 167 401.5t239 362.5q6 8 11 17.5t5 19.5 q0 18 -12 27.5t-31 9.5q-10 0 -18 -2q-143 -29 -288.5 -51.5t-293.5 -22.5q-35 0 -74 2t-75.5 9t-71.5 21.5t-62 39.5q-20 20 -43 20q-18 0 -34.5 -12.5t-16.5 -32.5z" />
<glyph unicode="8" horiz-adv-x="1103" d="M-4 840q0 -59 56.5 -104.5t134 -80t156.5 -59.5t126 -39q-43 -23 -113.5 -63.5t-138 -92t-117 -108.5t-49.5 -113q0 -59 47 -99t111.5 -65.5t134.5 -37t113 -11.5q61 0 149 16.5t169 52.5t139.5 91t58.5 135q0 57 -34 105.5t-84 88.5t-106.5 69.5t-101.5 49.5 q39 20 113 56.5t147.5 77.5t129 82.5t55.5 74.5q0 25 -13.5 42.5t-34 28.5t-44 16t-42.5 5q-25 0 -56.5 -7t-31.5 -40q0 -27 18.5 -34t41.5 -7q10 0 33.5 2t33.5 -6q-4 -10 -35.5 -32.5t-76.5 -51t-97.5 -59.5t-99.5 -56.5t-82 -42t-45 -16.5q-6 0 -8 2q-18 6 -61 18.5 t-95.5 30t-110 40t-103.5 46t-76.5 49t-30.5 52.5q0 16 6 30.5t16 28.5q31 51 92.5 88t134 60.5t146.5 34t129 10.5q119 0 221.5 -31t196.5 -106q6 -4 12 -8.5t17 -4.5q23 0 22 23q0 4 -1 6t-1 6q-25 55 -81 90t-124.5 54.5t-139.5 27.5t-124 8q-59 0 -129 -8t-138.5 -25.5 t-131 -47t-107.5 -72.5q-35 -33 -65.5 -77t-30.5 -93zM141 180q0 27 24.5 59.5t63.5 66.5t87.5 68t94.5 63.5t86 52t64 34.5q39 -12 95.5 -38.5t107.5 -61.5t88 -79t37 -91q0 -59 -47 -101t-112.5 -69t-134.5 -39t-114 -12q-43 0 -89 6t-90 20.5t-83 37t-67 55.5 q-10 14 -11 28z" />
<glyph unicode="9" horiz-adv-x="1079" d="M31 668q0 -68 29.5 -115t76.5 -77t105.5 -43t115.5 -13q80 0 159 20.5t150.5 56t136 85t118.5 108.5q2 -59 -9.5 -118.5t-31.5 -116.5q-18 -53 -55.5 -123t-87.5 -132.5t-110.5 -106.5t-123.5 -44q-35 0 -68 17q-8 31 -19 45t-48 14q-20 0 -40 -12.5t-20 -34.5 q0 -23 19.5 -41.5t47 -30.5t56.5 -19t47 -7q78 0 147.5 36.5t129 96t106.5 137.5t80 161t50.5 162.5t17.5 147.5q0 84 -26 170t-75 154.5t-121.5 111.5t-166.5 43t-199 -46t-192 -121t-143 -171t-56 -194zM119 690q0 80 50 159t125 141.5t163 102.5t161 40q55 0 108.5 -28 t95.5 -71t69 -97.5t27 -107.5q0 -16 -3 -24q-23 -10 -32 -20.5t-21 -30.5q-76 -127 -208 -197t-279 -70q-49 0 -95.5 10.5t-82 35t-57 63.5t-21.5 94z" />
<glyph unicode=":" horiz-adv-x="395" d="M133 35q0 -23 16.5 -37t38.5 -14q14 0 36 7t41.5 19.5t33.5 29t14 34.5q0 12 -9 21t-23.5 15.5t-28.5 10.5t-23 4q-14 0 -31.5 -8t-31.5 -21.5t-23.5 -30t-9.5 -30.5zM139 418q0 -18 12.5 -30.5t30.5 -12.5q16 0 38 9t41.5 23.5t32.5 32t13 35.5q0 23 -21.5 39t-43.5 16 q-16 0 -35 -11t-34 -28.5t-24.5 -37t-9.5 -35.5z" />
<glyph unicode=";" horiz-adv-x="395" d="M102 -121q0 -14 7.5 -25.5t23.5 -11.5q14 0 23.5 10.5t13.5 22.5q8 16 26.5 59t38 90.5t35 88.5t15.5 55q0 33 -33 33q-23 0 -33 -25q-4 -12 -23.5 -58t-40 -98.5t-37 -94.5t-16.5 -46zM147 397q0 -23 14.5 -34t35.5 -11q16 0 38.5 7.5t42 19.5t33 28.5t13.5 34.5 q0 25 -19.5 38.5t-42.5 13.5q-37 0 -76 -28t-39 -69z" />
<glyph unicode="&#x3c;" d="M113 362l567 -258v74l-492 225l492 224v73l-567 -256v-82z" />
<glyph unicode="=" d="M90 264h643v68h-643v-68zM90 473h643v68h-643v-68z" />
<glyph unicode="&#x3e;" d="M170 104l567 258v82l-567 256v-73l494 -224l-494 -225v-74z" />
<glyph unicode="?" horiz-adv-x="897" d="M16 842q0 -27 14.5 -46.5t36 -32.5t46 -20.5t47.5 -7.5q10 0 32.5 1t45 6.5t40 13.5t17.5 22q0 16 -15.5 20.5t-27.5 4.5q-20 0 -38.5 -4t-37.5 -4q-23 0 -48.5 10t-25.5 39q0 18 13.5 30.5t27.5 20.5q49 31 108.5 55.5t124 43t128 28.5t121.5 10q31 0 69.5 -4 t74.5 -18.5t60.5 -39t24.5 -63.5q0 -57 -45 -115.5t-112.5 -117t-145.5 -115.5t-145.5 -111.5t-112.5 -103.5t-45 -92t34.5 -58.5t69.5 -15.5q31 0 59.5 9.5t57.5 9.5q10 0 22.5 -3.5t22.5 -3.5q23 0 35 18.5t12 39.5q0 35 -33 35q-41 0 -81.5 -16.5t-84.5 -16.5q-8 0 -19 2 t-11 8q0 33 45 77t112.5 97t146.5 113.5t146.5 123t112.5 125.5t45 122q0 55 -31.5 89.5t-78 53t-98.5 26t-95 7.5q-33 0 -92.5 -7.5t-128 -20.5t-140 -34.5t-129 -49.5t-94.5 -62.5t-37 -77.5zM274 23q0 -23 25 -37.5t45 -14.5q37 0 64.5 23.5t27.5 62.5q0 20 -9 36t-32 16 q-20 0 -42.5 -11.5t-43.5 -15.5q-23 -6 -29 -22.5t-6 -36.5z" />
<glyph unicode="@" horiz-adv-x="1400" d="M10 494q0 -117 48 -215.5t128 -170t183.5 -111.5t214.5 -40q137 0 269 51t235.5 141.5t167 213.5t63.5 266q0 119 -49 213t-131 160.5t-186.5 101.5t-215.5 35q-74 0 -158.5 -15.5t-166.5 -45t-156 -72.5t-125 -99q-10 -10 -18.5 -21.5t-8.5 -25.5q0 -12 13 -24 q-47 -78 -77 -164t-30 -178zM82 512q0 119 52 218t138 171t194.5 112t219.5 40q55 0 100 -13.5t79 -29t56.5 -27.5t34.5 -12q16 0 26.5 10t8.5 27v4q117 -59 186.5 -164t69.5 -236q0 -121 -54 -225t-141 -183t-199 -124t-226 -45q-104 0 -202.5 31.5t-174.5 93t-122 150.5 t-46 202zM289 453q0 -70 47 -118t117 -48q68 0 126 44t95 97q16 -55 55 -93t98 -38q49 0 92.5 22.5t79 57.5t61 79t38.5 87q4 8 4 12q0 10 -6 18.5t-17 8.5q-23 0 -44 -34t-46.5 -75t-61.5 -74.5t-85 -33.5q-33 0 -52.5 15t-30.5 37.5t-15.5 50.5t-4.5 52q0 47 15.5 88 t15.5 74q0 27 -14 39q18 14 18 43q0 18 -12 31.5t-28.5 22.5t-36 14.5t-33.5 5.5q-59 0 -125 -39t-121.5 -96.5t-92 -125t-36.5 -124.5zM365 459q0 45 24.5 91t61 86t80.5 71.5t83 48.5q12 6 27 6q27 0 41.5 -9.5t30.5 -25.5q-20 -8 -29.5 -27.5t-12.5 -43t-3 -48.5 q0 -23 -2 -39q-4 -35 -22.5 -71.5t-45.5 -67.5t-60.5 -50.5t-70.5 -19.5q-45 0 -73.5 27t-28.5 72z" />
<glyph unicode="A" horiz-adv-x="1570" d="M-63 309q0 -31 51 -49t117.5 -27.5t130 -12.5t88.5 -3h43q-25 -27 -69 -73t-94 -93t-97.5 -87t-77.5 -54q-10 -6 -23.5 -5t-25 -1t-19.5 -11.5t-8 -31.5q0 -23 19.5 -36t41.5 -13q20 0 56 25.5t80.5 65.5t92.5 87t90 92t74.5 82t47.5 53h82q152 0 305 6q39 2 77.5 5 t77.5 3q23 0 30 -5t24 -21q51 -47 102 -87t106.5 -70t117 -47t134.5 -17q33 0 33 32q0 16 -10 25.5t-27 13.5q-20 4 -41.5 7.5t-44.5 7.5q-88 20 -158.5 64t-136.5 106q12 2 60.5 6t100.5 9t94 10t44 5q29 16 29 43q0 33 -33 33h-10q-84 -18 -166 -26.5t-168 -12.5 q-80 111 -124 237t-68 259q27 45 54.5 97t50 108.5t37.5 113t15 109.5q0 20 -3 44.5t-12 46t-24.5 37t-41.5 15.5q-47 0 -79 -49t-51.5 -114.5t-27.5 -131t-8 -100.5q0 -47 3 -91t7 -91q-86 -135 -176 -260t-195 -248q-47 0 -104.5 2t-116.5 7t-115.5 15.5t-99.5 26.5 q-12 6 -23 6q-16 0 -27 -10t-11 -27zM518 287q82 102 159 205.5t148 212.5q25 -104 63 -204t89 -198q-117 -6 -229.5 -10t-229.5 -6zM862 948v43q0 16 5 63.5t15.5 96.5t26.5 88t39 39q6 0 10.5 -8t5.5 -18.5t2 -20.5t1 -14q0 -37 -9.5 -78t-23.5 -81t-31.5 -79t-36.5 -72 q-4 20 -4 41z" />
<glyph unicode="B" horiz-adv-x="1466" d="M-205 877q0 -35 26.5 -50.5t55.5 -15.5q23 0 32 8t12 19.5t3 25.5t4 27q39 35 113 66.5t167 57t197.5 46t203 36t183.5 22.5t138 7q43 0 118.5 -6t148.5 -24.5t126 -55t53 -98.5q0 -55 -48 -106.5t-113.5 -92.5t-136 -72.5t-113.5 -49.5q-37 8 -76 9t-78 1 q-86 0 -175 -7.5t-171 -31.5q8 104 16 208.5t8 209.5q0 12 -6 24.5t-22 12.5q-18 0 -25.5 -13.5t-11.5 -27.5q-8 -31 -9 -68t-5 -70l-29 -303q-23 -10 -43.5 -29.5t-20.5 -48.5q0 -23 15.5 -37t36.5 -20q0 -46 -1 -104v-39q0 -39 1 -79q2 -60 6 -117.5t14 -100.5 q4 -16 11.5 -33.5t27.5 -17.5q23 0 33 21.5t10 39.5q0 90 -8 177t-8 177v35q0 18 2 35q123 10 245.5 50t241.5 75l10 2q98 -6 165 -64.5t67 -160.5q0 -72 -36 -130.5t-92.5 -100.5t-125 -64.5t-131.5 -22.5q-23 0 -51.5 3t-57 12.5t-51.5 24.5t-31 38q-10 33 -29.5 42 t-52.5 9q-20 0 -39.5 -10t-19.5 -35q0 -35 38 -62.5t90 -47t105.5 -29.5t81.5 -10q80 0 166 27.5t158 79.5t118 124t46 162q0 96 -53.5 165.5t-145.5 96.5q49 20 116.5 54t128 80t103.5 101.5t43 116.5q0 84 -64.5 131t-153.5 71t-183 30t-154 6q-123 0 -260 -15.5t-275 -44 t-269.5 -70.5t-241.5 -97q-25 -12 -46.5 -34t-21.5 -50zM461 496q14 16 49 27.5t75 17.5t77.5 9t60.5 3h16q9 0 19 -2q-16 -8 -55 -18.5t-83.5 -19.5t-84 -15t-58.5 -6h-10q-4 0 -6 4z" />
<glyph unicode="C" horiz-adv-x="1339" d="M-12 428q0 -123 67.5 -213t169 -150.5t220 -89t221.5 -28.5q74 0 155.5 12t162.5 34.5t155.5 56.5t136.5 75q22 16 22 39q0 33 -30 33q-6 0 -11.5 -2t-11.5 -5q-129 -78 -273.5 -129t-297.5 -51q-92 0 -197.5 26.5t-194.5 80t-147.5 135.5t-58.5 190q0 96 41 194.5 t107.5 183.5t150.5 151.5t172 99.5q-33 -63 -54.5 -134t-21.5 -142q0 -100 53.5 -167t157.5 -67q72 0 133.5 30t105.5 80t69.5 114.5t25.5 134.5t-23.5 118.5t-64.5 80.5t-96.5 46.5t-118.5 14.5q4 16 -2 34.5t-29 18.5q-25 0 -47.5 -26.5t-34.5 -45.5q-111 -27 -209 -92 t-178 -154.5t-136.5 -196t-80.5 -212.5q-8 -35 -8 -78zM545 807q0 78 36.5 154.5t80.5 140.5q16 2 30.5 3t30.5 1q90 0 150.5 -49.5t60.5 -143.5q0 -43 -17.5 -93t-47 -93t-71.5 -71.5t-91 -28.5q-78 0 -120 54t-42 126z" />
<glyph unicode="D" horiz-adv-x="1587" d="M-119 674q0 -49 32 -78t77 -44t94 -19.5t84 -4.5q16 0 40.5 4.5t24.5 28.5q0 20 -13 26.5t-30 6.5q-20 0 -56 2t-70.5 10t-60.5 25.5t-26 50.5t30 63.5t77 56t105.5 46t112.5 35t99 21.5t68 7l-2 -2q-39 -137 -61.5 -278.5t-22.5 -284.5q0 -59 7 -120.5t7 -121.5v-6 q-10 -1 -18 -1q-50 -1 -78 19q-33 22 -54.5 51.5t-40 53t-52.5 23.5q-18 0 -36 -12.5t-18 -32.5q0 -43 36 -76t85 -54.5t100.5 -33.5t84.5 -17q4 -31 17 -65.5t52 -34.5q23 0 32 17.5t9 37.5q0 18 -6 41q109 0 234.5 14.5t248.5 48.5t232.5 91t183.5 145q39 47 63.5 104 t24.5 118q0 94 -48 163.5t-125 119.5t-174 83t-195.5 52.5t-190.5 28.5t-158 9q4 12 6 25.5t2 27.5q0 16 -9 36t-32 20q-18 0 -32.5 -13.5t-24.5 -33t-16 -40t-11 -34.5q-35 -4 -94 -14.5t-126.5 -26.5t-136.5 -41t-125 -57.5t-91 -73.5t-35 -92zM459 377q0 43 5 115.5 t14 149.5t24.5 146.5t38.5 106.5q8 12 17 15t22 3q55 0 139 -6t178 -21.5t188.5 -43t169 -70.5t121.5 -104.5t47 -143.5q0 -49 -20.5 -94t-52.5 -82q-66 -78 -161 -128t-202.5 -78.5t-217.5 -41t-204 -12.5q-23 0 -48 -1t-34 28q-16 61 -20 128.5t-4 133.5z" />
<glyph unicode="E" horiz-adv-x="1406" d="M-14 158q0 -51 28.5 -85t74.5 -55.5t103.5 -34t115 -17.5t109.5 -6t87 -1q88 0 195.5 13.5t216 36t212 52t185.5 64.5q10 6 19 15.5t9 23.5q0 29 -28 29q-4 0 -17 -5q-188 -72 -381.5 -117.5t-396.5 -45.5q-37 0 -109.5 5t-146.5 21.5t-129 47t-55 81.5q0 49 33.5 93 t88 81t122 67t134 50.5t126 31.5t96.5 11q47 0 94 -6t94 -6q18 0 38 10t20 33q0 20 -17.5 32.5t-42 18.5t-50.5 7t-40 1q-43 0 -86 -5t-84 -13q-29 4 -75 15t-101 27.5t-110.5 39t-100.5 50t-73.5 61.5t-28.5 73q0 37 26.5 65.5t55.5 47.5q41 31 97 51t116.5 32.5t121 17.5 t111.5 5q61 0 137 -8t151 -28.5t138.5 -56.5t97.5 -91q2 -4 3 -5t4 -5q-10 -4 -19.5 -9.5t-9.5 -17.5q0 -18 20.5 -24.5t34.5 -6.5q12 0 28.5 3t32 10.5t25.5 18.5t10 28q0 14 -14 32q-51 68 -126 113t-160 70.5t-174 36t-169 10.5q-43 0 -105.5 -5.5t-132 -17.5t-139 -32.5 t-125 -52.5t-90 -76t-34.5 -103q0 -66 49 -117t118.5 -88t143.5 -61.5t123 -36.5q-57 -18 -139 -54t-157 -86.5t-127 -115t-52 -137.5z" />
<glyph unicode="F" horiz-adv-x="1357" d="M-78 1008q0 -31 16.5 -51.5t40 -34t52 -18.5t53.5 -5q86 0 183.5 24.5t176.5 51.5q-26 -91 -26 -193v-8q0 -113 22 -231q-39 -4 -76.5 -6t-78.5 -2q-4 0 -9 2q-4 16 -11 25t-27 9q-55 0 -111.5 -1t-112.5 -5q-23 -2 -42 -12t-19 -37q0 -25 19.5 -38t47 -18t55 -6t44.5 -1 q86 0 170 8t170 14q18 -61 36.5 -127.5t18.5 -130.5q0 -49 -18.5 -78.5t-48 -47t-68.5 -24t-78 -6.5q-14 0 -35.5 2.5t-43 5.5t-42 8t-35.5 13q-10 8 -17 14.5t-24 6.5q-18 0 -36.5 -15.5t-18.5 -34.5q0 -25 24.5 -40t58.5 -22t67.5 -10t50.5 -3q61 0 122.5 11t110.5 41 t80 78t31 122q0 63 -16.5 123.5t-30.5 119.5q145 12 290.5 24.5t292.5 12.5q23 0 44.5 -9t44.5 -9t47 17.5t24 41.5q0 29 -22.5 37t-44.5 6h-19q-170 -8 -338 -23.5t-338 -27.5q-10 55 -19 111.5t-9 113.5q0 61 12 119.5t35 116.5q72 27 158 61.5t175 63t177 49t164 20.5 q27 0 65.5 -6t74.5 -21.5t60.5 -39t24.5 -60.5q0 -27 -13.5 -44t-28.5 -31.5t-28.5 -26.5t-13.5 -27q0 -18 15.5 -28.5t31.5 -10.5q27 0 48.5 15.5t34.5 38t20.5 50t7.5 50.5q0 55 -29 96t-73 67.5t-97 40t-100 13.5q-72 0 -156 -18.5t-170 -45t-167 -58.5t-146 -58 q8 16 17 34.5t9 37.5q0 25 -28 24q-18 0 -35 -16.5t-30 -40t-23.5 -47t-16.5 -37.5q-78 -27 -176 -52.5t-182 -25.5q-53 0 -77 12.5t-34 27.5t-17 27.5t-28 12.5q-20 0 -29.5 -16.5t-9.5 -34.5z" />
<glyph unicode="G" horiz-adv-x="1564" d="M16 272q0 -90 47.5 -152.5t118 -102.5t154.5 -57t158 -17q78 0 132 11t101 28.5t97 39t120 41.5q18 -31 34.5 -62.5t33.5 -61.5q-53 -33 -107.5 -77t-99.5 -97.5t-72.5 -116t-27.5 -129.5q0 -96 52 -164t152 -68q70 0 126.5 27t94 71t58 103t20.5 127q0 82 -26.5 161 t-63.5 150q27 16 73 38t98 41.5t100.5 32.5t78.5 13q16 0 32 10.5t16 28.5q0 14 -10.5 22.5t-22.5 8.5q-31 0 -85.5 -15.5t-112.5 -36t-111.5 -44t-81.5 -37.5q-6 8 -15.5 24.5t-21 35t-19.5 35.5t-10 26q4 4 5 6t5 4q23 16 44.5 31.5t43.5 31.5q35 29 73 68t69.5 84t52 94 t20.5 96q0 88 -75 125q33 23 64.5 57.5t31.5 77.5q0 45 -37 72t-87 40t-102.5 16t-84.5 3q-131 0 -270.5 -30.5t-268.5 -89t-241.5 -143.5t-190.5 -193q-29 -41 -45.5 -88t-16.5 -99zM111 283q0 84 49 158.5t129 137t180 112.5t202.5 84t198 52.5t164.5 18.5q18 0 58.5 -2 t81 -10.5t71.5 -23.5t31 -40q0 -16 -13.5 -31.5t-32 -30t-37.5 -24.5t-32 -12q-23 -4 -45 -7t-45 -12q-10 -4 -19.5 -8t-19.5 -8q-20 -6 -42.5 -7t-45.5 -1q-14 0 -28.5 -8.5t-14.5 -24.5t9.5 -21.5t21.5 -9.5q-43 -39 -60.5 -99.5t-17.5 -115.5q0 -59 15.5 -104t33.5 -99 q2 -2 2 -6v-6q0 -12 -10 -16q-80 -47 -188.5 -76t-202.5 -29q-61 0 -131 13.5t-128.5 45t-96 83t-37.5 127.5zM786 -471q0 55 24 107.5t61.5 98.5t83.5 84t89 62q35 -66 58.5 -141.5t23.5 -151.5q0 -43 -12 -85t-36.5 -75.5t-60.5 -54t-85 -20.5q-37 0 -64.5 15.5t-45 40 t-27 56t-9.5 64.5zM936 381q0 68 40 119t103 75q12 4 42 13.5t42 9.5q39 0 62.5 -33.5t23.5 -68.5q0 -51 -25.5 -98.5t-64.5 -88.5t-85 -74.5t-85 -56.5q-20 47 -36.5 98.5t-16.5 104.5z" />
<glyph unicode="H" horiz-adv-x="1521" d="M-135 625q0 -68 42 -114t103.5 -74.5t130 -43t119.5 -18.5q6 -104 6 -207v-207q0 -16 12.5 -30.5t30.5 -14.5t26.5 24.5t9.5 56.5t0 63.5t-1 43.5q0 63 2 130v33q0 49 -4 95q197 4 382 25t378 70l2 2q2 -78 4 -155t2 -152q0 -10 -3 -20.5t-3 -20.5q0 -23 12 -50.5 t41 -27.5q23 0 37 19.5t14 41.5q0 14 -3 25.5t-5 25.5q-12 63 -13 132t-1 135v26q0 14 4 27q53 16 104 16q27 0 46.5 -7t35 -14t29.5 -14.5t29 -7.5q20 0 32.5 15.5t12.5 33.5q0 25 -17.5 39.5t-42 21.5t-51.5 10t-43 3q-35 0 -68.5 -5t-68.5 -11q0 27 2 79t5 115.5t7 132 t9.5 129t10.5 106.5t13 64q4 16 16.5 29.5t12.5 32.5q0 16 -11.5 28.5t-27.5 12.5q-12 0 -20.5 -4t-18.5 -13q-16 -14 -26.5 -64t-18.5 -121t-13.5 -151.5t-9.5 -155.5t-6 -134.5t-4 -85.5q0 -12 -8 -15q-68 -25 -148 -43t-165 -30.5t-166.5 -18.5t-151.5 -6q-66 0 -129 6 h-2q-2 25 -2 49v54q0 121 15.5 237.5t37.5 233.5q2 14 3 26.5t1 24.5q0 18 -6 40.5t-31 22.5q-23 0 -34 -12t-15 -33q-16 -74 -26.5 -153.5t-15.5 -162.5t-6 -165t-1 -156q-31 4 -83 16.5t-102 35t-87 54.5t-37 75q0 27 11 41t24.5 23t24.5 17.5t11 24.5q0 18 -14 31.5 t-33 13.5q-25 0 -45 -15.5t-33.5 -39t-21.5 -50t-8 -46.5z" />
<glyph unicode="I" horiz-adv-x="940" d="M-8 53q0 -55 40 -75.5t87 -20.5q78 0 149.5 21.5t143.5 39.5q4 2 10 2t9 -5l6 -10t11.5 -10t26.5 -5q31 0 38 10t11 35q4 4 22.5 7t40 5t41 3t27.5 1q39 0 76 -10t74 -10q20 0 35.5 13t15.5 34q0 18 -17.5 27.5t-41 13.5t-47 5t-35.5 1q-53 0 -106.5 -4t-106.5 -15 q-10 68 -14.5 136.5t-4.5 136.5q0 174 18.5 351t59.5 349q12 2 32.5 4t44.5 4.5t44 2.5h37q53 0 87 -13.5t52 -13.5q16 0 29.5 12.5t13.5 28.5q0 20 -15.5 32.5t-37 17.5t-45 6t-37.5 1q-47 0 -96 -2t-97 -8q2 16 5.5 31.5t3.5 31.5t-6.5 28.5t-24.5 12.5q-25 0 -36 -17 t-16 -38.5t-8.5 -39t-13.5 -19.5q-53 -10 -109.5 -14.5t-109.5 -4.5q-18 0 -48 2t-46 13q10 10 10 22t-9 18.5t-20 6.5q-12 0 -26.5 -6.5t-26.5 -16.5t-20.5 -22.5t-8.5 -24.5q0 -23 18.5 -35t43.5 -18t50.5 -7t41.5 -1q131 0 260 18q-29 -193 -54.5 -383t-25.5 -387 q0 -51 5.5 -102.5t5.5 -102.5l-2 -10q-20 -10 -54.5 -20.5t-72 -18.5t-73.5 -14t-59 -6q-41 0 -58 13t-24.5 29.5t-13.5 30t-24 13.5q-23 0 -29 -21.5t-6 -38.5z" />
<glyph unicode="J" horiz-adv-x="1107" d="M-131 995q0 -86 51 -151.5t133 -114.5t184.5 -83t206 -55.5t196.5 -32.5t155 -13q-78 -53 -185.5 -137t-205 -186.5t-165 -213t-67.5 -215.5q0 -45 18.5 -78.5t49 -55t69.5 -32t80 -10.5q33 0 64 6q133 23 219 88.5t135 158.5t68.5 206.5t19.5 232.5q0 53 -3 105.5 t-7 105.5q43 25 87 47.5t89 44.5q23 10 45 19.5t43 21.5q10 4 17.5 13.5t7.5 21.5q0 27 -27 27q-16 0 -54 -15.5t-80 -35t-81 -40t-58 -28.5q-12 82 -35.5 160t-58.5 151q-80 174 -213 269.5t-327 95.5q-61 0 -128 -16.5t-120 -50.5t-88 -86t-35 -124zM-47 987q0 57 26.5 96 t67.5 63.5t91 36t98 11.5q123 0 216 -48t159.5 -128t108 -182.5t64.5 -208.5q-90 2 -208.5 17t-235.5 49t-216 88.5t-151 136.5q-20 33 -20 69zM252 -184q0 55 29.5 117.5t78 126t108.5 125t121.5 115.5t119 97t98.5 72q6 -53 11 -107.5t5 -109.5q0 -74 -11 -153t-39 -151.5 t-75 -132t-120 -96.5q-35 -16 -71 -27t-75 -11q-31 0 -62.5 8t-57 24.5t-43 42t-17.5 60.5z" />
<glyph unicode="K" horiz-adv-x="1251" d="M-37 373q0 -16 11.5 -22.5t27.5 -6.5q29 0 70 11.5t69 19.5q-6 -129 -12 -255t-6 -255q0 -20 10 -35.5t33 -15.5t46.5 16t23.5 41q0 10 -5.5 18.5t-15.5 12.5q-4 8 -6 30.5t-3 49t-1 51.5v37q0 84 6 165.5t12 163.5q43 14 94 15q78 0 130.5 -36t96.5 -88t88 -114.5 t106.5 -115t151.5 -88t220 -35.5h41t58.5 5t51 15.5t21.5 30.5q0 16 -12.5 26.5t-28.5 10.5q-29 0 -59.5 -8.5t-65.5 -8.5q-106 0 -180 29t-127 73t-93 98t-80 106.5t-88 96.5t-116 66q-4 2 -8 6q0 6 6 6q49 25 115.5 66t141.5 91t149.5 107.5t139 117t113 118t68.5 111.5 q6 8 6 20q0 18 -14 30.5t-31 12.5q-29 0 -43 -33q-53 -98 -152.5 -200.5t-217 -192.5t-243.5 -157.5t-233 -94.5q2 45 10.5 137.5t24 191.5t38 184t52.5 118q10 10 15.5 17.5t5.5 21.5q0 18 -17.5 30.5t-33.5 12.5q-33 0 -57.5 -46t-43 -117.5t-31 -159t-21.5 -167t-13 -145 t-6 -92.5q-12 -4 -44 -13t-64 -22.5t-56.5 -30t-24.5 -32.5z" />
<glyph unicode="L" horiz-adv-x="1572" d="M-10 137q0 -68 48 -128t116.5 -106t146.5 -74t137 -28q92 0 161 45t112 127q102 -29 207.5 -48t211.5 -19q51 0 104.5 6t105 21.5t97.5 40t83 63.5q12 17 12 29q0 29 -29 28q-18 0 -30 -12q-78 -59 -154 -85t-176 -26q-104 0 -203.5 21.5t-198.5 56.5h-4v2 q31 123 56.5 246t40.5 252q0 6 14 6q106 0 211.5 20.5t197.5 75.5q39 25 76 56.5t67 70.5t47 83t17 93q0 51 -22.5 99.5t-60.5 84.5t-87 57.5t-100 21.5q-68 0 -124 -31t-100 -81t-78 -113.5t-58.5 -128t-40 -124t-23.5 -102.5q0 -2 -4 -2q-70 8 -159 36.5t-167 76t-132 114 t-54 154.5q0 27 6 48t41 21q27 0 50.5 -9t49.5 -9q14 0 29.5 5t15.5 24q0 16 -19 27.5t-46 19.5t-52.5 11t-37.5 3q-125 0 -125 -127q0 -115 58.5 -192.5t146.5 -131t191.5 -86t193.5 -57.5q-2 -20 -6.5 -58t-12.5 -87t-17 -102.5t-18.5 -101.5t-18.5 -86t-17 -56l-7 2 q-57 14 -128.5 42.5t-145.5 58.5t-144.5 52.5t-125.5 22.5q-53 0 -89 -28.5t-36 -84.5zM68 127q0 16 11 24.5t27 8.5q43 0 114 -19.5t150 -46t152.5 -54.5t120.5 -42q-23 -59 -73 -99t-117 -40q-51 0 -109.5 22.5t-112 58t-96.5 81t-63 90.5q-4 12 -4 16zM848 627 q8 59 32.5 148t67.5 171t104.5 140.5t141.5 58.5q39 0 71.5 -15.5t57.5 -42t39 -61.5t14 -72q0 -86 -46 -147.5t-114.5 -102t-150.5 -60t-154 -19.5h-32q-14 0 -31 2z" />
<glyph unicode="M" horiz-adv-x="1757" d="M-86 911q0 -10 6 -19t19 -9q12 0 26.5 11t31.5 25.5t37.5 25.5t49.5 11q39 0 63.5 -20.5t39 -51t20.5 -66.5t6 -64q0 -98 -20.5 -195.5t-42.5 -189.5q-8 -31 -22.5 -79t-29 -98.5t-25 -96.5t-10.5 -70q0 -18 8.5 -36t30.5 -18q14 0 25.5 8.5t22.5 18.5q33 41 68.5 99.5 t72.5 122t71.5 125t65.5 108.5q25 39 56.5 87t68.5 95t76 87t78 64q10 6 24 14.5t27 8.5q14 0 18 -14.5t4 -24.5q0 -74 -11 -146.5t-23.5 -144t-23.5 -141.5t-11 -137q0 -20 3 -42t12 -38.5t24.5 -27.5t42.5 -11q31 0 55 20.5t43.5 49t35 60.5t25.5 56q39 82 79 169t88 169 t107.5 155t137.5 126q18 14 42 25.5t48 11.5q29 0 37 -19.5t8 -42.5q0 -25 -5 -49.5t-11 -46.5q-33 -141 -69 -277.5t-36 -281.5q0 -37 14.5 -78t39 -75t59.5 -56.5t78 -22.5q8 0 24.5 1t30.5 4.5t25.5 10.5t11.5 19q0 16 -11.5 21.5t-23.5 5.5q-43 0 -73.5 21.5t-50 53 t-30 70.5t-10.5 76q0 127 33 248l66 242q10 35 16 68.5t6 68.5q0 125 -119 125q-33 0 -62.5 -11.5t-55.5 -27.5q-98 -68 -170 -157t-128.5 -190.5t-105.5 -208t-102 -206.5q-4 -6 -14.5 -23.5t-22.5 -17.5q-10 0 -11 21.5t-1 29.5q0 66 11 129.5t25.5 128t25.5 128t11 128.5 q0 25 -3 52.5t-13 51t-29.5 40t-50.5 16.5q-47 0 -103.5 -44t-116 -114.5t-117.5 -156.5t-110.5 -169t-94.5 -156t-68 -114q18 76 40.5 154t43 156.5t34 157.5t13.5 159q0 47 -9.5 95t-32 88t-59 65.5t-94.5 25.5q-25 0 -55.5 -9t-58 -26.5t-47 -41t-19.5 -52.5z" />
<glyph unicode="N" horiz-adv-x="1382" d="M-152 975q0 -12 8.5 -23.5t22.5 -11.5q18 0 41 26.5t55.5 57.5t77.5 57.5t107 26.5q57 0 96 -32t61.5 -80t31.5 -103t9 -100q0 -80 -12 -158t-30.5 -156t-38 -154.5t-33.5 -154.5q-6 -35 -6 -64q0 -20 7 -47.5t36 -27.5q35 0 43 28.5t12 53.5q4 51 13 91t30 87 q16 39 47 98.5t71 125t87 133t98 120.5t103.5 87t103.5 34q27 0 43 -11.5t25.5 -30t12.5 -41t3 -42.5q0 -70 -10.5 -138.5t-21.5 -136t-21.5 -136t-10.5 -138.5q0 -59 16.5 -112.5t48.5 -93.5t80 -63.5t113 -23.5q20 0 60.5 7.5t80.5 21.5t68.5 34.5t28.5 49.5q0 27 -27 26 q-8 0 -25.5 -9t-42 -19t-54 -19.5t-60.5 -9.5q-53 0 -92 20.5t-63.5 55.5t-37 80t-12.5 92q0 66 11.5 131.5t23.5 130t23.5 130t11.5 130.5q0 35 -8.5 72t-26.5 66.5t-47 48t-70 18.5q-78 0 -154.5 -54.5t-146 -131t-125 -161.5t-90.5 -145q16 86 31.5 169t15.5 173 q0 61 -14 125t-47 114t-83 82t-124 32q-43 0 -88 -14.5t-88 -39t-80 -57.5t-59 -67q-8 -16 -9 -29z" />
<glyph unicode="O" horiz-adv-x="1400" d="M-10 494q0 -117 48 -215.5t128 -170t183.5 -111.5t213.5 -40q137 0 269.5 51t235.5 141.5t166.5 213.5t63.5 266q0 119 -49 213t-131 160.5t-186.5 101.5t-214.5 35q-74 0 -159 -15.5t-167 -45t-156.5 -72.5t-125.5 -99q-8 -10 -16.5 -21.5t-8.5 -25.5q0 -16 12 -24 q-47 -78 -76.5 -164t-29.5 -178zM61 512q0 119 52.5 218t138.5 171t194.5 112t219.5 40q55 0 99 -13.5t78 -29t57.5 -27.5t35.5 -12q16 0 25.5 10t9.5 27v4q117 -59 186.5 -164t69.5 -236q0 -121 -54.5 -225t-141.5 -183t-198.5 -124t-226.5 -45q-104 0 -202.5 31.5t-174 93 t-122 150.5t-46.5 202z" />
<glyph unicode="P" horiz-adv-x="1398" d="M-199 907q0 -37 28 -60.5t65.5 -36.5t77.5 -18.5t67 -5.5q14 0 30.5 5.5t16.5 23.5q0 20 -31.5 30.5t-68.5 19.5t-69 20.5t-32 34.5q0 10 9.5 22t21.5 24.5t24.5 21.5t20.5 16q76 55 175.5 95t208 67.5t217 41t200.5 13.5q76 0 174 -13.5t187 -48.5t150.5 -98.5 t61.5 -163.5q0 -74 -34.5 -136.5t-92 -112.5t-130 -88t-150.5 -63.5t-153 -39t-136 -13.5q-133 0 -268 41q2 27 2 56t8 53h12q27 0 51 -7q30 -9 64 -9q12 0 24.5 5t12.5 21q0 14 -20.5 25.5t-46 18.5t-51.5 10.5t-38 3.5q4 86 18.5 169.5t14.5 169.5q0 10 -1 31t-5 40.5 t-13.5 34.5t-25.5 15t-21.5 -15t-5.5 -30q0 -104 -10 -208.5t-31 -206.5q-25 -2 -53.5 -9.5t-53 -22t-41 -35t-16.5 -50.5q0 -25 15.5 -45.5t38 -35.5t48 -26.5t44.5 -17.5q-2 -90 -12.5 -177t-10.5 -180q0 -12 1 -26t5.5 -28.5t13.5 -24t25 -9.5q23 0 31 14.5t8 35.5v184 q0 94 17 186q102 -20 213 -20q104 0 215.5 19.5t215 61.5t192.5 107.5t151 157.5q27 41 44 88t17 98q0 84 -42 147.5t-105.5 107.5t-141 71t-147.5 37q-53 8 -108.5 11t-110.5 3q-115 0 -233.5 -15.5t-235.5 -48t-224.5 -84t-199.5 -120.5q-27 -18 -47.5 -46t-20.5 -63z M231 559q0 6 9.5 11t21.5 8.5t24.5 6.5t16.5 3l-4 -40t-2 -40q-12 6 -39 21.5t-27 29.5z" />
<glyph unicode="Q" horiz-adv-x="1474" d="M-8 483q0 -115 40 -211t110.5 -165.5t168 -109.5t209.5 -40q102 0 195.5 28.5t185.5 71.5q4 4 12 4q23 -29 48.5 -57.5t55.5 -51t63.5 -36.5t74.5 -14q27 0 77 18.5t97 46t83 60t36 63.5q0 27 -25 27q-12 0 -36.5 -22.5t-57.5 -48.5t-71.5 -48.5t-79.5 -22.5 q-31 0 -57.5 13.5t-49 33t-41 44t-35.5 49.5h-4q68 55 126.5 112.5t100.5 123t65.5 141t23.5 167.5q0 113 -55.5 196t-153.5 136q-23 55 -64 93t-92 62.5t-108.5 35t-112.5 10.5q-141 0 -272.5 -57.5t-232.5 -153.5t-162.5 -225t-61.5 -273zM68 475q0 127 52 244t139 206 t203 142t243 53q66 0 135 -17.5t121 -60.5q-109 25 -220 25q-18 0 -61 -3t-89 -12.5t-81 -23.5t-35 -37q0 -14 11.5 -21t23.5 -7q6 0 14 4q51 16 104.5 23t106.5 7q29 0 66 -3t73.5 -9t70.5 -17.5t59 -25.5q23 -14 26.5 -32.5t3.5 -41.5v-20q0 -10 1 -21.5t7.5 -18.5 t18.5 -7t20.5 10t13.5 23.5t8 28t5 22.5q33 -16 55.5 -45t38 -64t22.5 -72.5t7 -70.5q0 -72 -23.5 -138.5t-63.5 -125t-90 -109.5t-106 -92q-16 23 -35.5 46.5t-42 44t-49 32.5t-55.5 12q-33 0 -83 -18.5t-98 -49t-82 -67.5t-34 -74q0 -16 8 -29.5t29 -13.5q29 0 39 35 q8 23 27.5 47.5t45 44t54 32.5t53.5 13q47 0 84 -31.5t61 -66.5q-76 -43 -158.5 -68.5t-170.5 -25.5q-96 0 -181.5 32.5t-151 91t-103 140.5t-37.5 180z" />
<glyph unicode="R" horiz-adv-x="1523" d="M-166 762q0 -57 42 -93t101.5 -55.5t122 -26.5t103.5 -7q12 0 28.5 6t16.5 22t-24.5 24.5t-60.5 15.5t-78 14.5t-78 19.5t-60.5 31.5t-24.5 52.5q0 37 33 70.5t59 56.5q74 57 166 99t192.5 68.5t202 39t193.5 12.5q47 0 111.5 -5t133 -18.5t134 -36t118 -56t84 -83 t31.5 -112.5q0 -76 -37.5 -143.5t-99 -124t-139.5 -104.5t-159 -84t-157.5 -62.5t-136.5 -40.5q-43 35 -85 71.5t-91 61.5q-2 12 -2 22v23q0 123 18.5 253t53.5 247q4 12 4 22q0 14 -7 24.5t-24 10.5q-23 0 -33 -29q-23 -55 -40 -124.5t-28 -143.5t-18.5 -145.5t-7.5 -131.5 q-27 4 -55.5 -1t-52 -19t-39 -36.5t-15.5 -53.5q0 -33 15.5 -56.5t38 -39t51 -24.5t57.5 -11q0 -50 -1 -110v-11q0 -53 9 -98q4 -18 14.5 -31.5t32.5 -13.5q20 0 31.5 13t11.5 32q0 53 -7 106t-7 107h17q51 0 108 10q70 -49 147.5 -95t160.5 -83t169 -58.5t174 -21.5 q14 0 54.5 3t81 11t73.5 21.5t33 31.5q0 12 -10 17.5t-21 5.5q-12 0 -20 -2q-68 -20 -142 -21q-76 0 -152.5 16.5t-151 46.5t-144.5 68.5t-131 81.5q63 20 143 51t163 73t162 94.5t140.5 115t98 135t36.5 154.5q0 76 -34.5 133t-91 99t-129 69t-148.5 43t-148.5 22.5 t-130.5 6.5q-104 0 -216.5 -15.5t-224.5 -46t-214 -79t-184 -113.5q-39 -29 -74 -72t-35 -96zM311 307q0 16 15.5 19.5t25.5 3.5q17 -1 37 -11l-2 -77q-23 6 -49.5 22.5t-26.5 42.5zM471 272q35 -24 64 -51h-19q-10 0 -21.5 1t-21.5 3z" />
<glyph unicode="S" horiz-adv-x="1341" d="M-43 831q0 -31 15.5 -56t39 -46.5t51 -38t52.5 -26.5q100 -47 206.5 -68t215 -29t218 -13t216.5 -22q27 -4 61.5 -13t66 -24.5t54.5 -40t23 -59.5q0 -23 -10.5 -40t-24.5 -33q-61 -70 -153.5 -128.5t-196 -101.5t-210 -66.5t-198.5 -23.5q-59 0 -117.5 14.5t-105.5 44 t-77 77.5t-30 116q0 16 -4 38.5t-29 22.5q-27 0 -36 -24.5t-9 -44.5q0 -80 34 -140.5t89.5 -100.5t125 -59.5t141.5 -19.5q109 0 231.5 28t240 78t220 121.5t170.5 157.5q18 23 29.5 51.5t11.5 57.5q0 57 -41 94t-97.5 57.5t-118 29.5t-102.5 11q-96 6 -194.5 10 t-196.5 14.5t-193.5 33t-183.5 67.5q-14 6 -30.5 16.5t-32 24t-25.5 29.5t-10 35q0 31 23.5 51t48.5 35q57 33 129.5 56.5t150.5 38.5t156 22.5t143 7.5q41 0 100.5 -4.5t120 -16.5t113.5 -32.5t84 -53.5q2 -2 10 -11t8 -13q0 -10 -20 -26.5t-20 -43.5q0 -16 12 -26.5 t28 -10.5q35 0 68 34t33 69q0 43 -34 72.5t-67 49.5q-39 23 -91 38.5t-107 24.5t-109.5 12t-99.5 3q-43 0 -115.5 -5t-157.5 -17.5t-173.5 -34t-159 -53t-115.5 -75.5t-45 -102z" />
<glyph unicode="T" horiz-adv-x="1089" d="M-199 1114q0 -86 42 -138t105.5 -79t138.5 -35t142 -8q104 0 209 11.5t209 27.5q-16 -150 -22.5 -299.5t-10.5 -298.5q0 -75 1 -151v-31q0 -60 -3 -121q-2 -20 -11 -36.5t-9 -35.5q0 -23 18.5 -46.5t42.5 -23.5q23 0 35 19.5t12 40.5q0 254 2.5 499.5t28.5 497.5 q74 14 153 32.5t158.5 34t158.5 26t155 10.5q43 0 78.5 -12.5t52.5 -12.5q14 0 28.5 15.5t14.5 29.5q0 20 -15.5 32.5t-37 20t-45 10.5t-37.5 3q-78 0 -160 -13.5t-165 -32t-165 -38t-160 -31.5q0 16 3.5 39.5t6.5 49.5t9 49.5t12 37.5q4 8 5 12.5t1 14.5q0 18 -14 31.5 t-33 13.5q-29 0 -43 -34t-21 -78t-9.5 -87t-4.5 -63q-96 -16 -190 -27.5t-191 -11.5q-51 0 -118.5 7t-129 28.5t-104.5 62.5t-43 109q0 29 8.5 55.5t20.5 50.5q2 -10 9 -18.5t18 -8.5q12 0 19 11.5t12 26t7 29.5t2 24q0 18 -7 38.5t-31 20.5q-31 0 -56.5 -29.5t-44 -70.5 t-28 -83t-9.5 -67z" />
<glyph unicode="U" horiz-adv-x="1404" d="M-150 596q0 -16 6.5 -30.5t28.5 -14.5q8 0 27.5 8t40 20.5t36 24.5t15.5 23q0 10 -7 16t-17 6q66 100 166 189.5t214 132.5q10 4 22.5 7t25.5 3q35 0 46 -22.5t11 -51.5q0 -45 -13.5 -90t-27.5 -88q-20 -66 -50 -143.5t-56.5 -159.5t-46 -162t-19.5 -145q0 -43 9 -83 t30.5 -71t56.5 -49t84 -18q80 0 157 47t145.5 114.5t124.5 144.5t97 136q0 -66 6.5 -130.5t31 -116.5t72.5 -85t128 -33q25 0 63.5 11.5t76.5 30t64.5 43t26.5 53.5q0 10 -6 20t-18 10q-10 0 -27.5 -14t-41 -30.5t-55.5 -31t-71 -14.5q-53 0 -86 30t-51 73t-25.5 93t-7.5 91 q0 37 4 90t17 88q18 45 40.5 104.5t43 122t35 122t14.5 108.5q0 18 -12.5 32.5t-30.5 14.5q-20 0 -35 -21q-20 -29 -38.5 -86t-34 -122.5t-28 -129t-20.5 -100.5t-38.5 -95t-74.5 -123.5t-99.5 -132.5t-112 -119t-110.5 -86t-97 -34q-33 0 -56.5 14.5t-38 38t-20.5 52 t-6 57.5q0 45 9 97.5t23.5 105.5t32 104.5t31.5 94.5q14 37 34.5 91t40 111.5t33 110.5t13.5 90q0 53 -29.5 86t-85.5 33q-23 0 -46 -5t-46 -12q-59 -20 -123.5 -60t-126 -89t-114 -103.5t-88.5 -105.5q-4 -6 -12.5 -18.5t-15.5 -24.5t-12.5 -24.5t-5.5 -20.5z" />
<glyph unicode="V" horiz-adv-x="1495" d="M-172 395q0 -35 24.5 -52t57.5 -17q14 0 34.5 6t20.5 26q0 12 -7 16.5t-16.5 7.5t-16.5 9t-7 23q0 39 27.5 93t72.5 112.5t102.5 116t116 103.5t114 73.5t93.5 27.5q33 0 52.5 -17.5t29 -44t11.5 -57t2 -55.5q0 -111 -12.5 -220.5t-12.5 -219.5q0 -76 11.5 -156 t43 -146.5t90 -108.5t154.5 -42q74 0 145.5 33t135 88t117 127t92 149.5t60 156t21.5 146.5q0 53 -13 110.5t-37.5 111t-60.5 98.5t-83 74q-10 6 -21 6q-16 0 -34.5 -10.5t-18.5 -28.5q0 -10 31 -37t66.5 -72t66.5 -108.5t31 -145.5q0 -57 -17.5 -125.5t-49.5 -138 t-77 -135.5t-98 -116t-113.5 -79.5t-126.5 -29.5q-74 0 -120.5 39t-73.5 96t-36 124.5t-9 125.5q0 113 16.5 223.5t16.5 222.5q0 39 -5.5 81t-21.5 77t-46 57.5t-79 22.5q-59 0 -121.5 -27.5t-121 -69.5t-110.5 -90.5t-89 -91.5q-23 -27 -57.5 -69.5t-66.5 -91t-54.5 -96.5 t-22.5 -85z" />
<glyph unicode="W" horiz-adv-x="1689" d="M-158 612q0 -18 11.5 -32.5t31.5 -14.5q18 0 30.5 15.5t12.5 31.5q0 98 36 167t128 112q37 18 78 18q59 0 97 -40t38 -95q0 -76 -20.5 -149.5t-44 -147.5t-44 -148.5t-20.5 -150.5q0 -41 10.5 -86t32 -82t56 -61.5t83.5 -24.5q55 0 122 49.5t128.5 118t112.5 141 t78 117.5q10 -59 33.5 -126.5t63.5 -126t94 -97.5t126 -39q70 0 132.5 37t114.5 96.5t94 135t70.5 155.5t44 156t15.5 133q0 88 -29.5 176t-107.5 139q-16 6 -29 6q-16 0 -33.5 -9t-17.5 -30q0 -16 22.5 -34.5t49 -51t49 -85t22.5 -136.5q0 -72 -20 -156.5t-57 -165.5 t-88.5 -151t-112.5 -108q-39 -27 -90 -27q-76 0 -128 45t-85 110.5t-47.5 140.5t-14.5 136v14q0 8 4 19q29 104 63 214.5t34 221.5q0 27 -11.5 50.5t-41.5 23.5q-43 0 -69 -55.5t-39 -128t-18.5 -142t-5.5 -98.5t3.5 -57.5t-1.5 -57.5q-4 -29 -27.5 -74t-59 -97t-82 -105.5 t-92.5 -96.5t-89 -70.5t-76 -27.5t-54 17.5t-34.5 43t-18.5 56.5t-5 57q0 80 20.5 156t45 149.5t45 146.5t20.5 146q0 92 -49 146.5t-142 54.5q-74 0 -137 -30.5t-110 -82t-74 -118t-27 -136.5z" />
<glyph unicode="X" horiz-adv-x="1624" d="M53 821q0 -25 17.5 -39t40.5 -14q16 0 42.5 8t26.5 31q0 18 -12 21t-25 10q2 27 30 60.5t68 63t84 50t74 20.5q41 0 73 -20.5t54.5 -51t39 -67.5t28.5 -70q25 -70 46.5 -139.5t47.5 -138.5q4 -12 4 -19l-4 -8l-4 -8q-29 -41 -59.5 -78t-59.5 -76q-66 -90 -126 -180 t-117 -184q-6 -12 -20.5 -30.5t-29 -38t-24.5 -38t-10 -30.5q0 -16 15 -22.5t28 -6.5q27 0 38 13.5t21 35.5q27 61 75 141t102 160t109.5 153.5t98.5 127.5q37 -78 86 -147.5t110.5 -122t137.5 -83t168 -30.5q94 0 180 41t139 123q2 4 4 9t2 11q0 29 -26 29 q-14 0 -32.5 -21.5t-49.5 -46t-79 -46t-122 -21.5q-82 0 -153.5 30.5t-132 82.5t-104.5 120t-71 141v6q0 6 38 54.5t96.5 118t125 151.5t125 153.5t96 125t37.5 65.5q0 18 -14 31.5t-33 13.5q-25 0 -34 -22q-47 -76 -89.5 -136.5t-97.5 -132.5q-70 -88 -138.5 -174 t-137.5 -172q-14 39 -28.5 92.5t-33 108.5t-41 108.5t-53.5 95.5t-72 67.5t-96 25.5q-53 0 -108.5 -22.5t-104.5 -57.5t-89 -79t-67 -89q-10 -16 -10 -37z" />
<glyph unicode="Y" horiz-adv-x="1165" d="M25 406q0 -115 64.5 -180.5t178.5 -65.5q80 0 162 33.5t157 86t140.5 116t112.5 122.5q4 -117 17 -231.5t15 -231.5q-39 -49 -84 -113.5t-82.5 -135t-63.5 -143.5t-26 -138q0 -33 8.5 -65.5t25 -59.5t44 -43t64.5 -16q49 0 82.5 31.5t55.5 82.5t33 113.5t16 125t5 118.5 v86v73q0 35 -2 70q10 14 35 46t52.5 63.5t54 58.5t38.5 31q23 8 33 13t10 36q0 16 -15 23t-28 7q-16 0 -42.5 -22.5t-54 -51t-52.5 -58t-37 -42.5q-6 98 -14 197.5t-8 198.5q0 23 -1 51.5t5 48.5q4 16 14 34.5t18 35.5q31 66 48.5 123t17.5 131q0 20 -10.5 35.5t-32.5 15.5 q-16 0 -25.5 -8.5t-17.5 -20.5q-45 -70 -64.5 -148.5t-27.5 -158.5q-2 -18 -4 -26.5t-13 -24.5q-37 -63 -95 -133t-131 -129.5t-152.5 -98.5t-157.5 -39q-94 0 -145.5 57.5t-51.5 149.5q0 63 19.5 135t49.5 140.5t67.5 133t74.5 118.5q18 -2 35.5 12t31 35.5t20.5 44t7 39.5 q0 39 -37 39q-27 0 -45 -25q-51 -59 -103 -147.5t-94 -184.5t-68.5 -193.5t-26.5 -176.5zM690 -475q0 51 18.5 108.5t46 113.5t60.5 106.5t64 91.5q0 -35 1 -70t1 -70q0 -31 -2 -97t-13.5 -135t-35 -121t-66.5 -52q-23 0 -37 13.5t-22.5 32.5t-11.5 40.5t-3 38.5z" />
<glyph unicode="Z" horiz-adv-x="1167" d="M-137 688q0 -57 35.5 -88t91.5 -31q14 0 47 6.5t67.5 16.5t61.5 24.5t27 32.5q0 10 -8.5 16.5t-18.5 6.5q-33 0 -74 -15.5t-82 -15.5q-23 0 -45 8t-22 37q0 23 10 47q27 68 87 126.5t135 99t156 64.5t152 24q59 0 121 -18.5t113 -53.5t82.5 -87t31.5 -120 q0 -55 -25.5 -111.5t-65.5 -108.5t-86 -96t-89 -75q-61 12 -123 12q-27 0 -63.5 -6t-71.5 -20.5t-59.5 -38t-24.5 -58.5q0 -41 31 -57t65 -16q29 0 64 10t69.5 25.5t66.5 33t56 33.5q39 -10 80 -28.5t75 -45t58.5 -61.5t32.5 -78q-47 -23 -115.5 -59.5t-142.5 -82.5 t-147.5 -100.5t-132 -114t-95 -122t-36.5 -121.5q0 -66 40.5 -111t106.5 -45t137.5 31t141 82t132 118.5t109.5 141.5t75 149.5t28 143.5v26t-2 31q59 29 131.5 51.5t138.5 22.5q18 0 31.5 12t13.5 31q0 37 -41 37q-31 0 -70 -9.5t-78.5 -22.5t-76.5 -27.5t-66 -26.5 q-25 88 -97.5 148.5t-154.5 90.5q43 39 89 90.5t84 108.5t61.5 118.5t23.5 125.5q0 78 -39 136t-98 98t-132 60.5t-140 20.5q-80 0 -163 -20.5t-159 -58.5t-143.5 -90t-116.5 -116q-25 -31 -40 -66.5t-15 -74.5zM229 -512q0 51 34 105.5t88.5 105.5t122 99t134 89t127 74 t101.5 51v-35q0 -100 -53.5 -202.5t-133.5 -186.5t-170 -137t-164 -53q-41 0 -63.5 25.5t-22.5 64.5zM311 268q6 14 22.5 24.5t37 16.5t42 8t36.5 2q8 0 16 -1t16 -1q-29 -18 -67.5 -35.5t-73.5 -17.5q-18 0 -29 4z" />
<glyph unicode="[" horiz-adv-x="550" d="M197 -246q0 -16 16 -16h305q17 0 17 16q0 4 1 14.5t0 19.5t-5.5 16.5t-12.5 7.5h-248v1474h248q16 0 17 17q0 4 1 14t0 19.5t-5.5 16.5t-12.5 7h-305q-16 0 -16 -17v-1589z" />
<glyph unicode="\" horiz-adv-x="806" d="M-217 1202q0 -12 19.5 -43t44 -64.5t48 -63.5t31.5 -40q100 -127 202.5 -252t202 -253t192.5 -260t175 -271q8 -14 18.5 -35.5t23 -42t28.5 -35t35 -14.5q31 0 31 31q0 23 -20.5 50.5t-33.5 43.5q-117 180 -239.5 351t-253.5 339q-59 78 -121 152.5t-121 150.5 q-35 41 -70.5 84t-64.5 90q-8 12 -17.5 30.5t-19.5 37t-23.5 32t-29.5 13.5q-12 0 -24.5 -8t-12.5 -23z" />
<glyph unicode="]" horiz-adv-x="550" d="M-50 -219q-1 -10 0 -19.5t4 -16.5t13 -7h305q17 0 17 16v1589q0 16 -17 17h-305q-16 0 -16 -17q0 -4 -1 -14t0 -19.5t4 -16.5t13 -7h248v-1474h-248q-16 0 -16 -17q0 -4 -1 -14z" />
<glyph unicode="^" d="M203 803q0 -16 14 -17q8 0 40 27t70 60.5t71.5 64.5t45.5 41h5q12 -10 43.5 -41t65.5 -64.5t62.5 -60.5t38.5 -27q13 1 13 17q0 12 -30 51t-68.5 81t-75.5 75.5t-49 33.5t-52.5 -33.5t-83.5 -75.5t-76.5 -81t-33.5 -51z" />
<glyph unicode="_" horiz-adv-x="1024" d="M0 -174v-62h1024v62h-1024z" />
<glyph unicode="`" horiz-adv-x="512" d="M102 823q0 -20 19 -35q12 -10 38.5 -33.5t56.5 -49t55.5 -45t35.5 -19.5q12 0 21.5 8.5t9.5 20.5q0 10 -27.5 40.5t-63.5 64.5t-69 60.5t-43 26.5q-16 0 -24.5 -12t-8.5 -27z" />
<glyph unicode="a" horiz-adv-x="692" d="M-51 143q0 -70 46 -118t118 -48q37 0 69.5 14.5t61 39t51 54.5t39.5 60q20 -47 58 -79.5t91 -32.5q51 0 96.5 26.5t80 66.5t56 89t25.5 94l2 10q0 10 -7 19.5t-17 9.5q-23 0 -40 -39t-41 -85t-56.5 -84t-87.5 -38q-33 0 -54.5 20.5t-34 50.5t-16.5 62.5t-4 57.5 q0 29 7 58.5t7 58.5q0 23 -20 36q16 12 16 35q0 18 -10 30.5t-25.5 22t-33 13.5t-31.5 4q-61 0 -122.5 -42t-112 -104.5t-81 -133t-30.5 -128.5zM25 154q0 39 23.5 94t60 105t80.5 85t85 35q20 0 34 -7.5t30 -19.5q-23 -12 -29 -41.5t-6 -52.5q0 -16 3 -33.5t3 -33.5 q0 -35 -14 -76t-40 -76t-59.5 -58.5t-72.5 -23.5q-47 0 -72.5 29t-25.5 74z" />
<glyph unicode="b" horiz-adv-x="624" d="M-14 293q0 -43 6 -96.5t24.5 -100.5t52 -79.5t89.5 -32.5q45 0 81.5 19.5t67.5 49t54.5 67.5t39.5 75q27 -6 56 -7q59 0 119.5 27t91.5 82q4 8 4 16q0 10 -7.5 17.5t-17.5 7.5q-12 0 -26.5 -13.5t-35 -31t-50 -30.5t-74.5 -13q-10 0 -21.5 1t-21.5 3q4 18 6 35.5t2 36.5 q0 25 -5 54.5t-17.5 54t-34 42t-52.5 17.5q-47 0 -68.5 -32t-21.5 -73q0 -57 34 -101t79 -73q-8 -23 -24.5 -49.5t-38 -50t-47 -40t-52.5 -16.5q-35 0 -57.5 25t-35.5 60.5t-18.5 73.5t-5.5 63v10q57 53 121 125.5t117 154.5t88 169t35 171q0 27 -5 57.5t-18.5 56.5t-36 43 t-55.5 17q-27 0 -48 -12t-38 -31q-51 -57 -94 -153t-75 -203.5t-49 -212t-17 -180.5zM59 375q8 55 25.5 142t44.5 177t60.5 170t74.5 121l12.5 12.5t18.5 8.5q16 0 26.5 -11.5t15.5 -27t7 -32t2 -28.5q0 -74 -25.5 -147.5t-67.5 -143t-93 -131t-101 -110.5zM295 389 q0 18 16 29q14 0 23.5 -10.5t15.5 -24.5t8 -29.5t2 -25.5t-1 -21.5t-3 -21.5q-27 18 -44 43.5t-17 60.5z" />
<glyph unicode="c" horiz-adv-x="614" d="M-16 293q0 -59 20.5 -108.5t57 -85.5t87 -56t109.5 -20q57 0 118.5 21.5t116 58t97.5 85t65 101.5q4 6 4 18q0 29 -26 29q-14 0 -41 -39t-69 -85t-101.5 -84t-138.5 -38q-98 0 -160 62.5t-62 160.5q0 37 14.5 85t41 90t63.5 71t80 29q16 0 35.5 -11.5t26.5 -27.5 q-2 -33 -14.5 -65.5t-12.5 -73.5q0 -10 1 -27.5t5 -34t12.5 -29t24.5 -12.5q23 0 37 23.5t23.5 55.5t12.5 63.5t3 48.5q0 20 -2 40.5t-11 41.5q2 12 -2 28.5t-20 16.5l-10 -2q-16 16 -40 27.5t-46 11.5q-63 0 -117.5 -36t-94.5 -91.5t-63.5 -120t-23.5 -121.5z" />
<glyph unicode="d" horiz-adv-x="684" d="M-37 174q0 -29 5 -57.5t19.5 -52t36 -39t56.5 -15.5t69.5 16.5t65.5 42t57.5 55.5t44.5 58q25 -53 73 -95t110 -42q45 0 83 24.5t67.5 62.5t50 82t32.5 81v10q0 12 -7 21.5t-19 9.5q-18 0 -35 -34t-38.5 -74t-51 -73.5t-76.5 -33.5q-29 0 -49.5 16.5t-37 40t-26.5 50 t-16 48.5q29 61 58.5 131t53 144t38 148.5t14.5 142.5q0 20 -2 51t-11.5 59.5t-26 49t-44.5 20.5q-45 0 -78 -53.5t-54.5 -124t-32.5 -142t-13 -106.5q-23 6 -43 6q-61 0 -112.5 -47t-86.5 -114.5t-54.5 -141.5t-19.5 -125zM37 197q0 31 15.5 87t41 111.5t59 95t68.5 39.5 q16 0 33.5 -11t17.5 -30q0 -59 3.5 -114.5t17.5 -114.5q-12 -18 -32.5 -49t-46.5 -58.5t-53.5 -48t-54.5 -20.5q-20 0 -33.5 11t-21.5 28.5t-11 37t-3 36.5zM350 489q0 43 5 104.5t16.5 124t30 119t44.5 91.5q12 -18 16.5 -54t4.5 -59q0 -104 -35 -221t-76 -213 q-6 55 -6 108z" />
<glyph unicode="e" horiz-adv-x="471" d="M-12 301q0 -47 13 -89t40 -76t65.5 -53.5t88.5 -19.5q47 0 96 20.5t92 53.5t78 75t55 83q4 12 4 16q0 10 -7 19.5t-19 9.5q-10 0 -34 -32t-58.5 -68.5t-84 -68.5t-110.5 -32t-96 37t-45 96q8 -1 15 -1q37 1 74 17q44 20 79.5 52.5t57 75.5t21.5 88t-24.5 75.5t-71.5 30.5 q-55 0 -97 -30.5t-72 -76.5t-45 -100.5t-15 -101.5zM66 354q2 27 11 59.5t25.5 62.5t41 50.5t57.5 20.5q23 0 34 -25t11 -43q0 -25 -13.5 -48t-33 -42.5t-44 -31t-49.5 -11.5t-40 8z" />
<glyph unicode="f" horiz-adv-x="581" d="M-72 291q0 -29 18.5 -49.5t41.5 -34.5q0 -61 7 -141t31.5 -152t74 -121t132.5 -49q57 0 102.5 27.5t76 71.5t47 98.5t16.5 105.5q0 29 -5 56.5t-13 56.5q16 6 45.5 23.5t59.5 40t51.5 47t21.5 44.5q0 10 -9.5 19.5t-19.5 9.5q-6 0 -24.5 -16.5t-44 -38t-53 -41 t-50.5 -27.5q-47 76 -125 120t-164 46q39 53 91.5 129t99.5 160t80 168t33 153q0 53 -27 95.5t-86 42.5q-55 0 -99 -45.5t-80 -116t-63.5 -157.5t-46 -171t-30 -157.5t-15.5 -114.5q-29 -10 -51.5 -29.5t-22.5 -52.5zM57 180q57 -23 112.5 -34t115.5 -11q25 0 50 2l50 4 q10 -23 15.5 -49t5.5 -53q0 -29 -7.5 -68t-25 -72.5t-44 -57t-63.5 -23.5q-68 0 -107.5 38t-62 93t-31 117.5t-8.5 113.5zM63 260v8q0 37 17.5 42t48.5 5q63 0 129.5 -26.5t101.5 -83.5q-16 -2 -31.5 -3t-31.5 -1q-55 0 -120.5 13t-113.5 46zM74 412q2 27 11 86t25.5 130.5 t39 148.5t50 140.5t60.5 104.5t72 41q29 0 39 -22.5t10 -45.5q0 -53 -34 -137t-81 -170t-100 -161.5t-92 -114.5z" />
<glyph unicode="g" horiz-adv-x="700" d="M-45 -428q0 -45 18.5 -88t50 -77t72.5 -55.5t86 -21.5q70 0 121 36t85 89t50.5 118t16.5 124q0 74 -12.5 146.5t-24.5 144.5q25 14 79 54t110.5 88t99.5 96t43 81q0 29 -29 29q-20 0 -29 -19q-20 -35 -54 -71.5t-74 -71.5t-81 -65.5t-73 -51.5q-4 39 -8.5 78t-4.5 78 q0 8 12.5 33.5t28 61.5t28.5 78t13 85q0 12 -2 32.5t-10 31.5q2 13 2 24q0 37 -19 63q-26 33 -81 33q-66 0 -135.5 -43t-127 -107.5t-94.5 -139t-37 -138.5q0 -66 41 -106.5t107 -40.5q53 0 105.5 23.5t95.5 54.5l18 -138q-55 -35 -121.5 -82t-126 -104t-99.5 -122.5 t-40 -139.5zM18 -428q0 61 35 117.5t86 104.5t109.5 88t105.5 67q12 -63 21.5 -127t9.5 -129q0 -41 -5.5 -91t-25.5 -87q-23 -43 -63.5 -82t-93.5 -39q-35 0 -67 15.5t-56.5 40t-40 56t-15.5 66.5zM49 233q0 51 27.5 113t73 116t99.5 90t109 36q16 0 33 -6.5t17 -28.5 q0 -4 -3.5 -11t-5.5 -10q-37 -72 -56 -138t-21 -150q-35 -35 -81 -64.5t-98 -29.5q-41 0 -67.5 20t-26.5 63z" />
<glyph unicode="h" horiz-adv-x="616" d="M-39 -27v-12q0 -14 8 -24.5t25 -10.5q29 0 39 23.5t14 46.5q6 27 23.5 88t44 124.5t58.5 112t67 48.5q23 0 28.5 -46.5t18 -102.5t42 -102t99.5 -46q35 0 76 23.5t75.5 57t58.5 71.5t24 69q0 14 -5.5 27.5t-23.5 13.5q-16 0 -30.5 -30t-35 -64.5t-51.5 -64.5t-78 -30 q-31 0 -46 22.5t-24.5 55.5t-14.5 73t-15 72.5t-30.5 55t-59.5 22.5q-29 0 -56.5 -20t-52 -48t-44 -59.5l-32.5 -52.5v107q55 63 107.5 142t94.5 165t66.5 176t24.5 176q0 20 -2 46t-11 48.5t-25.5 37t-45.5 14.5q-37 0 -69 -27q-45 -41 -78 -107.5t-57.5 -149.5t-41 -174 t-25.5 -179t-13 -166t-4 -133q-2 -70 -5.5 -134.5t-17.5 -134.5zM61 475q6 55 19.5 139t34 170t48 164t62.5 125q4 6 15.5 18.5t21.5 12.5q6 0 11.5 -13.5t8.5 -31t4 -33.5t1 -22q0 -70 -19.5 -141.5t-51.5 -140.5t-72 -132.5t-83 -114.5z" />
<glyph unicode="i" horiz-adv-x="346" d="M-25 195q0 -31 5.5 -62t18.5 -56.5t36.5 -41t60.5 -15.5q49 0 95.5 27t84 67t67.5 88t46 89q6 8 6 20q0 27 -26 27q-18 0 -29 -21q-14 -25 -39 -62.5t-53.5 -74.5t-62 -62.5t-66.5 -25.5q-23 0 -36 10.5t-20.5 26.5t-9.5 34.5t-2 37.5q0 33 6 68.5t13.5 70.5t13.5 64.5 t6 50.5q0 16 -8 26.5t-25 10.5q-12 0 -26 -11q-16 -12 -26.5 -50t-16.5 -83t-9.5 -89t-3.5 -64zM31 629q0 -23 15 -34t36 -11q41 0 66.5 32.5t25.5 71.5q0 25 -12 47.5t-41 22.5q-23 0 -40.5 -13.5t-28.5 -33t-16 -42t-5 -40.5z" />
<glyph unicode="j" horiz-adv-x="339" d="M-299 -477q0 -92 56.5 -153.5t150.5 -61.5q68 0 118 29.5t82.5 76.5t49 107.5t16.5 120.5q0 92 -18.5 179t-38.5 175q20 14 64 56t90 90t81 95t35 76q0 12 -8 22.5t-23 10.5q-18 0 -28 -20q-47 -80 -102.5 -142.5t-129.5 -122.5q-14 49 -22 99.5t-8 101.5q0 33 6 56.5 t13 43t13 36t6 32.5q0 20 -12 34.5t-33 14.5q-25 0 -41 -20.5t-24 -49t-11 -58t-3 -48.5q0 -74 13 -148.5t30 -146.5q-51 -41 -107.5 -95t-105 -117.5t-79 -133.5t-30.5 -139zM-229 -479q0 61 25.5 120.5t65.5 115t88 102.5t91 82q20 -84 38.5 -166t18.5 -168q0 -41 -9 -83 t-28.5 -76t-53.5 -54.5t-83 -20.5q-70 0 -111.5 38t-41.5 110zM55 690q0 -49 49 -49q39 0 64 32.5t25 67.5q0 23 -12.5 44.5t-39.5 21.5q-20 0 -36.5 -12.5t-26.5 -29.5t-16.5 -37.5t-6.5 -37.5z" />
<glyph unicode="k" horiz-adv-x="681" d="M-47 113q0 -12 2 -39t7 -53.5t16.5 -47t29.5 -20.5q33 0 41 25.5t8 52.5v145q0 74 9 146q2 27 18 79t41 102t55.5 89t63.5 41l12 2q29 2 48.5 -11.5t31.5 -36t17 -50t5 -54.5q0 -25 -10 -59.5t-28.5 -66t-43 -55t-53.5 -23.5q-20 0 -29.5 12t-16.5 27.5t-15 27.5t-27 12 q-16 0 -34.5 -13t-18.5 -32q0 -8 4 -16q20 -47 51 -92t71 -81t87 -57.5t102 -21.5t102.5 20.5t88.5 53.5t73.5 75t59.5 85q6 8 6 20t-7 22.5t-22 10.5q-12 0 -37.5 -33t-64.5 -73t-88 -72.5t-107 -32.5q-49 0 -89 26.5t-68 65.5q35 4 69.5 36t63.5 75t46 91t17 83 q0 37 -11 73.5t-31.5 65.5t-50.5 47t-66 18q-35 0 -65 -14t-55.5 -37.5t-47 -51.5t-37.5 -54v12v29q0 71 8 141q10 84 10 170v35q0 25 -3 49.5t-12 42.5t-28 18q-20 0 -30.5 -14t-10.5 -33q0 -33 5 -65q4 -22 4 -46q0 -10 -1 -20v-30q-4 -84 -11 -165t-13 -163 q-2 -39 -2 -78t-4 -78q-8 -63 -21.5 -115.5t-13.5 -121.5z" />
<glyph unicode="l" horiz-adv-x="407" d="M-14 385q0 -49 8 -111.5t30.5 -118t62.5 -93t106 -37.5q47 0 93 26.5t81.5 67.5t58.5 89t23 91q0 29 -25 29q-18 0 -35.5 -36t-40 -79t-54.5 -79t-81 -36q-27 0 -53.5 20.5t-48 50.5t-35 62.5t-13.5 57.5q0 8 1.5 16t7.5 14l4 7q45 57 91 133t84 157.5t61.5 165.5 t23.5 160q0 20 -5 44t-16.5 44.5t-30 33.5t-42.5 13q-45 0 -82 -42t-64.5 -108.5t-49 -146.5t-35 -156.5t-19.5 -141t-6 -97.5zM61 414v37q0 53 6.5 127.5t24 151.5t45 145.5t70.5 107.5q6 6 12 11t17 5q10 0 17 -9t11 -21.5t5 -25.5t1 -21q0 -55 -20.5 -125t-52 -139.5 t-68.5 -134t-68 -109.5z" />
<glyph unicode="m" horiz-adv-x="962" d="M-92 66q0 -16 12 -28.5t29 -12.5q23 0 33 20.5t14 36.5q8 35 33.5 90t61.5 107.5t78 90.5t83 38q35 0 44 -32t9 -61q0 -33 -7 -64.5t-15.5 -60t-15.5 -53t-7 -43.5q0 -10 8 -22.5t21 -12.5h14q16 8 22.5 17.5t10.5 27.5q6 25 32.5 76t62.5 102.5t74 90.5t64 39 q6 0 11.5 -10.5t9.5 -22.5t6 -24.5t2 -18.5q4 -37 10 -87t21.5 -95t45.5 -76t83 -31q37 0 83 27.5t85 66.5t65.5 83t26.5 75q0 12 -8.5 22.5t-20.5 10.5q-20 0 -39.5 -34t-44 -74t-55.5 -72.5t-74 -32.5q-35 0 -53 27.5t-26.5 68.5t-13.5 89t-14.5 89t-27.5 68.5t-55 27.5 q-31 0 -59.5 -19t-54.5 -46t-48.5 -56.5t-40.5 -50.5q4 29 -1 57.5t-18.5 52.5t-37 38t-56.5 14q-66 0 -108.5 -39t-77.5 -86q10 35 22.5 70t12.5 72q0 18 -10.5 39.5t-32.5 21.5q-18 0 -26.5 -9t-14.5 -26q-14 -35 -20.5 -77t-16.5 -80q-16 -74 -43 -143.5t-45 -141.5 q0 -4 -1 -7t-1 -7z" />
<glyph unicode="n" horiz-adv-x="681" d="M-63 84q0 -14 10 -28.5t26 -14.5q14 0 47 46t75 102.5t86 102.5t83 46q18 0 24.5 -26.5t8.5 -66.5t5 -86t17.5 -86t43 -66.5t81.5 -26.5q47 0 91.5 32.5t82 79.5t65.5 99.5t42 91.5q4 6 4 20q0 12 -7 21.5t-20 9.5q-20 0 -42.5 -43t-50 -93.5t-63.5 -93.5t-83 -43 q-39 0 -55.5 26t-21.5 66t-5 85t-7 84.5t-25.5 65.5t-59.5 26q-31 0 -62.5 -16.5t-60.5 -40t-54.5 -51t-43.5 -50.5q0 18 2 61q1 17 1 35q0 26 -2 54q-3 46 -14.5 81t-36.5 35q-23 0 -36 -17.5t-13 -39.5q0 -41 6.5 -83t6.5 -83q0 -18 -1 -45t-5.5 -53.5t-10.5 -51 t-18 -40.5q-10 -14 -10 -25z" />
<glyph unicode="o" horiz-adv-x="694" d="M-33 215q0 -47 16.5 -88t45 -71.5t68.5 -49t87 -18.5q45 0 91.5 14t87 40t74.5 59.5t55 74.5q14 -2 29 -2q19 0 39 3q38 5 73 20.5t62.5 39t37.5 56.5l3 6t1 6q0 10 -7 17.5t-17 7.5t-23.5 -14.5t-34 -32t-50.5 -31.5t-68 -14q-14 0 -21 2q10 35 10 67q0 23 -6 52.5 t-19.5 56t-34 45t-46.5 20.5q-12 0 -19 2q-4 12 -17 18.5t-29.5 9.5t-32.5 3h-27q-61 0 -119.5 -22.5t-104.5 -62.5t-75 -95t-29 -119zM51 221q0 51 18.5 94t51.5 74t77 47.5t95 16.5h8q-16 -33 -16 -68q0 -63 41 -110.5t94 -75.5q-14 -29 -38 -55.5t-52.5 -48t-60 -35 t-64.5 -13.5q-35 0 -63.5 14.5t-49 39t-31 56t-10.5 64.5zM358 369q0 12 5.5 26.5t21.5 14.5q14 0 26.5 -11.5t20.5 -27t13.5 -32t5.5 -28.5q0 -14 -2.5 -26.5t-6.5 -24.5q-31 16 -57.5 44t-26.5 65z" />
<glyph unicode="p" horiz-adv-x="675" d="M-145 -193q0 -39 5 -88t16 -98t31.5 -93t51.5 -73q18 -14 37 -14q23 0 33 13.5t16 31.5q6 23 11 71t8.5 109.5t5.5 130t2 131.5t1 114.5t1 80.5q49 -25 105.5 -37t111.5 -12q57 0 118.5 14t119 42t105.5 68t79 91q4 8 4 14q0 10 -9.5 19.5t-19.5 9.5q-14 0 -29 -15 q-41 -39 -77.5 -74.5t-87.5 -60.5q25 29 35 68t10 78q0 94 -55.5 157.5t-153.5 63.5q-72 0 -139.5 -35t-120.5 -82v51t-5.5 81t-14.5 74t-27 32q-20 0 -31.5 -18.5t-11.5 -35.5q0 -29 8 -61.5t10 -62.5q2 -31 3 -61t1 -58v-23q0 -14 -4 -22q-10 -23 -24.5 -43.5t-24.5 -42.5 q-47 -100 -70.5 -212t-23.5 -223zM-78 -158q0 18 6 72.5t17.5 113t25 104.5t29.5 46q4 0 8 -12t4 -16v-127t-2 -179.5t-6 -174.5t-12 -109q-23 16 -36 53t-21.5 79t-10.5 83t-2 67zM72 248v49q0 35 24.5 66.5t60.5 55t76.5 38t71.5 14.5q39 0 67.5 -16.5t48 -44t29 -62 t9.5 -69.5q0 -41 -20.5 -66t-51.5 -40t-66.5 -20.5t-66.5 -5.5q-47 0 -91 14.5t-79 45.5q-12 12 -12 41z" />
<glyph unicode="q" horiz-adv-x="677" d="M-35 203q0 -59 37 -106.5t100 -47.5q33 0 63 13.5t54 31.5q-4 -47 -7 -93t-3 -93q0 -41 5 -112.5t22.5 -140.5t51.5 -119t93 -50q45 0 81 34t60.5 81t37.5 100t13 90q0 94 -32.5 182t-83.5 166q27 2 72.5 17.5t90 40t77 55t32.5 61.5q0 27 -27 27q-14 0 -33.5 -20.5 t-48 -46t-68.5 -46t-95 -20.5q-10 0 -25.5 3t-32 9t-28 16.5t-11.5 22.5q0 8 8.5 30.5t18.5 50.5t18.5 56.5t8.5 53.5q0 27 -12.5 46t-41.5 23q-23 18 -52 26.5t-58 8.5q-63 0 -115.5 -34t-90.5 -85t-58.5 -112.5t-20.5 -118.5zM41 213q0 39 14.5 86t41 87t63.5 67.5 t82 27.5q23 0 51.5 -17t28.5 -44q0 -8 -6.5 -26.5t-13.5 -38t-15 -38t-13 -28.5q-18 -4 -31.5 -15.5t-13.5 -31.5q0 -10 4.5 -16.5t4.5 -14.5q0 -14 -15.5 -29.5t-36 -28t-42 -19.5t-35.5 -7q-41 0 -54.5 25.5t-13.5 60.5zM283 -104q0 20 1 58t4 78t8 76.5t11 53.5 q8 2 20.5 -4t20.5 -11q66 -76 111 -176t45 -200q0 -20 -7.5 -55t-21.5 -69t-34.5 -58.5t-47.5 -24.5q-35 0 -56.5 43t-33.5 99t-16 111.5t-4 78.5z" />
<glyph unicode="r" horiz-adv-x="546" d="M-12 373q0 -12 2 -25.5t8 -25.5q-2 -4 -4 -9.5t-2 -11.5q0 -23 22 -22q10 0 18.5 5t16.5 9q11 -1 21 -1q33 0 56 10q30 13 71 40q-6 -37 -10.5 -73t-4.5 -72q0 -33 5.5 -64t19.5 -55.5t38.5 -39.5t63.5 -15q51 0 97.5 24.5t84 63.5t64.5 87t39 93v10q0 10 -7 17.5 t-18 7.5q-18 0 -37.5 -35t-45 -77t-61.5 -77t-89 -35q-27 0 -43.5 11.5t-25.5 30t-12 41t-3 44.5q0 18 3 48t9 61t14.5 58.5t20.5 39.5q23 23 23 49q0 14 -8.5 28.5t-24.5 14.5q-25 0 -40.5 -21.5t-19.5 -43.5q-4 -12 -19 -30.5t-36.5 -34t-43 -27t-34.5 -11.5h-12q0 2 7 26 t16.5 56.5t16.5 65.5t8 51q0 14 -8.5 27.5t-25.5 13.5q-25 0 -44 -28.5t-34.5 -66.5t-23.5 -76t-8 -56z" />
<glyph unicode="s" horiz-adv-x="471" d="M-6 299q0 -10 5 -20.5t17 -10.5q10 0 22.5 15.5t25 35t21.5 39t13 29.5q23 -18 53.5 -44t59.5 -55.5t49.5 -61t20.5 -62.5q0 -29 -13.5 -47.5t-35 -29.5t-46 -16t-49.5 -5q-41 0 -71.5 16t-40.5 16q-12 0 -19.5 -9t-7.5 -21q0 -23 17.5 -40.5t41 -28.5t50 -16.5 t45.5 -5.5q59 0 98 24t74 69q20 31 54 59.5t65.5 59t54 65.5t22.5 78q0 20 -20 20q-10 0 -15.5 -6t-9.5 -14q-27 -45 -57.5 -87t-71.5 -77v7q0 38 -20 76q-22 42 -57.5 81t-73 73.5t-64.5 59.5q14 35 26.5 80t12.5 82q0 16 -6 33.5t-29 17.5t-41 -19.5t-31.5 -45 t-20.5 -54.5t-7 -47q0 -41 16 -72q-4 -10 -14 -30.5t-19.5 -42t-16.5 -41t-7 -27.5z" />
<glyph unicode="t" horiz-adv-x="419" d="M-133 686q0 -16 16.5 -23.5t38 -10.5t43.5 -3h31q-23 -125 -23 -246q0 -47 5.5 -108.5t25 -115.5t57 -92t101.5 -38q45 0 89 23.5t84 58.5t72.5 76t53.5 78q6 8 6 20t-6 23.5t-21 11.5q-16 0 -39.5 -33t-56.5 -70.5t-73 -70.5t-89 -33q-27 0 -48 16.5t-37.5 41t-25.5 52 t-10 50.5q0 4 5 16q45 86 89 167t74 175h160q29 0 29 29q0 23 -25 27q-35 6 -73.5 7t-73.5 3q4 23 6 47t2 49q0 18 -2 46t-9 54.5t-22.5 45t-40.5 18.5q-33 0 -61.5 -31t-50 -73t-37 -85t-21.5 -69q-12 0 -35.5 2t-48 1t-42 -9t-17.5 -27zM41 430v29q0 47 6 95t16 95h87 q-23 -66 -47.5 -127t-59.5 -121q-2 14 -2 29zM82 721q6 18 14 40.5t19.5 46t25 44t25.5 33.5q10 -12 13 -40t3 -44q0 -43 -12 -82z" />
<glyph unicode="u" horiz-adv-x="747" d="M-29 193q0 -33 6.5 -66t21.5 -58.5t39.5 -42t63.5 -16.5q33 0 67 14.5t65.5 36t60.5 46t51 47.5q20 -49 67.5 -85t102.5 -36q39 0 82 26.5t81 65.5t68.5 82t45.5 76q4 12 4 16q0 27 -27 27q-20 0 -42.5 -34t-51.5 -74t-67 -73.5t-89 -33.5q-20 0 -39.5 11t-36 27.5 t-26.5 38t-10 39.5q0 12 9 32t20.5 42.5t20.5 49t9 55.5q0 18 -9 37.5t-32 19.5q-29 0 -47.5 -28.5t-28.5 -66.5t-15 -77t-5 -58q-16 -23 -40 -48t-51.5 -48.5t-57 -39t-58.5 -15.5q-23 0 -37 11t-23.5 28.5t-13.5 38t-4 39.5q0 14 3 36.5t7 47t11.5 46t13.5 33.5 q10 18 25.5 44t15.5 49q0 37 -37 37q-29 0 -49.5 -38t-34.5 -88.5t-21.5 -100.5t-7.5 -72z" />
<glyph unicode="v" horiz-adv-x="612" d="M-31 217q0 -39 8.5 -77t28 -66.5t50 -47t75.5 -18.5q41 0 77 17.5t64.5 46t49 63.5t32.5 72q27 -16 56.5 -26.5t60.5 -10.5q25 0 57.5 12.5t62.5 30.5t49 42.5t19 49.5q0 12 -7 23.5t-21 11.5q-10 0 -22.5 -15.5t-29 -35t-41 -34.5t-59.5 -15q-29 0 -54.5 12t-45.5 31 l-2 6q-2 16 3 34.5t5 36.5q0 16 -2 39t-9 43.5t-21.5 35t-37.5 14.5q-18 0 -29.5 -10.5t-16.5 -26t-7 -32.5t-2 -32q0 -47 18.5 -82t18.5 -57q0 -23 -14.5 -53.5t-37 -58t-49 -47t-49.5 -19.5q-27 0 -45 15t-29.5 36.5t-16.5 47.5t-5 48q0 43 12.5 88t27.5 84t28.5 65.5 t13.5 33.5q0 12 -10 23t-25 11q-31 0 -54.5 -40t-40.5 -92t-25.5 -103t-8.5 -74z" />
<glyph unicode="w" horiz-adv-x="952" d="M-51 133q0 -59 27.5 -91t89.5 -32q33 0 62.5 13.5t56 33t50 43t46.5 43.5q14 -29 27.5 -54.5t31.5 -43.5t44 -28.5t62 -10.5q68 0 119 43t82 98q49 -16 92 -16q37 0 76 12.5t76 34t65.5 50t42.5 63.5q5 8 5 14q0 10 -9.5 19.5t-19.5 9.5q-16 0 -31.5 -20.5t-39 -46 t-60.5 -46t-92 -20.5q-41 0 -74 18q8 35 13 72t5 74q0 10 -1 26.5t-6 31.5t-14 26.5t-24 11.5q-23 0 -38 -21.5t-26.5 -50.5t-16.5 -58.5t-5 -45.5q0 -27 6.5 -52.5t22.5 -46.5q-18 -35 -54 -70.5t-79 -35.5q-29 0 -50.5 15.5t-35 39t-20.5 51t-7 50.5q0 51 21.5 97t21.5 97 q0 16 -6 34.5t-29 18.5q-29 0 -45 -24.5t-25.5 -57t-12.5 -66.5t-5 -54q-2 -25 -23.5 -60t-50 -65.5t-61.5 -53t-57 -22.5q-25 0 -34 25.5t-9 46.5q0 37 18.5 89t40 99t40 82t18.5 37q0 18 -15.5 29.5t-32.5 11.5q-35 0 -63.5 -47t-48 -108.5t-30.5 -123t-11 -88.5z" />
<glyph unicode="x" horiz-adv-x="686" d="M-137 -213q0 -16 10 -27.5t27 -11.5q10 0 46 46t78 104.5t80.5 111.5t55.5 70q47 -37 93 -61.5t109 -24.5q59 0 116 24.5t104 64.5t85 90t62 101q6 9 6 21q0 33 -30 33q-20 0 -43 -41t-59 -90.5t-90 -90t-136 -40.5q-18 0 -44 5t-50.5 15t-44 24.5t-25.5 32.5 q12 25 47 78t70 110.5t62.5 107.5t27.5 71q0 25 -25 25q-27 0 -45 -25v-2q-45 -78 -88 -157t-92 -154q-25 31 -48.5 66.5t-39.5 72.5q-6 14 -10 39.5t-11 49.5t-19.5 41t-37.5 17q-27 0 -40 -21.5t-13 -43.5q0 -27 10 -51.5t27 -47.5q-4 -20 -12.5 -37.5t-8.5 -37.5 q0 -10 5 -17.5t16 -7.5q14 0 26.5 10.5t22.5 20.5q18 -31 40.5 -60.5t39.5 -62.5q-12 -23 -53 -75t-86.5 -108.5t-80 -102.5t-34.5 -54z" />
<glyph unicode="y" horiz-adv-x="702" d="M-100 -451q0 -66 27.5 -110.5t71.5 -72.5t100.5 -40t111.5 -12q147 0 225 65.5t78 219.5q0 102 -26.5 210.5t-59.5 206.5q25 20 77 57.5t105.5 79.5t93 83.5t39.5 74.5q0 12 -6 22.5t-20 10.5q-12 0 -18.5 -6t-12.5 -16q-23 -35 -55.5 -69t-70.5 -64.5t-77 -57.5t-75 -47 q-6 29 -14.5 57.5t-8.5 59.5q0 16 8 39.5t18.5 53.5t18.5 62.5t8 65.5q0 8 -1 20.5t-5 24.5t-11 20.5t-20 8.5q-29 0 -48 -31t-30.5 -72t-16.5 -82t-5 -61v-23q0 -10 2 -20q-35 -47 -93 -89t-120 -42q-39 0 -59.5 16.5t-20.5 57.5q0 59 31 126.5t63 116.5q27 14 27 43 q0 27 -29 27q-31 0 -60.5 -43t-54 -100.5t-39 -112.5t-14.5 -82q0 -55 38 -89t91 -34q33 0 68 11.5t66.5 28.5t61.5 38.5t54 42.5q4 -18 10.5 -43t10.5 -43q-59 -37 -135 -87t-142.5 -111.5t-111.5 -134.5t-45 -155zM-20 -449q0 70 38.5 133.5t96 119t123 100.5t118.5 73 q31 -90 59.5 -197.5t28.5 -203.5q0 -109 -51 -154t-155 -45q-43 0 -89.5 7.5t-83 27t-61 53t-24.5 86.5z" />
<glyph unicode="z" horiz-adv-x="686" d="M-186 -551q0 -41 25.5 -65.5t66.5 -24.5q51 0 110.5 22.5t115.5 56.5t107.5 72.5t88.5 73.5q43 41 85 89t73.5 102.5t52 113t22.5 119.5q35 23 73 36t73 34q10 6 18 13.5t8 21.5q0 12 -9 21t-22 9q-10 0 -30.5 -8t-44 -18.5t-45 -20.5t-31.5 -16q-10 59 -56 91t-104 34 q33 35 61.5 84t28.5 98q0 35 -15 64.5t-41 52t-57.5 36t-64.5 13.5q-45 0 -90 -19.5t-84 -51t-70.5 -71.5t-50.5 -79q-6 -12 -6 -27q0 -10 6 -19.5t19 -9.5q18 0 41.5 31t55.5 69t73 68.5t96 30.5q39 0 72.5 -24.5t33.5 -67.5q0 -25 -11 -51.5t-27.5 -51t-37 -46 t-38.5 -35.5q-20 -16 -60.5 -35t-80.5 -39.5t-70.5 -44t-30.5 -53.5q0 -14 7 -24.5t24 -10.5q14 0 45 15.5t63.5 37t62 41.5t44.5 33q41 10 78 10q47 0 69.5 -21.5t30.5 -68.5l-107.5 -62.5t-137 -86t-145.5 -103.5t-131.5 -113.5t-95 -116t-36.5 -108.5zM-111 -549 q0 41 33 90t86 100.5t119 102.5t130.5 94t121.5 77t92 50q-2 -47 -19.5 -93t-43 -89t-57.5 -82t-64 -70q-29 -29 -73 -63.5t-95 -67t-102.5 -54t-90.5 -21.5q-18 0 -27.5 3t-9.5 23z" />
<glyph unicode="{" horiz-adv-x="550" d="M113 582q0 -2 10 -13q37 -29 56.5 -57.5t28.5 -60t11 -68.5t2 -80q0 -59 -3 -120.5t-3 -121.5q0 -49 1 -106t16.5 -106.5t49 -81t101.5 -31.5h16q12 0 23.5 1t20 5t8.5 12q0 12 1 30.5t-20 18.5q-10 0 -21.5 -2t-23.5 -2q-45 0 -66.5 30t-28.5 72t-6 87t1 75q0 49 2 123 t-2 150t-18.5 143.5t-49.5 102.5q31 25 45.5 54.5t19.5 61t5 66.5v72v190q0 31 -2 77t5 89t28.5 74.5t66.5 31.5q6 0 16.5 -2t20.5 -2q12 0 19.5 3t7.5 14q0 23 -2.5 34t-10.5 15t-21.5 3t-33.5 -1q-68 0 -101.5 -32t-49 -79t-16.5 -104t-1 -107q0 -59 3 -118.5t3 -118.5 q0 -23 -1 -48.5t-7 -47.5q-8 -31 -24.5 -51.5t-34 -35t-29.5 -23.5t-12 -15z" />
<glyph unicode="|" horiz-adv-x="487" d="M178 -512h70v2048h-70v-2048z" />
<glyph unicode="}" horiz-adv-x="550" d="M15 1312.5q-1 -18.5 20 -18.5q10 0 21.5 2t23.5 2q45 0 66.5 -31.5t28.5 -74.5t5 -89t-2 -77v-190v-72t5 -67.5t19.5 -61.5t45.5 -53q-27 -29 -41 -72t-20.5 -92t-7.5 -97.5t-1 -82.5q0 -45 1 -88.5t1 -86.5q0 -31 1 -75.5t-7 -86.5t-28.5 -72t-65.5 -30q-6 0 -16.5 2 t-22.5 2q-10 0 -17.5 -3t-7.5 -13q0 -23 2 -34t9.5 -15t20.5 -3t36 1q68 0 101.5 31.5t49 81t16.5 106.5t1 106q0 59 -3 121t-3 121q0 47 1 83t10 65.5t29.5 58.5t57.5 59q10 10 10 15q0 4 -3 7l-7 7q-35 23 -54.5 43.5t-29.5 43t-12 50t-2 68.5q0 59 3 118.5t3 118.5 q0 49 -1 106.5t-16.5 104.5t-49 79t-101.5 32h-18q-10 0 -21.5 -1t-20 -5t-8.5 -13q0 -12 -1 -30.5z" />
<glyph unicode="~" d="M137 901q0 -27 27 -27q18 0 36.5 14.5t39 31t44 31t52.5 14.5q16 0 34.5 -14.5t43.5 -30.5q25 -20 52.5 -37t61.5 -17q27 0 58.5 12.5t59.5 31t45.5 41t17.5 40.5q0 10 -6.5 18.5t-22.5 8.5q-18 0 -33.5 -14.5t-33 -32t-38 -31.5t-47.5 -14q-16 0 -37.5 14t-44.5 35 q-23 18 -51 33.5t-63 15.5q-27 0 -60.5 -15.5t-63.5 -35t-50.5 -40t-20.5 -32.5z" />
<glyph unicode="&#xa1;" horiz-adv-x="479" d="M117 -567q0 -16 15 -25.5t32 -9.5q14 0 22 8q16 12 27.5 74.5t20 150.5t13.5 190.5t7 198t3 171t1 108.5q0 23 -13.5 41t-35.5 18q-16 0 -25.5 -10t-9.5 -26q0 -35 1 -109t0 -166t-3 -191.5t-7 -185.5t-15.5 -146.5t-24.5 -74.5q-8 -8 -8 -16zM143 535q0 -12 10.5 -31 t25 -36t30.5 -28.5t29 -11.5q23 0 40 21.5t17 44.5q0 33 -26.5 66.5t-61.5 33.5q-23 0 -43.5 -18.5t-20.5 -40.5z" />
<glyph unicode="&#xa2;" horiz-adv-x="686" d="M39 659q0 -39 17.5 -68.5t46 -50t62.5 -32.5t68 -19q-4 -55 -10 -113.5t-6 -113.5q0 -18 10.5 -31.5t30.5 -13.5q23 0 41 18.5t18 40.5q0 16 -6 19.5t-10 13.5q0 39 -1 90.5t9 85.5q20 4 77.5 14.5t117 26t106.5 37t47 47.5q0 16 -10 38t-31 22q-20 0 -27 -14.5 t-18 -26.5q-10 -16 -44.5 -28.5t-75.5 -22t-80 -15.5t-58 -6q10 70 17.5 138.5t17.5 138.5h4q12 2 33 -12.5t21 -26.5q0 -10 -5.5 -21.5t-5.5 -21.5q0 -18 12.5 -34t32.5 -16q31 0 44.5 21.5t13.5 50.5q0 61 -41 99t-103 36q6 61 6 125q0 16 -5 37t-27 21q-16 0 -32.5 -15.5 t-16.5 -32.5v-147l-7 -2q-39 -12 -80.5 -32.5t-75.5 -50.5t-55.5 -67.5t-21.5 -85.5zM111 676q0 31 15 55.5t37.5 42t51.5 29.5t53 18q-4 -66 -10 -129.5t-16 -126.5q-45 4 -88 31t-43 80z" />
<glyph unicode="&#xa3;" horiz-adv-x="1224" d="M10 111q0 -43 26.5 -79t65.5 -61.5t84 -40t82 -14.5q66 0 114 32t83 85q96 -35 201.5 -62.5t210.5 -27.5q80 0 161.5 25.5t139.5 84.5q18 19 18 35q0 10 -7 17.5t-18 7.5q-16 0 -30 -13q-61 -43 -120.5 -61.5t-137.5 -18.5q-96 0 -197.5 28t-191.5 58q31 96 52 193.5 t44 196.5q59 2 118.5 7t118.5 5q29 0 55.5 -2t55.5 -12q8 -4 14 -5q16 0 24.5 15.5t8.5 30.5q0 20 -11 30t-27.5 15.5t-35 6.5t-32.5 1q-68 0 -135.5 -7.5t-135.5 -13.5q14 55 42 134t71 152t101.5 124t129.5 51q31 0 51.5 -11t36 -24.5t26.5 -25t26 -11.5q14 0 24 10.5 t10 24.5q0 25 -22.5 46.5t-54 38t-65.5 26.5t-54 10q-84 0 -148.5 -51t-112.5 -125t-80 -157t-50 -148q-4 -16 -8.5 -31.5t-10.5 -32.5q-8 -2 -28 -2q-43 0 -75 13.5t-48 13.5t-27.5 -12.5t-11.5 -28.5q0 -23 22.5 -34t53 -16t60.5 -6t44 -1q-18 -90 -34.5 -182.5 t-49.5 -178.5q-29 10 -64.5 25.5t-74.5 30t-75 24.5t-65 10q-25 0 -48 -7t-43.5 -21.5t-33 -36t-12.5 -47.5zM92 106q0 18 16.5 27.5t32.5 9.5q18 0 52 -10t72 -23.5t73 -26.5t53 -22q-20 -35 -54 -56t-75 -21q-23 0 -51.5 10t-55 27.5t-45 39.5t-18.5 45z" />
<glyph unicode="&#xa4;" horiz-adv-x="716" d="M25 244l45 -45l94 94q33 -31 81 -45.5t93 -14.5q49 0 95 14.5t79 45.5l94 -94l45 45l-100 88q31 33 46 79t15 93q0 45 -14 92t-47 80l100 88l-45 45l-94 -94q-33 31 -81 45t-93 14q-47 0 -94 -14.5t-80 -44.5l-94 94l-45 -45l100 -88q-31 -33 -46.5 -80t-15.5 -92 q0 -47 14.5 -93t47.5 -79zM127 504q0 92 59.5 152.5t151.5 60.5t151.5 -60.5t59.5 -152.5t-59.5 -152.5t-151.5 -60.5q-90 0 -150.5 60.5t-60.5 152.5z" />
<glyph unicode="&#xa5;" horiz-adv-x="1165" d="M25 406q0 -115 64.5 -180.5t178.5 -65.5q80 0 162 33.5t157 86t140.5 116t112.5 122.5q2 -96 11 -190.5t15 -188.5q-29 -2 -59.5 -3t-61.5 -1q-41 0 -74.5 12.5t-43.5 12.5q-16 0 -29.5 -11.5t-13.5 -27.5q0 -23 20.5 -34t48 -15t55 -5t42.5 -1h61q31 0 61 2v-13l-49 -65 q-23 -2 -45 -2h-43q-41 0 -74.5 12t-44.5 12q-16 0 -29.5 -11t-13.5 -28q0 -23 25 -35t57.5 -16t65.5 -4h51q-27 -41 -54.5 -89t-50 -98t-37 -103.5t-14.5 -102.5q0 -33 8.5 -65.5t25 -59.5t44 -43t64.5 -16q51 0 86 33.5t56.5 88t31.5 121t14 131t4 121.5v88q31 2 60.5 4 t60.5 2q29 0 55.5 -2t55.5 -12q8 -4 14 -4q16 0 24.5 15.5t8.5 29.5q0 20 -11.5 30.5t-27.5 15.5t-34.5 6t-33.5 1q-43 0 -86 -3t-86 -7l-2 41l23 31q55 6 110 6q29 0 55.5 -2t55.5 -13q8 -4 14 -4q16 0 24.5 15.5t8.5 29.5q0 20 -11 30.5t-27.5 16t-35 6.5t-32.5 1 q-23 0 -47.5 -1t-49.5 -3q18 20 37 40.5t41 36.5q12 8 22.5 11.5t18.5 7.5t12 12t4 27q0 14 -15 22t-28 8q-16 0 -42.5 -22.5t-54 -51t-52.5 -58t-37 -42.5q-6 98 -14 197.5t-8 198.5q0 23 -1 50t5 50q4 16 13 32.5t15 31.5q33 68 51.5 125t18.5 135q0 20 -10.5 35.5 t-32.5 15.5q-25 0 -43 -29q-43 -72 -64.5 -149.5t-27.5 -157.5q-2 -16 -4 -26.5t-13 -24.5q-37 -63 -95 -133t-130 -129.5t-151.5 -98.5t-159.5 -39q-94 0 -145.5 57.5t-51.5 149.5q0 63 19.5 135t49.5 140.5t67.5 133t74.5 118.5q20 0 37.5 13t30 33.5t19.5 44t7 40.5 q0 39 -37 39q-27 0 -45 -25q-51 -66 -103 -152t-94 -181t-68.5 -191.5t-26.5 -177.5zM690 -475q0 49 15.5 102.5t40 105.5t54 99t58.5 86l21 2q0 -29 1 -57.5t1 -57.5q0 -31 -2 -97t-13.5 -135t-35 -121t-66.5 -52q-23 0 -37 13.5t-22.5 32.5t-11.5 40.5t-3 38.5z" />
<glyph unicode="&#xa6;" horiz-adv-x="487" d="M178 358v-716h70v716h-70zM178 666h70v716h-70v-716z" />
<glyph unicode="&#xa7;" horiz-adv-x="800" d="M59 438q0 -51 20.5 -92t54.5 -73.5t76 -61.5t87 -55q43 -27 85 -53.5t74.5 -57.5t52 -68.5t19.5 -85.5q0 -37 -16 -64.5t-43 -46t-59.5 -27.5t-65.5 -9q-78 0 -124 47t-56 123h-62q0 -49 19.5 -89t53.5 -69.5t77 -45t90 -15.5q51 0 97 13t81 40t56.5 66t21.5 90 q0 47 -23.5 91t-56.5 75q31 18 62.5 39.5t56.5 49t40 60.5t15 74q0 51 -20.5 93t-52 77t-73.5 64.5t-85 56.5q-45 27 -87 52.5t-75 53t-53.5 59t-20.5 68.5q0 33 14.5 61.5t37 50t53 34t61.5 12.5q90 0 136 -55.5t46 -124.5h60q2 53 -16.5 96t-52.5 72.5t-79 45t-96 15.5 q-41 0 -83 -15.5t-75.5 -43t-54 -65.5t-20.5 -83q0 -51 20.5 -86t50.5 -63q-70 -29 -119 -90.5t-49 -139.5zM133 440q0 66 36 111t91 76q41 -29 101.5 -63t119.5 -72q61 -41 99 -92.5t38 -114.5q0 -66 -39.5 -106t-93.5 -70q-37 33 -96 66.5t-117 72.5q-55 39 -97 87 t-42 105z" />
<glyph unicode="&#xa8;" horiz-adv-x="512" d="M90 686q0 -16 10.5 -25.5t26.5 -9.5q12 0 28.5 6.5t30 17.5t23.5 24.5t10 25.5q0 16 -12 29.5t-29 13.5q-31 0 -59.5 -25.5t-28.5 -56.5zM313 696q0 -23 16.5 -32t37.5 -9q10 0 25.5 6.5t28.5 15.5t22.5 21.5t9.5 24.5q0 23 -23.5 32t-42.5 9q-20 0 -47 -22.5t-27 -45.5z " />
<glyph unicode="&#xa9;" horiz-adv-x="1374" d="M106 489q0 -111 42 -208t115 -169.5t170 -114.5t208 -42t208 42t170 114.5t115 169.5t42 208t-42 208.5t-115 170t-170 114.5t-208 42t-208 -42t-170 -114.5t-115 -170t-42 -208.5zM150 489q0 102 38.5 191.5t105 156t156 105.5t191.5 39q100 0 190.5 -39t157 -105.5 t105.5 -156t39 -191.5t-39 -191t-105.5 -155.5t-157 -105.5t-190.5 -39q-102 0 -191.5 39t-156 105.5t-105 155.5t-38.5 191zM348 483q0 -59 20.5 -111.5t57.5 -91t88 -62t111 -23.5q61 0 123.5 26.5t109.5 67.5q10 6 10 18q-6 10 -10 10t-20.5 -12t-45 -27.5t-66.5 -27.5 t-83 -12q-53 0 -91 21.5t-61.5 57t-35 80.5t-11.5 92t12.5 96.5t38 90.5t64.5 66.5t94 25.5q70 0 127.5 -49t73.5 -115h8q8 0 12 2q-4 47 -7 92t-7 93h-20q-2 -12 -14.5 -18.5t-22.5 -6.5q-23 0 -68 15.5t-94 15.5q-66 0 -120 -24.5t-93 -67.5t-59.5 -100.5t-20.5 -121.5z " />
<glyph unicode="&#xaa;" horiz-adv-x="600" d="M31 791q-10 -66 28.5 -119.5t106.5 -61.5q37 -6 70.5 4.5t64.5 31t57.5 46t44.5 51.5q20 -72 61.5 -101.5t76.5 -31.5q23 0 36 10.5t13 26.5t-12.5 29.5t-32.5 11.5q-31 -4 -46.5 17.5t-21.5 52t-6 61.5v49q2 23 9 43.5t14 42.5q8 27 5 43.5t-12 26.5q16 10 18.5 39 t-30.5 51q-43 29 -91 26t-96 -28t-92 -64.5t-79 -86t-58.5 -91.5t-27.5 -79zM106 791q6 39 37 88t73 92t88 70.5t83 21.5q23 -4 34 -11.5t25 -21.5q-23 -10 -32 -33q-16 -35 -15.5 -59.5t-3.5 -58.5q-4 -35 -23.5 -73t-49 -67.5t-64.5 -47t-72 -11.5q-43 6 -64.5 37 t-15.5 74z" />
<glyph unicode="&#xab;" horiz-adv-x="702" d="M43 289q0 -14 30.5 -60.5t69.5 -96.5t77 -89t54 -39q25 0 25 27q0 10 -22.5 46t-50 77t-55.5 78.5t-36 52.5q10 12 40 46t61.5 71.5t56 71.5t24.5 46t-7 21.5t-19 9.5t-45 -29.5t-71 -67.5t-71.5 -75t-44.5 -49q-16 -16 -16 -41zM283 289q0 -16 30.5 -62.5t70.5 -95.5 t78 -88t52 -39q25 0 25 27q0 10 -22.5 46t-50.5 77t-55.5 78.5t-35.5 52.5q12 12 41.5 46t60.5 71.5t55.5 71.5t24.5 48q0 29 -27 29q-12 0 -45.5 -29.5t-70.5 -67.5t-70 -75t-43 -49q-8 -10 -13 -19.5t-5 -21.5z" />
<glyph unicode="&#xac;" d="M92 473h531v-260h73v328h-604v-68z" />
<glyph unicode="&#xad;" horiz-adv-x="604" d="M100 317q0 -29 28 -35t50 -6q53 0 107.5 8.5t107.5 8.5q23 0 42.5 -6t39.5 -6q18 0 31.5 13.5t13.5 31.5q0 29 -26.5 34t-47.5 5q-57 0 -113.5 -7.5t-113.5 -7.5q-23 0 -31 4t-12 10.5t-9 10.5t-17 4q-23 0 -36.5 -20.5t-13.5 -41.5z" />
<glyph unicode="&#xae;" horiz-adv-x="1054" d="M100 649q0 -78 30 -145.5t81 -118.5t118.5 -80t145.5 -29q76 0 144.5 30t120 80t81 117.5t29.5 145.5t-29.5 146.5t-80 119t-119 80t-146.5 29.5t-146.5 -29.5t-118.5 -80t-80 -119t-30 -146.5zM141 649q0 68 27 128.5t73 106.5t106.5 72.5t127.5 26.5q68 0 128.5 -26.5 t106.5 -72.5t72.5 -106.5t26.5 -128.5t-26.5 -127t-72.5 -105t-106.5 -73t-128.5 -27t-128 27t-106 73t-73 105.5t-27 126.5zM299 446h162v13q-29 0 -34 24.5t-5 48.5v111h37l131 -197h90v13q-6 2 -11 3t-10 5q-8 6 -26.5 31.5t-39 56.5t-36.5 58.5t-22 35.5q41 6 73.5 34 t32.5 71q0 33 -15.5 54t-39 33.5t-52 16.5t-55.5 4h-172v-14q23 -2 33 -8t10 -29v-260q0 -33 -7 -59.5t-44 -32.5v-13zM422 668v147q0 16 19.5 20.5t29.5 4.5q45 0 71.5 -21.5t26.5 -68.5q0 -37 -23.5 -59.5t-58.5 -22.5h-65z" />
<glyph unicode="&#xaf;" horiz-adv-x="542" d="M86 678q0 -14 10 -24.5t25 -10.5q74 0 146.5 3t146.5 5q18 0 36.5 4t18.5 29q0 18 -13.5 27.5t-29.5 9.5q-72 0 -144.5 -3t-144.5 -3q-16 0 -33.5 -8.5t-17.5 -28.5z" />
<glyph unicode="&#xb0;" horiz-adv-x="425" d="M76 995q0 -55 38 -92t93 -37t93 37t38 92t-38 94t-93 39q-53 0 -92 -39.5t-39 -93.5zM137 997q0 29 20.5 49.5t49.5 20.5t50.5 -20.5t21.5 -49.5t-21.5 -50t-50.5 -21t-49.5 21.5t-20.5 49.5z" />
<glyph unicode="&#xb1;" d="M123 23h553v67h-553v-67zM123 410h239v-234h74v234h240v67h-240v234h-74v-234h-239v-67z" />
<glyph unicode="&#xb2;" horiz-adv-x="561" d="M18 627q10 -23 39 -23q25 0 49.5 12.5t47.5 20.5q35 8 88 4t88 -8q27 -4 69.5 -13.5t71.5 -9.5q12 0 29.5 9.5t29.5 23.5q10 12 14.5 26.5t-5.5 26.5t-18.5 10.5t-18.5 -8.5q-8 -6 -17.5 -12t-21.5 -2q-41 10 -95.5 14t-107.5 7q35 25 73 56.5t70.5 67t53 76.5t20.5 88 q0 70 -51 109t-113 39q-33 0 -72.5 -9.5t-77.5 -27t-72 -40t-54 -48.5q-12 -16 -5 -41t31 -23q20 0 31.5 13.5t22.5 29.5q8 14 31.5 28.5t50 26t53.5 18.5t45 7q41 0 72.5 -24.5t31.5 -65.5q0 -37 -21.5 -71.5t-54 -68.5t-74.5 -65.5t-81 -60.5q-8 -6 -23.5 -11.5t-33 -10.5 t-34 -9t-24.5 -6q-27 -6 -35 -22.5t-2 -32.5z" />
<glyph unicode="&#xb3;" horiz-adv-x="595" d="M37 686q0 -27 21.5 -43t51 -25.5t59.5 -12.5t48 -3q47 0 105.5 15.5t110.5 43t88 67.5t36 91q0 37 -23.5 62.5t-54.5 40.5q23 16 40.5 40.5t17.5 53.5q0 35 -22.5 56.5t-53.5 32.5t-66 15t-59 4q-94 0 -169 -23.5t-106 -58.5q-16 -18 -15 -43.5t32 -27.5q14 0 22.5 5 t14.5 13t11 16.5t15 14.5q47 23 93.5 31t101.5 8q10 0 30.5 -1t40 -6t35 -15.5t15.5 -26.5q0 -18 -14.5 -35t-36.5 -31q-18 0 -43 -1t-50.5 -5t-50 -9t-41.5 -14q-27 -12 -35 -28.5t-2 -32.5q14 -29 54 -29q35 0 79.5 15.5t85.5 40.5q74 -10 74 -70q0 -27 -25.5 -51.5 t-62.5 -44t-81 -31.5t-81 -14q-4 0 -23.5 2t-40 5t-36.5 9t-16 14q0 16 -12.5 23.5t-28.5 3.5q-12 -4 -22.5 -14.5t-10.5 -26.5z" />
<glyph unicode="&#xb4;" horiz-adv-x="512" d="M201 684q0 -29 28 -29q12 0 41 15.5t60.5 36t60.5 41t43 28.5q21 14 21 41q0 14 -7.5 26.5t-23.5 12.5q-10 0 -37 -16.5t-57.5 -38t-58 -42t-40.5 -28.5q-12 -10 -21 -20.5t-9 -26.5z" />
<glyph unicode="&#xb5;" d="M14 -281q0 -39 23 -38q33 0 56.5 31.5t38.5 79.5t23.5 104.5t8.5 105.5v49q27 -41 65 -41q33 0 67 14.5t65.5 36t60.5 46t51 47.5q20 -49 58 -85t112 -36q27 0 40 9t13 19t-12 19.5t-37 9.5q-29 0 -50.5 13.5t-35.5 34t-20 44t-6 45.5q0 12 9 32t20 42.5t20.5 49 t9.5 55.5q0 18 -9.5 37.5t-31.5 19.5q-29 0 -47.5 -28.5t-28.5 -66.5t-15 -77t-5 -58q-16 -23 -40 -48t-51.5 -48.5t-57 -39t-58.5 -15.5q-23 0 -37 11t-23.5 28.5t-13.5 38t-4 39.5q0 14 3 36.5t7 47t11.5 46t13.5 33.5q10 18 25.5 44t15.5 49q0 37 -37 37q-29 0 -50.5 -39 t-36.5 -93.5t-22.5 -114t-5.5 -98.5q2 -82 -3 -166.5t-32 -170.5q-8 -25 -27.5 -43.5t-19.5 -47.5z" />
<glyph unicode="&#xb6;" horiz-adv-x="841" d="M63 688q0 -137 80 -224t215 -97v-598h72v1183h148v-1183h71v1183h72v72h-359q-63 0 -118.5 -30.5t-95 -79t-62.5 -107.5t-23 -119z" />
<glyph unicode="&#xb7;" horiz-adv-x="352" d="M47 457q0 -25 16.5 -40.5t40.5 -15.5q18 0 40 9.5t40.5 24t30.5 33t12 36.5q0 23 -16 35t-37 12q-18 0 -33 -8q-6 10 -18 10t-25.5 -10.5t-25 -25.5t-18.5 -31.5t-7 -28.5z" />
<glyph unicode="&#xb8;" horiz-adv-x="614" d="M90 -172q0 -25 29 -25q14 0 30.5 9.5t30 22.5t21.5 29.5t8 31.5q0 25 -11.5 46t-11.5 46q0 18 8.5 29.5t17.5 20.5t17.5 16.5t8.5 15.5q0 14 -11.5 20t-23.5 6q-37 0 -63.5 -34.5t-26.5 -69.5q0 -25 10 -47.5t10 -46.5q0 -12 -7 -21.5t-14.5 -16.5t-14.5 -14.5t-7 -17.5z " />
<glyph unicode="&#xb9;" horiz-adv-x="292" d="M35 944q10 -8 22.5 -9t22.5 9q18 18 33.5 39t36.5 37q-4 -35 -10.5 -86t-10.5 -104.5t-5 -103.5t7 -85q10 -37 32.5 -43t39.5 4q14 10 18 25.5t-12 29.5q-10 10 -10 23v25q0 98 14 192t16 190q4 23 -10 39q-23 23 -49 -2q-14 -12 -35.5 -32.5t-43 -42l-38 -38 l-18.5 -18.5q-23 -31 0 -49z" />
<glyph unicode="&#xba;" horiz-adv-x="673" d="M39 834q0 -47 16.5 -88t45 -72t68.5 -49.5t87 -18.5q43 0 89 14.5t87 39t75 58.5t54 75q51 -8 76 18q10 10 11 22.5t-9 18.5q-12 10 -27 4q-10 -6 -24 -2q10 37 10 72q0 41 -19.5 92t-60.5 76q-14 8 -24 8h-21q-12 18 -38.5 24.5t-67.5 6.5q-59 0 -119 -23t-106 -62.5 t-74.5 -94t-28.5 -119.5zM119 840q0 51 19.5 93t52 72.5t76.5 48t95 17.5q-2 -16 -4 -29.5t-2 -37.5q0 -66 38.5 -112t97.5 -75q-31 -59 -91.5 -105t-124.5 -46q-72 0 -114.5 52t-42.5 122zM430 987q0 41 27 41t46 -33.5t19 -64.5q0 -12 -2 -25.5t-6 -25.5 q-35 18 -59.5 45.5t-24.5 62.5z" />
<glyph unicode="&#xbb;" horiz-adv-x="702" d="M49 33q0 -27 23 -27q14 0 56 37t86 83t78 90t34 58q0 20 -15 39l-164 205q-6 10 -20 22.5t-27 12.5q-14 0 -20 -10.5t-6 -22.5t21.5 -47t49 -75t53 -75.5t35.5 -48.5q-10 -12 -40.5 -48t-62.5 -75.5t-56.5 -73.5t-24.5 -44zM285 29q0 -27 24 -27q14 0 55.5 35t84.5 80 t77.5 88t36.5 59v8q0 12 -30.5 57.5t-70.5 94.5t-77 87t-47 38t-19.5 -10.5t-9.5 -20.5q0 -12 21.5 -48t49.5 -76t54.5 -75.5t36.5 -48.5q-10 -12 -41 -48t-62.5 -76t-57 -73.5t-25.5 -43.5z" />
<glyph unicode="&#xbc;" horiz-adv-x="1146" d="M-8 -141q0 -31 31 -31q18 0 33.5 14.5t28.5 35t23.5 42t18.5 35.5q82 139 175 271t191.5 260t201 253t202.5 252q8 10 31.5 40t48 63.5t44 64.5t19.5 43q0 14 -11 22.5t-23 8.5q-16 0 -29.5 -13.5t-25 -32t-20.5 -36.5t-18 -31q-29 -47 -63.5 -90t-69.5 -84 q-61 -76 -121.5 -150.5t-119.5 -152.5q-133 -168 -256 -339t-240 -351q-10 -16 -30.5 -44t-20.5 -50zM35 944q10 -8 22.5 -9t22.5 9q18 18 33.5 39t36.5 37q-4 -35 -10.5 -86t-10.5 -104.5t-5 -103.5t7 -85q10 -37 32.5 -43t39.5 4q14 10 18 25.5t-12 29.5q-10 10 -10 23v25 q0 98 14 192t16 190q4 23 -10 39q-23 23 -49 -2q-14 -12 -35.5 -32.5t-43 -42l-38 -38l-18.5 -18.5q-23 -31 0 -49zM633 223q0 -31 15.5 -49t39 -27.5t52 -11.5t53.5 -2q33 0 71.5 5t69.5 12q0 -27 1 -66t-3 -74q-2 -10 -6 -14t-4 -14q0 -14 9 -24.5t32 -10.5q45 0 45 35 q0 33 -2 78.5t2 93.5q0 6 12 7t25.5 3t24.5 8t11 23q0 23 -9 32t-19 9q-4 0 -17 -9q-8 -6 -28 -10q4 61 7 132t3 143q0 16 -10.5 27t-34.5 11q-31 0 -83 -35.5t-105.5 -81.5t-95.5 -91.5t-50 -65.5q-6 -17 -6 -33zM705 229q0 25 31.5 62t72.5 71.5t80 61.5t53 33v-23 q0 -45 -2 -104.5t-6 -122.5q-25 -6 -61.5 -11.5t-69.5 -5.5q-8 0 -24.5 1.5t-33 5.5t-28.5 12t-12 20z" />
<glyph unicode="&#xbd;" horiz-adv-x="1208" d="M-23 -141q0 -31 31 -31q18 0 33.5 14.5t29 35t23.5 42t19 35.5q82 139 175 271t191.5 260t200.5 253t203 252q8 10 31.5 40t48 63.5t44 64.5t19.5 43q0 14 -11 22.5t-24 8.5q-16 0 -29.5 -13.5t-24.5 -32t-20.5 -36.5t-17.5 -31q-29 -47 -63.5 -90t-69.5 -84 q-61 -76 -121.5 -150.5t-120.5 -152.5q-133 -168 -256 -339t-239 -351q-10 -16 -31 -44t-21 -50zM35 944q10 -8 22.5 -9t22.5 9q18 18 33.5 39t36.5 37q-4 -35 -10.5 -86t-10.5 -104.5t-5 -103.5t7 -85q10 -37 32.5 -43t39.5 4q14 10 18 25.5t-12 29.5q-10 10 -10 23v25 q0 98 14 192t16 190q4 23 -10 39q-23 23 -49 -2q-14 -12 -35.5 -32.5t-43 -42l-38 -38l-18.5 -18.5q-23 -31 0 -49zM629 8q10 -23 39 -22q25 0 49 12t47 20q35 8 88 4t88 -8q27 -4 70 -13t71 -9q12 0 29.5 9t30.5 24q10 12 14 26.5t-6 26.5t-18.5 10t-18.5 -8 q-8 -6 -17.5 -12.5t-21.5 -1.5q-41 10 -95 14t-108 6q35 25 73 56.5t71 67.5t53 77t20 88q0 70 -51 108.5t-112 38.5q-33 0 -73 -9t-78 -26.5t-71.5 -40t-54.5 -49.5q-12 -16 -5 -40.5t32 -22.5q20 0 31.5 13t21.5 30q8 14 31.5 28.5t50.5 25.5t53.5 18.5t44.5 7.5 q41 0 73 -24.5t32 -65.5q0 -37 -21.5 -72t-54.5 -68.5t-75 -65.5t-81 -61q-8 -6 -23.5 -11t-32.5 -10t-33.5 -9t-24.5 -7q-27 -6 -35 -22t-2 -33z" />
<glyph unicode="&#xbe;" horiz-adv-x="1290" d="M37 686q0 -27 21.5 -43t51 -25.5t59.5 -12.5t48 -3q47 0 105.5 15.5t110.5 43t88 67.5t36 91q0 37 -23.5 62.5t-54.5 40.5q23 16 40.5 40.5t17.5 53.5q0 35 -22.5 56.5t-53.5 32.5t-66 15t-59 4q-94 0 -169 -23.5t-106 -58.5q-16 -18 -15 -43.5t32 -27.5q14 0 22.5 5 t14.5 13t11 16.5t15 14.5q47 23 93.5 31t101.5 8q10 0 30.5 -1t40 -6t35 -15.5t15.5 -26.5q0 -18 -14.5 -35t-36.5 -31q-18 0 -43 -1t-50.5 -5t-50 -9t-41.5 -14q-27 -12 -35 -28.5t-2 -32.5q14 -29 54 -29q35 0 79.5 15.5t85.5 40.5q74 -10 74 -70q0 -27 -25.5 -51.5 t-62.5 -44t-81 -31.5t-81 -14q-4 0 -23.5 2t-40 5t-36.5 9t-16 14q0 16 -12.5 23.5t-28.5 3.5q-12 -4 -22.5 -14.5t-10.5 -26.5zM137 -141q0 -31 31 -31q18 0 33.5 14.5t29 35t23.5 42t18 35.5q82 139 175.5 271t191.5 260t200.5 253t202.5 252l32 40t48.5 63.5t44 64.5 t19.5 43q0 14 -11.5 22.5t-23.5 8.5q-16 0 -29.5 -13.5t-25 -32t-20.5 -36.5t-17 -31q-29 -47 -63.5 -90t-69.5 -84q-61 -76 -122 -150.5t-120 -152.5q-133 -168 -256 -339t-240 -351q-10 -16 -30.5 -44t-20.5 -50zM756 223q0 -31 15 -49t39 -27.5t52.5 -11.5t52.5 -2 q33 0 72 5t70 12q0 -27 1 -66t-3 -74q-2 -10 -6.5 -14t-4.5 -14q0 -14 9.5 -24.5t31.5 -10.5q45 0 45 35q0 33 -2 78.5t2 93.5q0 6 12.5 7t26 3t24.5 8t11 23q0 23 -9 32t-19 9q-4 0 -17 -9q-8 -6 -29 -10q4 61 7.5 132t3.5 143q0 16 -10.5 27t-34.5 11q-31 0 -83 -35.5 t-105.5 -81.5t-95.5 -91.5t-50 -65.5q-6 -17 -6 -33zM827 229q0 25 32 62t73 71.5t80 61.5t53 33v-23q0 -45 -2 -104.5t-6 -122.5q-25 -6 -62 -11.5t-69 -5.5q-8 0 -24.5 1.5t-33 5.5t-29 12t-12.5 20z" />
<glyph unicode="&#xbf;" horiz-adv-x="897" d="M-63 -340q0 -55 31.5 -90t77.5 -53.5t98.5 -25.5t95.5 -7q33 0 92 7t127.5 20.5t140.5 35t129 49t94 62.5t37 78q0 27 -14.5 46t-36 32.5t-46 20.5t-46.5 7q-10 0 -32.5 -2t-45.5 -6t-40 -12t-17 -23q0 -16 15 -20t28 -4q20 0 38.5 4t36.5 4q23 0 48.5 -10.5t25.5 -38.5 q0 -18 -13 -30.5t-28 -20.5q-49 -31 -108.5 -55.5t-124 -43t-128 -29t-120.5 -10.5q-31 0 -70 4.5t-74.5 18.5t-60 37.5t-24.5 64.5q0 55 45 114.5t112.5 118t145 116t145.5 111.5t113 103.5t45 92.5t-35 58t-70 15q-31 0 -59.5 -9t-56.5 -9q-10 0 -22.5 3t-23.5 3 q-23 0 -35 -18.5t-12 -38.5q0 -35 33 -35q41 0 82 16.5t84 16.5q8 0 19.5 -2t11.5 -9q0 -33 -45 -76.5t-113 -97t-146.5 -114t-146 -123t-112.5 -125t-45 -121.5zM440 520q0 -31 19.5 -42t48.5 -11q39 0 66.5 23.5t27.5 64.5q0 23 -24.5 37t-45.5 14q-37 0 -64.5 -23.5 t-27.5 -62.5z" />
<glyph unicode="&#xc0;" horiz-adv-x="1570" d="M-63 309q0 -31 51 -49t117.5 -27.5t130 -12.5t88.5 -3h43q-25 -27 -69 -73t-94 -93t-97.5 -87t-77.5 -54q-10 -6 -23.5 -5t-25 -1t-19.5 -11.5t-8 -31.5q0 -23 19.5 -36t41.5 -13q20 0 56 25.5t80.5 65.5t92.5 87t90 92t74.5 82t47.5 53h82q152 0 305 6q39 2 77.5 5 t77.5 3q23 0 30 -5t24 -21q51 -47 102 -87t106.5 -70t117 -47t134.5 -17q33 0 33 32q0 16 -10 25.5t-27 13.5q-20 4 -41.5 7.5t-44.5 7.5q-88 20 -158.5 64t-136.5 106q12 2 60.5 6t100.5 9t94 10t44 5q29 16 29 43q0 33 -33 33h-10q-84 -18 -166 -26.5t-168 -12.5 q-80 111 -124 237t-68 259q27 45 54.5 97t50 108.5t37.5 113t15 109.5q0 20 -3 44.5t-12 46t-24.5 37t-41.5 15.5q-47 0 -79 -49t-51.5 -114.5t-27.5 -131t-8 -100.5q0 -47 3 -91t7 -91q-86 -135 -176 -260t-195 -248q-47 0 -104.5 2t-116.5 7t-115.5 15.5t-99.5 26.5 q-12 6 -23 6q-16 0 -27 -10t-11 -27zM518 287q82 102 159 205.5t148 212.5q25 -104 63 -204t89 -198q-117 -6 -229.5 -10t-229.5 -6zM854 1655q0 -21 18 -35q12 -10 39 -33.5t56.5 -49.5t55.5 -45t36 -19q12 0 21.5 8t9.5 20q0 10 -28 41t-63.5 64.5t-68.5 60.5t-43 27 q-16 0 -24.5 -12.5t-8.5 -26.5zM862 948v43q0 16 5 63.5t15.5 96.5t26.5 88t39 39q6 0 10.5 -8t5.5 -18.5t2 -20.5t1 -14q0 -37 -9.5 -78t-23.5 -81t-31.5 -79t-36.5 -72q-4 20 -4 41z" />
<glyph unicode="&#xc1;" horiz-adv-x="1570" d="M-63 309q0 -31 51 -49t117.5 -27.5t130 -12.5t88.5 -3h43q-25 -27 -69 -73t-94 -93t-97.5 -87t-77.5 -54q-10 -6 -23.5 -5t-25 -1t-19.5 -11.5t-8 -31.5q0 -23 19.5 -36t41.5 -13q20 0 56 25.5t80.5 65.5t92.5 87t90 92t74.5 82t47.5 53h82q152 0 305 6q39 2 77.5 5 t77.5 3q23 0 30 -5t24 -21q51 -47 102 -87t106.5 -70t117 -47t134.5 -17q33 0 33 32q0 16 -10 25.5t-27 13.5q-20 4 -41.5 7.5t-44.5 7.5q-88 20 -158.5 64t-136.5 106q12 2 60.5 6t100.5 9t94 10t44 5q29 16 29 43q0 33 -33 33h-10q-84 -18 -166 -26.5t-168 -12.5 q-80 111 -124 237t-68 259q27 45 54.5 97t50 108.5t37.5 113t15 109.5q0 20 -3 44.5t-12 46t-24.5 37t-41.5 15.5q-47 0 -79 -49t-51.5 -114.5t-27.5 -131t-8 -100.5q0 -47 3 -91t7 -91q-86 -135 -176 -260t-195 -248q-47 0 -104.5 2t-116.5 7t-115.5 15.5t-99.5 26.5 q-12 6 -23 6q-16 0 -27 -10t-11 -27zM518 287q82 102 159 205.5t148 212.5q25 -104 63 -204t89 -198q-117 -6 -229.5 -10t-229.5 -6zM862 948v43q0 16 5 63.5t15.5 96.5t26.5 88t39 39q6 0 10.5 -8t5.5 -18.5t2 -20.5t1 -14q0 -37 -9.5 -78t-23.5 -81t-31.5 -79t-36.5 -72 q-4 20 -4 41zM870 1495q0 -29 29 -29q12 0 41 15.5t60.5 36t60.5 41t43 28.5q20 14 20 41q0 14 -7 26.5t-23 12.5q-10 0 -37 -16.5t-57.5 -38t-58.5 -42t-40 -28.5q-12 -10 -21.5 -20.5t-9.5 -26.5z" />
<glyph unicode="&#xc2;" horiz-adv-x="1570" d="M-63 309q0 -31 51 -49t117.5 -27.5t130 -12.5t88.5 -3h43q-25 -27 -69 -73t-94 -93t-97.5 -87t-77.5 -54q-10 -6 -23.5 -5t-25 -1t-19.5 -11.5t-8 -31.5q0 -23 19.5 -36t41.5 -13q20 0 56 25.5t80.5 65.5t92.5 87t90 92t74.5 82t47.5 53h82q152 0 305 6q39 2 77.5 5 t77.5 3q23 0 30 -5t24 -21q51 -47 102 -87t106.5 -70t117 -47t134.5 -17q33 0 33 32q0 16 -10 25.5t-27 13.5q-20 4 -41.5 7.5t-44.5 7.5q-88 20 -158.5 64t-136.5 106q12 2 60.5 6t100.5 9t94 10t44 5q29 16 29 43q0 33 -33 33h-10q-84 -18 -166 -26.5t-168 -12.5 q-80 111 -124 237t-68 259q27 45 54.5 97t50 108.5t37.5 113t15 109.5q0 20 -3 44.5t-12 46t-24.5 37t-41.5 15.5q-47 0 -79 -49t-51.5 -114.5t-27.5 -131t-8 -100.5q0 -47 3 -91t7 -91q-86 -135 -176 -260t-195 -248q-47 0 -104.5 2t-116.5 7t-115.5 15.5t-99.5 26.5 q-12 6 -23 6q-16 0 -27 -10t-11 -27zM518 287q82 102 159 205.5t148 212.5q25 -104 63 -204t89 -198q-117 -6 -229.5 -10t-229.5 -6zM768 1452q0 -22 25 -22q12 0 37.5 13t55 31.5t57.5 36t40 25.5q12 -8 36.5 -28.5t51.5 -41t50.5 -36t33.5 -15.5q27 0 27 27q0 12 -26 40.5 t-58.5 57.5t-65.5 50.5t-45 21.5t-47 -20.5t-74 -47t-68.5 -53.5t-29.5 -39zM862 948v43q0 16 5 63.5t15.5 96.5t26.5 88t39 39q6 0 10.5 -8t5.5 -18.5t2 -20.5t1 -14q0 -37 -9.5 -78t-23.5 -81t-31.5 -79t-36.5 -72q-4 20 -4 41z" />
<glyph unicode="&#xc3;" horiz-adv-x="1570" d="M-63 309q0 -31 51 -49t117.5 -27.5t130 -12.5t88.5 -3h43q-25 -27 -69 -73t-94 -93t-97.5 -87t-77.5 -54q-10 -6 -23.5 -5t-25 -1t-19.5 -11.5t-8 -31.5q0 -23 19.5 -36t41.5 -13q20 0 56 25.5t80.5 65.5t92.5 87t90 92t74.5 82t47.5 53h82q152 0 305 6q39 2 77.5 5 t77.5 3q23 0 30 -5t24 -21q51 -47 102 -87t106.5 -70t117 -47t134.5 -17q33 0 33 32q0 16 -10 25.5t-27 13.5q-20 4 -41.5 7.5t-44.5 7.5q-88 20 -158.5 64t-136.5 106q12 2 60.5 6t100.5 9t94 10t44 5q29 16 29 43q0 33 -33 33h-10q-84 -18 -166 -26.5t-168 -12.5 q-80 111 -124 237t-68 259q27 45 54.5 97t50 108.5t37.5 113t15 109.5q0 20 -3 44.5t-12 46t-24.5 37t-41.5 15.5q-47 0 -79 -49t-51.5 -114.5t-27.5 -131t-8 -100.5q0 -47 3 -91t7 -91q-86 -135 -176 -260t-195 -248q-47 0 -104.5 2t-116.5 7t-115.5 15.5t-99.5 26.5 q-12 6 -23 6q-16 0 -27 -10t-11 -27zM518 287q82 102 159 205.5t148 212.5q25 -104 63 -204t89 -198q-117 -6 -229.5 -10t-229.5 -6zM786 1460q0 -12 8.5 -22.5t22.5 -10.5q12 0 23.5 9.5t21.5 21.5t21.5 23.5t23.5 13.5q14 -10 25.5 -22.5t22 -23.5t23.5 -19.5t34 -8.5 q18 0 38.5 10.5t37 27t27.5 35.5t11 38q0 33 -32 33q-14 0 -24.5 -11.5t-20 -23.5t-18.5 -23.5t-19 -11.5q-14 8 -24.5 20.5t-22 24.5t-24.5 20.5t-34 8.5q-16 0 -37.5 -10.5t-40 -26.5t-31 -34.5t-12.5 -37.5zM862 948v43q0 16 5 63.5t15.5 96.5t26.5 88t39 39q6 0 10.5 -8 t5.5 -18.5t2 -20.5t1 -14q0 -37 -9.5 -78t-23.5 -81t-31.5 -79t-36.5 -72q-4 20 -4 41z" />
<glyph unicode="&#xc4;" horiz-adv-x="1570" d="M-63 309q0 -31 51 -49t117.5 -27.5t130 -12.5t88.5 -3h43q-25 -27 -69 -73t-94 -93t-97.5 -87t-77.5 -54q-10 -6 -23.5 -5t-25 -1t-19.5 -11.5t-8 -31.5q0 -23 19.5 -36t41.5 -13q20 0 56 25.5t80.5 65.5t92.5 87t90 92t74.5 82t47.5 53h82q152 0 305 6q39 2 77.5 5 t77.5 3q23 0 30 -5t24 -21q51 -47 102 -87t106.5 -70t117 -47t134.5 -17q33 0 33 32q0 16 -10 25.5t-27 13.5q-20 4 -41.5 7.5t-44.5 7.5q-88 20 -158.5 64t-136.5 106q12 2 60.5 6t100.5 9t94 10t44 5q29 16 29 43q0 33 -33 33h-10q-84 -18 -166 -26.5t-168 -12.5 q-80 111 -124 237t-68 259q27 45 54.5 97t50 108.5t37.5 113t15 109.5q0 20 -3 44.5t-12 46t-24.5 37t-41.5 15.5q-47 0 -79 -49t-51.5 -114.5t-27.5 -131t-8 -100.5q0 -47 3 -91t7 -91q-86 -135 -176 -260t-195 -248q-47 0 -104.5 2t-116.5 7t-115.5 15.5t-99.5 26.5 q-12 6 -23 6q-16 0 -27 -10t-11 -27zM518 287q82 102 159 205.5t148 212.5q25 -104 63 -204t89 -198q-117 -6 -229.5 -10t-229.5 -6zM809 1501q0 -16 10.5 -25.5t26.5 -9.5q12 0 28.5 6.5t30 17.5t23.5 24.5t10 25.5q0 16 -12.5 29.5t-28.5 13.5q-31 0 -59.5 -25.5 t-28.5 -56.5zM862 948v43q0 16 5 63.5t15.5 96.5t26.5 88t39 39q6 0 10.5 -8t5.5 -18.5t2 -20.5t1 -14q0 -37 -9.5 -78t-23.5 -81t-31.5 -79t-36.5 -72q-4 20 -4 41zM1032 1511q0 -23 16.5 -32t36.5 -9q10 0 25.5 6.5t29 15.5t22.5 21.5t9 24.5q0 23 -23.5 32t-41.5 9 q-20 0 -47 -22.5t-27 -45.5z" />
<glyph unicode="&#xc5;" horiz-adv-x="1570" d="M-63 309q0 -31 51 -49t117.5 -27.5t130 -12.5t88.5 -3h43q-25 -27 -69 -73t-94 -93t-97.5 -87t-77.5 -54q-10 -6 -23.5 -5t-25 -1t-19.5 -11.5t-8 -31.5q0 -23 19.5 -36t41.5 -13q20 0 56 25.5t80.5 65.5t92.5 87t90 92t74.5 82t47.5 53h82q152 0 305 6q39 2 77.5 5 t77.5 3q23 0 30 -5t24 -21q51 -47 102 -87t106.5 -70t117 -47t134.5 -17q33 0 33 32q0 16 -10 25.5t-27 13.5q-20 4 -41.5 7.5t-44.5 7.5q-88 20 -158.5 64t-136.5 106q12 2 60.5 6t100.5 9t94 10t44 5q29 16 29 43q0 33 -33 33h-10q-84 -18 -166 -26.5t-168 -12.5 q-80 111 -124 237t-68 259q27 45 54.5 97t50 108.5t37.5 113t15 109.5q0 20 -3 44.5t-12 46t-24.5 37t-41.5 15.5q-47 0 -79 -49t-51.5 -114.5t-27.5 -131t-8 -100.5q0 -47 3 -91t7 -91q-86 -135 -176 -260t-195 -248q-47 0 -104.5 2t-116.5 7t-115.5 15.5t-99.5 26.5 q-12 6 -23 6q-16 0 -27 -10t-11 -27zM518 287q82 102 159 205.5t148 212.5q25 -104 63 -204t89 -198q-117 -6 -229.5 -10t-229.5 -6zM850 1556q0 -53 39 -92t92 -39t92 39t39 92t-39 92.5t-92 39.5t-92 -39t-39 -93zM862 948v43q0 16 5 63.5t15.5 96.5t26.5 88t39 39 q6 0 10.5 -8t5.5 -18.5t2 -20.5t1 -14q0 -37 -9.5 -78t-23.5 -81t-31.5 -79t-36.5 -72q-4 20 -4 41zM911 1556q0 29 20.5 49.5t49.5 20.5t49.5 -20.5t20.5 -49.5t-20.5 -49t-49.5 -20t-49.5 20.5t-20.5 48.5z" />
<glyph unicode="&#xc6;" horiz-adv-x="2523" d="M-100 -137q0 -23 17 -38t40 -15q10 0 19.5 4t19.5 8q131 74 245.5 166t219.5 198q154 -12 307 -12q102 0 207 6q-14 -115 94 -168q6 -14 15.5 -40.5t22.5 -53.5t28.5 -46t31.5 -19q43 0 43 45q0 2 -4 12l-9 22.5t-10 22.5t-5 14q68 -10 138.5 -12t139.5 -2q92 0 205 13.5 t227.5 37t223 56t192.5 73.5q12 4 21.5 13.5t9.5 25.5q0 12 -8.5 21.5t-20.5 9.5q-8 0 -16 -4q-195 -76 -396.5 -124t-412.5 -48q-35 0 -83 3t-97.5 10t-93.5 18.5t-74 29.5q-8 4 -17.5 16.5t-16.5 28t-12.5 29.5t-5.5 24q6 2 50.5 8.5t97.5 14.5t103 16.5t73 14.5 q14 4 24.5 18t10.5 31q0 29 -29 28h-10q-72 -16 -143.5 -28t-147.5 -17q55 61 142 114.5t184.5 93.5t197 63.5t181.5 23.5q41 0 83 -7t83 -7q20 0 39.5 11.5t19.5 33.5q0 20 -19.5 32.5t-46 18.5t-54.5 7t-42 1q-76 0 -158 -16q-41 6 -120.5 25.5t-159.5 52.5t-139.5 78 t-59.5 102q0 41 27.5 68.5t56.5 48.5q43 31 100.5 51.5t119 32.5t123 17t112.5 5q35 0 84 -3t103 -11t109.5 -21.5t101.5 -35t80 -51t46 -70.5q-10 -4 -21.5 -9t-11.5 -20q0 -18 20.5 -23.5t33.5 -5.5q12 0 29.5 3.5t32.5 9.5t26.5 17t11.5 28q0 16 -12 33 q-49 68 -123 112.5t-158 70.5t-172 36t-168 10q-43 0 -106.5 -5t-134 -17.5t-141.5 -33t-127 -53t-92 -77.5t-36 -105q0 -66 47 -115t113.5 -85.5t138.5 -60.5t121 -36q-70 -25 -140.5 -49.5t-139 -56t-131 -71.5t-113.5 -95q-14 104 -19.5 206.5t-5.5 207.5v55 q43 51 85 111.5t74 127t52.5 136t20.5 137.5q0 27 -18.5 42t-43.5 15q-20 0 -37.5 -9t-32.5 -24q-55 -55 -85.5 -117.5t-48 -129t-25.5 -133t-19 -130.5q-125 -147 -251 -287.5t-263 -273.5q-55 4 -102 11.5t-91 19.5t-88 29.5t-94 42.5q-12 6 -22 6q-20 0 -37.5 -15.5 t-17.5 -35.5q0 -25 49 -47.5t113.5 -40t126 -29.5t83.5 -14q-23 -20 -78 -67.5t-118.5 -95.5t-120.5 -85t-84 -37q-25 0 -41 -8t-16 -39zM543 258q104 113 205.5 226.5t201.5 230.5q4 -115 8.5 -228.5t24.5 -226.5q-72 -2 -144.5 -5t-144.5 -3q-76 0 -151 6zM1034 934 q2 25 13.5 79t30 110.5t44 102.5t56.5 52q4 -4 5 -12.5t1 -12.5q0 -39 -15.5 -83t-38 -87t-49 -81.5t-47.5 -67.5z" />
<glyph unicode="&#xc7;" horiz-adv-x="1339" d="M-12 428q0 -123 67.5 -213t169 -150.5t220 -89t221.5 -28.5q74 0 155.5 12t162.5 34.5t155.5 56.5t136.5 75q22 16 22 39q0 33 -30 33q-6 0 -11.5 -2t-11.5 -5q-129 -78 -273.5 -129t-297.5 -51q-92 0 -197.5 26.5t-194.5 80t-147.5 135.5t-58.5 190q0 96 41 194.5 t107.5 183.5t150.5 151.5t172 99.5q-33 -63 -54.5 -134t-21.5 -142q0 -100 53.5 -167t157.5 -67q72 0 133.5 30t105.5 80t69.5 114.5t25.5 134.5t-23.5 118.5t-64.5 80.5t-96.5 46.5t-118.5 14.5q4 16 -2 34.5t-29 18.5q-25 0 -47.5 -26.5t-34.5 -45.5q-111 -27 -209 -92 t-178 -154.5t-136.5 -196t-80.5 -212.5q-8 -35 -8 -78zM444 -328q0 -25 29 -24q14 0 30.5 9t30 22.5t21.5 30t8 30.5q0 25 -11 46t-11 46q0 18 8 29.5t17 20.5t17.5 16.5t8.5 15.5q0 14 -11.5 20.5t-23.5 6.5q-37 0 -63.5 -35t-26.5 -70q0 -25 10 -47t10 -47q0 -12 -7 -21.5 t-14 -16.5t-14.5 -14t-7.5 -18zM545 807q0 78 36.5 154.5t80.5 140.5q16 2 30.5 3t30.5 1q90 0 150.5 -49.5t60.5 -143.5q0 -43 -17.5 -93t-47 -93t-71.5 -71.5t-91 -28.5q-78 0 -120 54t-42 126z" />
<glyph unicode="&#xc8;" horiz-adv-x="1406" d="M-14 158q0 -51 28.5 -85t74.5 -55.5t103.5 -34t115 -17.5t109.5 -6t87 -1q88 0 195.5 13.5t216 36t212 52t185.5 64.5q10 6 19 15.5t9 23.5q0 29 -28 29q-4 0 -17 -5q-188 -72 -381.5 -117.5t-396.5 -45.5q-37 0 -109.5 5t-146.5 21.5t-129 47t-55 81.5q0 49 33.5 93 t88 81t122 67t134 50.5t126 31.5t96.5 11q47 0 94 -6t94 -6q18 0 38 10t20 33q0 20 -17.5 32.5t-42 18.5t-50.5 7t-40 1q-43 0 -86 -5t-84 -13q-29 4 -75 15t-101 27.5t-110.5 39t-100.5 50t-73.5 61.5t-28.5 73q0 37 26.5 65.5t55.5 47.5q41 31 97 51t116.5 32.5t121 17.5 t111.5 5q61 0 137 -8t151 -28.5t138.5 -56.5t97.5 -91q2 -4 3 -5t4 -5q-10 -4 -19.5 -9.5t-9.5 -17.5q0 -18 20.5 -24.5t34.5 -6.5q12 0 28.5 3t32 10.5t25.5 18.5t10 28q0 14 -14 32q-51 68 -126 113t-160 70.5t-174 36t-169 10.5q-43 0 -105.5 -5.5t-132 -17.5t-139 -32.5 t-125 -52.5t-90 -76t-34.5 -103q0 -66 49 -117t118.5 -88t143.5 -61.5t123 -36.5q-57 -18 -139 -54t-157 -86.5t-127 -115t-52 -137.5zM610 1413q0 -20 19 -35q12 -10 38.5 -33.5t56.5 -49t55.5 -45t35.5 -19.5q12 0 21.5 8.5t9.5 20.5q0 10 -27.5 40.5t-63.5 64.5t-69 60.5 t-43 26.5q-16 0 -24.5 -12.5t-8.5 -26.5z" />
<glyph unicode="&#xc9;" horiz-adv-x="1406" d="M-14 158q0 -51 28.5 -85t74.5 -55.5t103.5 -34t115 -17.5t109.5 -6t87 -1q88 0 195.5 13.5t216 36t212 52t185.5 64.5q10 6 19 15.5t9 23.5q0 29 -28 29q-4 0 -17 -5q-188 -72 -381.5 -117.5t-396.5 -45.5q-37 0 -109.5 5t-146.5 21.5t-129 47t-55 81.5q0 49 33.5 93 t88 81t122 67t134 50.5t126 31.5t96.5 11q47 0 94 -6t94 -6q18 0 38 10t20 33q0 20 -17.5 32.5t-42 18.5t-50.5 7t-40 1q-43 0 -86 -5t-84 -13q-29 4 -75 15t-101 27.5t-110.5 39t-100.5 50t-73.5 61.5t-28.5 73q0 37 26.5 65.5t55.5 47.5q41 31 97 51t116.5 32.5t121 17.5 t111.5 5q61 0 137 -8t151 -28.5t138.5 -56.5t97.5 -91q2 -4 3 -5t4 -5q-10 -4 -19.5 -9.5t-9.5 -17.5q0 -18 20.5 -24.5t34.5 -6.5q12 0 28.5 3t32 10.5t25.5 18.5t10 28q0 14 -14 32q-51 68 -126 113t-160 70.5t-174 36t-169 10.5q-43 0 -105.5 -5.5t-132 -17.5t-139 -32.5 t-125 -52.5t-90 -76t-34.5 -103q0 -66 49 -117t118.5 -88t143.5 -61.5t123 -36.5q-57 -18 -139 -54t-157 -86.5t-127 -115t-52 -137.5zM657 1303q0 -29 29 -29q12 0 41 15.5t60.5 36t60.5 40.5t43 29q20 14 20 41q0 14 -7 26.5t-23 12.5q-10 0 -37 -16.5t-57.5 -38 t-58.5 -42t-40 -28.5q-12 -10 -21.5 -20.5t-9.5 -26.5z" />
<glyph unicode="&#xca;" horiz-adv-x="1406" d="M-14 158q0 -51 28.5 -85t74.5 -55.5t103.5 -34t115 -17.5t109.5 -6t87 -1q88 0 195.5 13.5t216 36t212 52t185.5 64.5q10 6 19 15.5t9 23.5q0 29 -28 29q-4 0 -17 -5q-188 -72 -381.5 -117.5t-396.5 -45.5q-37 0 -109.5 5t-146.5 21.5t-129 47t-55 81.5q0 49 33.5 93 t88 81t122 67t134 50.5t126 31.5t96.5 11q47 0 94 -6t94 -6q18 0 38 10t20 33q0 20 -17.5 32.5t-42 18.5t-50.5 7t-40 1q-43 0 -86 -5t-84 -13q-29 4 -75 15t-101 27.5t-110.5 39t-100.5 50t-73.5 61.5t-28.5 73q0 37 26.5 65.5t55.5 47.5q41 31 97 51t116.5 32.5t121 17.5 t111.5 5q61 0 137 -8t151 -28.5t138.5 -56.5t97.5 -91q2 -4 3 -5t4 -5q-10 -4 -19.5 -9.5t-9.5 -17.5q0 -18 20.5 -24.5t34.5 -6.5q12 0 28.5 3t32 10.5t25.5 18.5t10 28q0 14 -14 32q-51 68 -126 113t-160 70.5t-174 36t-169 10.5q-43 0 -105.5 -5.5t-132 -17.5t-139 -32.5 t-125 -52.5t-90 -76t-34.5 -103q0 -66 49 -117t118.5 -88t143.5 -61.5t123 -36.5q-57 -18 -139 -54t-157 -86.5t-127 -115t-52 -137.5zM561 1260q0 -23 25 -23q12 0 37.5 13.5t55.5 31.5t57.5 35.5t39.5 25.5q12 -8 37 -28.5t51.5 -41t50 -35.5t33.5 -15q27 -1 27 26 q0 12 -25.5 41t-58.5 57.5t-65.5 50t-45.5 21.5q-12 0 -47 -20.5t-73.5 -47t-68.5 -53t-30 -38.5z" />
<glyph unicode="&#xcb;" horiz-adv-x="1406" d="M-14 158q0 -51 28.5 -85t74.5 -55.5t103.5 -34t115 -17.5t109.5 -6t87 -1q88 0 195.5 13.5t216 36t212 52t185.5 64.5q10 6 19 15.5t9 23.5q0 29 -28 29q-4 0 -17 -5q-188 -72 -381.5 -117.5t-396.5 -45.5q-37 0 -109.5 5t-146.5 21.5t-129 47t-55 81.5q0 49 33.5 93 t88 81t122 67t134 50.5t126 31.5t96.5 11q47 0 94 -6t94 -6q18 0 38 10t20 33q0 20 -17.5 32.5t-42 18.5t-50.5 7t-40 1q-43 0 -86 -5t-84 -13q-29 4 -75 15t-101 27.5t-110.5 39t-100.5 50t-73.5 61.5t-28.5 73q0 37 26.5 65.5t55.5 47.5q41 31 97 51t116.5 32.5t121 17.5 t111.5 5q61 0 137 -8t151 -28.5t138.5 -56.5t97.5 -91q2 -4 3 -5t4 -5q-10 -4 -19.5 -9.5t-9.5 -17.5q0 -18 20.5 -24.5t34.5 -6.5q12 0 28.5 3t32 10.5t25.5 18.5t10 28q0 14 -14 32q-51 68 -126 113t-160 70.5t-174 36t-169 10.5q-43 0 -105.5 -5.5t-132 -17.5t-139 -32.5 t-125 -52.5t-90 -76t-34.5 -103q0 -66 49 -117t118.5 -88t143.5 -61.5t123 -36.5q-57 -18 -139 -54t-157 -86.5t-127 -115t-52 -137.5zM571 1311q0 -16 10.5 -25.5t26.5 -9.5q12 0 28.5 6t30 17.5t23.5 25t10 25.5q0 16 -12 29.5t-29 13.5q-31 0 -59.5 -26t-28.5 -56z M795 1321q0 -23 16 -32t37 -9q10 0 25.5 6t28.5 15.5t22.5 22t9.5 24.5q0 23 -23.5 32t-42.5 9q-20 0 -46.5 -23t-26.5 -45z" />
<glyph unicode="&#xcc;" horiz-adv-x="940" d="M-8 53q0 -55 40 -75.5t87 -20.5q78 0 149.5 21.5t143.5 39.5q4 2 10 2t9 -5l6 -10t11.5 -10t26.5 -5q31 0 38 10t11 35q4 4 22.5 7t40 5t41 3t27.5 1q39 0 76 -10t74 -10q20 0 35.5 13t15.5 34q0 18 -17.5 27.5t-41 13.5t-47 5t-35.5 1q-53 0 -106.5 -4t-106.5 -15 q-10 68 -14.5 136.5t-4.5 136.5q0 174 18.5 351t59.5 349q12 2 32.5 4t44.5 4.5t44 2.5h37q53 0 87 -13.5t52 -13.5q16 0 29.5 12.5t13.5 28.5q0 20 -15.5 32.5t-37 17.5t-45 6t-37.5 1q-47 0 -96 -2t-97 -8q2 16 5.5 31.5t3.5 31.5t-6.5 28.5t-24.5 12.5q-25 0 -36 -17 t-16 -38.5t-8.5 -39t-13.5 -19.5q-53 -10 -109.5 -14.5t-109.5 -4.5q-18 0 -48 2t-46 13q10 10 10 22t-9 18.5t-20 6.5q-12 0 -26.5 -6.5t-26.5 -16.5t-20.5 -22.5t-8.5 -24.5q0 -23 18.5 -35t43.5 -18t50.5 -7t41.5 -1q131 0 260 18q-29 -193 -54.5 -383t-25.5 -387 q0 -51 5.5 -102.5t5.5 -102.5l-2 -10q-20 -10 -54.5 -20.5t-72 -18.5t-73.5 -14t-59 -6q-41 0 -58 13t-24.5 29.5t-13.5 30t-24 13.5q-23 0 -29 -21.5t-6 -38.5zM438 1524q0 -20 19 -35q12 -10 38.5 -33.5t56.5 -49.5t55.5 -45.5t35.5 -19.5q12 0 21.5 8.5t9.5 20.5 q0 10 -28 41t-63.5 64.5t-68.5 60.5t-43 27q-16 0 -24.5 -12.5t-8.5 -26.5z" />
<glyph unicode="&#xcd;" horiz-adv-x="940" d="M-8 53q0 -55 40 -75.5t87 -20.5q78 0 149.5 21.5t143.5 39.5q4 2 10 2t9 -5l6 -10t11.5 -10t26.5 -5q31 0 38 10t11 35q4 4 22.5 7t40 5t41 3t27.5 1q39 0 76 -10t74 -10q20 0 35.5 13t15.5 34q0 18 -17.5 27.5t-41 13.5t-47 5t-35.5 1q-53 0 -106.5 -4t-106.5 -15 q-10 68 -14.5 136.5t-4.5 136.5q0 174 18.5 351t59.5 349q12 2 32.5 4t44.5 4.5t44 2.5h37q53 0 87 -13.5t52 -13.5q16 0 29.5 12.5t13.5 28.5q0 20 -15.5 32.5t-37 17.5t-45 6t-37.5 1q-47 0 -96 -2t-97 -8q2 16 5.5 31.5t3.5 31.5t-6.5 28.5t-24.5 12.5q-25 0 -36 -17 t-16 -38.5t-8.5 -39t-13.5 -19.5q-53 -10 -109.5 -14.5t-109.5 -4.5q-18 0 -48 2t-46 13q10 10 10 22t-9 18.5t-20 6.5q-12 0 -26.5 -6.5t-26.5 -16.5t-20.5 -22.5t-8.5 -24.5q0 -23 18.5 -35t43.5 -18t50.5 -7t41.5 -1q131 0 260 18q-29 -193 -54.5 -383t-25.5 -387 q0 -51 5.5 -102.5t5.5 -102.5l-2 -10q-20 -10 -54.5 -20.5t-72 -18.5t-73.5 -14t-59 -6q-41 0 -58 13t-24.5 29.5t-13.5 30t-24 13.5q-23 0 -29 -21.5t-6 -38.5zM483 1397q0 -29 29 -29q12 0 41 15.5t60.5 36t60 41t43.5 28.5q20 14 20 41q0 14 -7 26.5t-23 12.5 q-10 0 -37 -16.5t-57.5 -38t-58.5 -42t-40 -28.5q-12 -10 -21.5 -20.5t-9.5 -26.5z" />
<glyph unicode="&#xce;" horiz-adv-x="940" d="M-8 53q0 -55 40 -75.5t87 -20.5q78 0 149.5 21.5t143.5 39.5q4 2 10 2t9 -5l6 -10t11.5 -10t26.5 -5q31 0 38 10t11 35q4 4 22.5 7t40 5t41 3t27.5 1q39 0 76 -10t74 -10q20 0 35.5 13t15.5 34q0 18 -17.5 27.5t-41 13.5t-47 5t-35.5 1q-53 0 -106.5 -4t-106.5 -15 q-10 68 -14.5 136.5t-4.5 136.5q0 174 18.5 351t59.5 349q12 2 32.5 4t44.5 4.5t44 2.5h37q53 0 87 -13.5t52 -13.5q16 0 29.5 12.5t13.5 28.5q0 20 -15.5 32.5t-37 17.5t-45 6t-37.5 1q-47 0 -96 -2t-97 -8q2 16 5.5 31.5t3.5 31.5t-6.5 28.5t-24.5 12.5q-25 0 -36 -17 t-16 -38.5t-8.5 -39t-13.5 -19.5q-53 -10 -109.5 -14.5t-109.5 -4.5q-18 0 -48 2t-46 13q10 10 10 22t-9 18.5t-20 6.5q-12 0 -26.5 -6.5t-26.5 -16.5t-20.5 -22.5t-8.5 -24.5q0 -23 18.5 -35t43.5 -18t50.5 -7t41.5 -1q131 0 260 18q-29 -193 -54.5 -383t-25.5 -387 q0 -51 5.5 -102.5t5.5 -102.5l-2 -10q-20 -10 -54.5 -20.5t-72 -18.5t-73.5 -14t-59 -6q-41 0 -58 13t-24.5 29.5t-13.5 30t-24 13.5q-23 0 -29 -21.5t-6 -38.5zM360 1368q0 -23 25 -22q12 0 38 13t55.5 31.5t57 36t39.5 25.5q12 -8 37 -28.5t51.5 -41t50 -36t34.5 -15.5 q26 0 26 27q0 12 -25.5 40.5t-58.5 57.5t-65.5 50.5t-44.5 21.5t-47 -20.5t-74 -47t-69 -53.5t-30 -39z" />
<glyph unicode="&#xcf;" horiz-adv-x="940" d="M-8 53q0 -55 40 -75.5t87 -20.5q78 0 149.5 21.5t143.5 39.5q4 2 10 2t9 -5l6 -10t11.5 -10t26.5 -5q31 0 38 10t11 35q4 4 22.5 7t40 5t41 3t27.5 1q39 0 76 -10t74 -10q20 0 35.5 13t15.5 34q0 18 -17.5 27.5t-41 13.5t-47 5t-35.5 1q-53 0 -106.5 -4t-106.5 -15 q-10 68 -14.5 136.5t-4.5 136.5q0 174 18.5 351t59.5 349q12 2 32.5 4t44.5 4.5t44 2.5h37q53 0 87 -13.5t52 -13.5q16 0 29.5 12.5t13.5 28.5q0 20 -15.5 32.5t-37 17.5t-45 6t-37.5 1q-47 0 -96 -2t-97 -8q2 16 5.5 31.5t3.5 31.5t-6.5 28.5t-24.5 12.5q-25 0 -36 -17 t-16 -38.5t-8.5 -39t-13.5 -19.5q-53 -10 -109.5 -14.5t-109.5 -4.5q-18 0 -48 2t-46 13q10 10 10 22t-9 18.5t-20 6.5q-12 0 -26.5 -6.5t-26.5 -16.5t-20.5 -22.5t-8.5 -24.5q0 -23 18.5 -35t43.5 -18t50.5 -7t41.5 -1q131 0 260 18q-29 -193 -54.5 -383t-25.5 -387 q0 -51 5.5 -102.5t5.5 -102.5l-2 -10q-20 -10 -54.5 -20.5t-72 -18.5t-73.5 -14t-59 -6q-41 0 -58 13t-24.5 29.5t-13.5 30t-24 13.5q-23 0 -29 -21.5t-6 -38.5zM391 1366q0 -16 10.5 -25.5t26.5 -9.5q12 0 28.5 6t30 17.5t23.5 25t10 25.5q0 16 -12 29.5t-29 13.5 q-31 0 -59.5 -25.5t-28.5 -56.5zM614 1376q0 -23 16.5 -32t37.5 -9q10 0 25.5 6.5t28.5 15.5t22.5 21.5t9.5 24.5q0 23 -23.5 32t-42.5 9q-20 0 -47 -22.5t-27 -45.5z" />
<glyph unicode="&#xd0;" horiz-adv-x="1587" d="M-102 674q0 -31 15 -45.5t32.5 -13.5t33 17.5t15.5 49.5t28.5 62.5t72.5 54t98.5 46t107.5 36t98 22.5t70 8q-29 -98 -48.5 -197.5t-29.5 -201.5h-53q-53 0 -93 9t-87 22q-18 4 -28.5 -7.5t-10.5 -27.5q0 -10 5 -24.5t21 -20.5q14 -6 37 -9t47.5 -4t46 -2.5t35.5 -1.5h37 q18 0 37 3q-2 -27 -2 -52v-51q0 -59 7 -119.5t7 -120.5q0 -8 -6 -8q-61 0 -94 22.5t-54.5 50.5t-40 50.5t-48.5 22.5q-16 0 -35 -10.5t-19 -36.5q0 -43 35 -75t84 -53.5t101.5 -33.5t85.5 -17q2 -16 5 -33.5t11 -31.5t20.5 -24.5t30.5 -10.5q25 0 34 17.5t9 37.5 q0 10 -2 20.5t-4 20.5q106 0 232 13.5t250 47.5t234.5 92t184.5 146q41 47 64.5 102.5t23.5 119.5q0 94 -48 163.5t-126 119.5t-176 83t-197.5 52.5t-191.5 27.5t-158 10q4 12 8 25.5t4 27.5q0 16 -9 36t-32 20q-18 0 -32.5 -13.5t-24.5 -33t-17 -40t-10 -34.5 q-37 -4 -95 -14.5t-123.5 -27.5t-132 -42t-120 -56.5t-87 -72.5t-33.5 -92zM459 315v62v35q0 18 2 41q49 4 98 7t98 3q43 0 82 -11.5t68 -11.5q12 0 23.5 9.5t11.5 25.5q0 23 -16.5 34t-39 16t-47.5 5h-37q-59 0 -118.5 -5t-118.5 -9q4 51 10 105.5t15.5 105.5t21.5 94 t29 72q10 18 22 18h31q59 0 144 -6t177.5 -22.5t183.5 -44t162.5 -70.5t116.5 -103.5t45 -140.5q0 -47 -20 -92t-51 -84q-66 -76 -160 -126t-201.5 -79.5t-218 -42t-207.5 -12.5q-14 0 -28.5 -2t-28.5 2q-20 4 -30.5 44t-14.5 89t-4 94z" />
<glyph unicode="&#xd1;" horiz-adv-x="1382" d="M-152 975q0 -12 8.5 -23.5t22.5 -11.5q18 0 41 26.5t55.5 57.5t77.5 57.5t107 26.5q57 0 96 -32t61.5 -80t31.5 -103t9 -100q0 -80 -12 -158t-30.5 -156t-38 -154.5t-33.5 -154.5q-6 -35 -6 -64q0 -20 7 -47.5t36 -27.5q35 0 43 28.5t12 53.5q4 51 13 91t30 87 q16 39 47 98.5t71 125t87 133t98 120.5t103.5 87t103.5 34q27 0 43 -11.5t25.5 -30t12.5 -41t3 -42.5q0 -70 -10.5 -138.5t-21.5 -136t-21.5 -136t-10.5 -138.5q0 -59 16.5 -112.5t48.5 -93.5t80 -63.5t113 -23.5q20 0 60.5 7.5t80.5 21.5t68.5 34.5t28.5 49.5q0 27 -27 26 q-8 0 -25.5 -9t-42 -19t-54 -19.5t-60.5 -9.5q-53 0 -92 20.5t-63.5 55.5t-37 80t-12.5 92q0 66 11.5 131.5t23.5 130t23.5 130t11.5 130.5q0 35 -8.5 72t-26.5 66.5t-47 48t-70 18.5q-78 0 -154.5 -54.5t-146 -131t-125 -161.5t-90.5 -145q16 86 31.5 169t15.5 173 q0 61 -14 125t-47 114t-83 82t-124 32q-43 0 -88 -14.5t-88 -39t-80 -57.5t-59 -67q-8 -16 -9 -29zM547 1176q0 -23 26 -23q14 0 26.5 9t25 21.5t25 24t26.5 13.5q16 -10 28.5 -22.5t24.5 -24t26.5 -19.5t37.5 -8q18 0 39.5 11t40 27.5t30.5 38.5t12 40q0 27 -28 26 q-16 0 -28.5 -11t-23 -23.5t-20.5 -23.5t-20 -11q-16 8 -28.5 20t-26 24.5t-29 20.5t-35.5 8q-16 0 -39 -12t-42.5 -30.5t-33.5 -39t-14 -36.5z" />
<glyph unicode="&#xd2;" horiz-adv-x="1400" d="M-10 494q0 -117 48 -215.5t128 -170t183.5 -111.5t213.5 -40q137 0 269.5 51t235.5 141.5t166.5 213.5t63.5 266q0 119 -49 213t-131 160.5t-186.5 101.5t-214.5 35q-74 0 -159 -15.5t-167 -45t-156.5 -72.5t-125.5 -99q-8 -10 -16.5 -21.5t-8.5 -25.5q0 -16 12 -24 q-47 -78 -76.5 -164t-29.5 -178zM61 512q0 119 52.5 218t138.5 171t194.5 112t219.5 40q55 0 99 -13.5t78 -29t57.5 -27.5t35.5 -12q16 0 25.5 10t9.5 27v4q117 -59 186.5 -164t69.5 -236q0 -121 -54.5 -225t-141.5 -183t-198.5 -124t-226.5 -45q-104 0 -202.5 31.5t-174 93 t-122 150.5t-46.5 202zM584 1423q0 -20 18 -34q12 -10 39 -34t56.5 -49.5t55 -45t35.5 -19.5q12 0 21.5 8.5t9.5 20.5q0 10 -27.5 40.5t-63.5 64.5t-68.5 60.5t-43.5 26.5q-16 0 -24 -12t-8 -27z" />
<glyph unicode="&#xd3;" horiz-adv-x="1400" d="M-10 494q0 -117 48 -215.5t128 -170t183.5 -111.5t213.5 -40q137 0 269.5 51t235.5 141.5t166.5 213.5t63.5 266q0 119 -49 213t-131 160.5t-186.5 101.5t-214.5 35q-74 0 -159 -15.5t-167 -45t-156.5 -72.5t-125.5 -99q-8 -10 -16.5 -21.5t-8.5 -25.5q0 -16 12 -24 q-47 -78 -76.5 -164t-29.5 -178zM61 512q0 119 52.5 218t138.5 171t194.5 112t219.5 40q55 0 99 -13.5t78 -29t57.5 -27.5t35.5 -12q16 0 25.5 10t9.5 27v4q117 -59 186.5 -164t69.5 -236q0 -121 -54.5 -225t-141.5 -183t-198.5 -124t-226.5 -45q-104 0 -202.5 31.5t-174 93 t-122 150.5t-46.5 202zM625 1276q0 -29 28 -29q12 0 41 15.5t60.5 36t60.5 41t43 28.5q21 14 21 41q0 14 -7.5 26.5t-23.5 12.5q-10 0 -37 -16.5t-57.5 -38t-58 -42t-40.5 -28.5q-12 -10 -21 -20.5t-9 -26.5z" />
<glyph unicode="&#xd4;" horiz-adv-x="1400" d="M-10 494q0 -117 48 -215.5t128 -170t183.5 -111.5t213.5 -40q137 0 269.5 51t235.5 141.5t166.5 213.5t63.5 266q0 119 -49 213t-131 160.5t-186.5 101.5t-214.5 35q-74 0 -159 -15.5t-167 -45t-156.5 -72.5t-125.5 -99q-8 -10 -16.5 -21.5t-8.5 -25.5q0 -16 12 -24 q-47 -78 -76.5 -164t-29.5 -178zM61 512q0 119 52.5 218t138.5 171t194.5 112t219.5 40q55 0 99 -13.5t78 -29t57.5 -27.5t35.5 -12q16 0 25.5 10t9.5 27v4q117 -59 186.5 -164t69.5 -236q0 -121 -54.5 -225t-141.5 -183t-198.5 -124t-226.5 -45q-104 0 -202.5 31.5t-174 93 t-122 150.5t-46.5 202zM543 1243q0 -23 24 -22q12 0 38 13t55.5 31.5t57 36t40.5 25.5q12 -8 36.5 -28.5t51 -41t50.5 -36t34 -15.5q26 0 26 27q0 12 -25.5 41t-58 57.5t-65.5 50t-45 21.5t-47 -20.5t-74 -47t-68.5 -53.5t-29.5 -39z" />
<glyph unicode="&#xd5;" horiz-adv-x="1400" d="M-10 494q0 -117 48 -215.5t128 -170t183.5 -111.5t213.5 -40q137 0 269.5 51t235.5 141.5t166.5 213.5t63.5 266q0 119 -49 213t-131 160.5t-186.5 101.5t-214.5 35q-74 0 -159 -15.5t-167 -45t-156.5 -72.5t-125.5 -99q-8 -10 -16.5 -21.5t-8.5 -25.5q0 -16 12 -24 q-47 -78 -76.5 -164t-29.5 -178zM61 512q0 119 52.5 218t138.5 171t194.5 112t219.5 40q55 0 99 -13.5t78 -29t57.5 -27.5t35.5 -12q16 0 25.5 10t9.5 27v4q117 -59 186.5 -164t69.5 -236q0 -121 -54.5 -225t-141.5 -183t-198.5 -124t-226.5 -45q-104 0 -202.5 31.5t-174 93 t-122 150.5t-46.5 202zM559 1253q0 -23 27 -22q14 0 26.5 9t24.5 21.5t24.5 23.5t26.5 13q16 -10 28.5 -22t25 -23.5t26.5 -19.5t37 -8q18 0 39.5 11t40 27.5t31 38t12.5 39.5q0 27 -29 27q-16 0 -28.5 -11t-22.5 -23.5t-20.5 -24t-20.5 -11.5q-16 8 -28.5 20.5t-26 25 t-28.5 20.5t-36 8q-16 0 -38.5 -12t-42 -30.5t-34 -39t-14.5 -37.5z" />
<glyph unicode="&#xd6;" horiz-adv-x="1400" d="M-10 494q0 -117 48 -215.5t128 -170t183.5 -111.5t213.5 -40q137 0 269.5 51t235.5 141.5t166.5 213.5t63.5 266q0 119 -49 213t-131 160.5t-186.5 101.5t-214.5 35q-74 0 -159 -15.5t-167 -45t-156.5 -72.5t-125.5 -99q-8 -10 -16.5 -21.5t-8.5 -25.5q0 -16 12 -24 q-47 -78 -76.5 -164t-29.5 -178zM61 512q0 119 52.5 218t138.5 171t194.5 112t219.5 40q55 0 99 -13.5t78 -29t57.5 -27.5t35.5 -12q16 0 25.5 10t9.5 27v4q117 -59 186.5 -164t69.5 -236q0 -121 -54.5 -225t-141.5 -183t-198.5 -124t-226.5 -45q-104 0 -202.5 31.5t-174 93 t-122 150.5t-46.5 202zM520 1303q0 -16 10.5 -25.5t26.5 -9.5q12 0 28.5 6t30 17.5t23.5 24.5t10 25q0 16 -12 29.5t-29 13.5q-31 0 -59.5 -25.5t-28.5 -55.5zM743 1313q0 -23 16.5 -32t37.5 -9q10 0 25.5 6t28.5 15.5t22.5 21.5t9.5 24q0 23 -23.5 32t-42.5 9 q-20 0 -47 -22.5t-27 -44.5z" />
<glyph unicode="&#xd7;" d="M123 182l53 -53l221 221l221 -221l54 53l-221 221l221 222l-54 53l-221 -221l-221 221l-53 -53l221 -222z" />
<glyph unicode="&#xd8;" horiz-adv-x="1400" d="M-39 -63q0 -14 15.5 -25.5t27.5 -11.5q20 0 31 10q47 37 88 81t84 85q78 -57 169 -88t187 -31q137 0 269.5 51t235.5 140.5t166.5 212.5t63.5 268q0 117 -48 210t-136 167q10 12 38 39.5t55.5 59.5t49 59.5t21.5 39.5q0 20 -16.5 27.5t-32.5 7.5q-4 0 -8 1t-9 -1 q-18 -12 -28 -31.5t-27 -36.5q-27 -29 -54.5 -58.5t-55.5 -57.5q-76 43 -160 63.5t-170 20.5q-72 0 -157 -16.5t-169 -46t-157.5 -72.5t-124.5 -97q-8 -10 -16.5 -21.5t-8.5 -25.5q0 -16 12 -24q-47 -78 -76.5 -164t-29.5 -178q0 -106 42 -201.5t118 -167.5q-39 -37 -79 -73 t-83 -70q-14 -12 -20.5 -19.5t-6.5 -25.5zM61 512q0 119 52.5 218t138.5 171t194.5 112t219.5 40q72 0 140 -22.5t140 -22.5q16 0 25 2l22 -11q-102 -104 -200.5 -209.5t-198.5 -211.5q-96 -100 -194.5 -197.5t-194.5 -202.5q-74 68 -109 151t-35 183zM264 135 q203 205 400.5 407.5t398.5 407.5q78 -61 121 -149.5t43 -188.5q0 -121 -54.5 -225t-141.5 -183t-198.5 -124t-226.5 -45q-92 0 -179 24.5t-163 75.5z" />
<glyph unicode="&#xd9;" horiz-adv-x="1404" d="M-150 596q0 -16 6.5 -30.5t28.5 -14.5q8 0 27.5 8t40 20.5t36 24.5t15.5 23q0 10 -7 16t-17 6q66 100 166 189.5t214 132.5q10 4 22.5 7t25.5 3q35 0 46 -22.5t11 -51.5q0 -45 -13.5 -90t-27.5 -88q-20 -66 -50 -143.5t-56.5 -159.5t-46 -162t-19.5 -145q0 -43 9 -83 t30.5 -71t56.5 -49t84 -18q80 0 157 47t145.5 114.5t124.5 144.5t97 136q0 -66 6.5 -130.5t31 -116.5t72.5 -85t128 -33q25 0 63.5 11.5t76.5 30t64.5 43t26.5 53.5q0 10 -6 20t-18 10q-10 0 -27.5 -14t-41 -30.5t-55.5 -31t-71 -14.5q-53 0 -86 30t-51 73t-25.5 93t-7.5 91 q0 37 4 90t17 88q18 45 40.5 104.5t43 122t35 122t14.5 108.5q0 18 -12.5 32.5t-30.5 14.5q-20 0 -35 -21q-20 -29 -38.5 -86t-34 -122.5t-28 -129t-20.5 -100.5t-38.5 -95t-74.5 -123.5t-99.5 -132.5t-112 -119t-110.5 -86t-97 -34q-33 0 -56.5 14.5t-38 38t-20.5 52 t-6 57.5q0 45 9 97.5t23.5 105.5t32 104.5t31.5 94.5q14 37 34.5 91t40 111.5t33 110.5t13.5 90q0 53 -29.5 86t-85.5 33q-23 0 -46 -5t-46 -12q-59 -20 -123.5 -60t-126 -89t-114 -103.5t-88.5 -105.5q-4 -6 -12.5 -18.5t-15.5 -24.5t-12.5 -24.5t-5.5 -20.5zM664 1268 q0 -20 18 -35q12 -10 39 -33.5t56.5 -49.5t55 -45.5t35.5 -19.5q12 0 21.5 8.5t9.5 20.5q0 10 -27.5 41t-63.5 64.5t-68.5 60.5t-43.5 27q-16 0 -24 -12.5t-8 -26.5z" />
<glyph unicode="&#xda;" horiz-adv-x="1404" d="M-150 596q0 -16 6.5 -30.5t28.5 -14.5q8 0 27.5 8t40 20.5t36 24.5t15.5 23q0 10 -7 16t-17 6q66 100 166 189.5t214 132.5q10 4 22.5 7t25.5 3q35 0 46 -22.5t11 -51.5q0 -45 -13.5 -90t-27.5 -88q-20 -66 -50 -143.5t-56.5 -159.5t-46 -162t-19.5 -145q0 -43 9 -83 t30.5 -71t56.5 -49t84 -18q80 0 157 47t145.5 114.5t124.5 144.5t97 136q0 -66 6.5 -130.5t31 -116.5t72.5 -85t128 -33q25 0 63.5 11.5t76.5 30t64.5 43t26.5 53.5q0 10 -6 20t-18 10q-10 0 -27.5 -14t-41 -30.5t-55.5 -31t-71 -14.5q-53 0 -86 30t-51 73t-25.5 93t-7.5 91 q0 37 4 90t17 88q18 45 40.5 104.5t43 122t35 122t14.5 108.5q0 18 -12.5 32.5t-30.5 14.5q-20 0 -35 -21q-20 -29 -38.5 -86t-34 -122.5t-28 -129t-20.5 -100.5t-38.5 -95t-74.5 -123.5t-99.5 -132.5t-112 -119t-110.5 -86t-97 -34q-33 0 -56.5 14.5t-38 38t-20.5 52 t-6 57.5q0 45 9 97.5t23.5 105.5t32 104.5t31.5 94.5q14 37 34.5 91t40 111.5t33 110.5t13.5 90q0 53 -29.5 86t-85.5 33q-23 0 -46 -5t-46 -12q-59 -20 -123.5 -60t-126 -89t-114 -103.5t-88.5 -105.5q-4 -6 -12.5 -18.5t-15.5 -24.5t-12.5 -24.5t-5.5 -20.5zM752 1128 q0 -29 28 -28q12 0 41 15t60.5 35.5t60.5 41t43 29.5q21 14 21 41q0 14 -7.5 26t-23.5 12q-10 0 -37 -16t-57.5 -37.5t-58 -42t-40.5 -28.5q-12 -10 -21 -20.5t-9 -27.5z" />
<glyph unicode="&#xdb;" horiz-adv-x="1404" d="M-150 596q0 -16 6.5 -30.5t28.5 -14.5q8 0 27.5 8t40 20.5t36 24.5t15.5 23q0 10 -7 16t-17 6q66 100 166 189.5t214 132.5q10 4 22.5 7t25.5 3q35 0 46 -22.5t11 -51.5q0 -45 -13.5 -90t-27.5 -88q-20 -66 -50 -143.5t-56.5 -159.5t-46 -162t-19.5 -145q0 -43 9 -83 t30.5 -71t56.5 -49t84 -18q80 0 157 47t145.5 114.5t124.5 144.5t97 136q0 -66 6.5 -130.5t31 -116.5t72.5 -85t128 -33q25 0 63.5 11.5t76.5 30t64.5 43t26.5 53.5q0 10 -6 20t-18 10q-10 0 -27.5 -14t-41 -30.5t-55.5 -31t-71 -14.5q-53 0 -86 30t-51 73t-25.5 93t-7.5 91 q0 37 4 90t17 88q18 45 40.5 104.5t43 122t35 122t14.5 108.5q0 18 -12.5 32.5t-30.5 14.5q-20 0 -35 -21q-20 -29 -38.5 -86t-34 -122.5t-28 -129t-20.5 -100.5t-38.5 -95t-74.5 -123.5t-99.5 -132.5t-112 -119t-110.5 -86t-97 -34q-33 0 -56.5 14.5t-38 38t-20.5 52 t-6 57.5q0 45 9 97.5t23.5 105.5t32 104.5t31.5 94.5q14 37 34.5 91t40 111.5t33 110.5t13.5 90q0 53 -29.5 86t-85.5 33q-23 0 -46 -5t-46 -12q-59 -20 -123.5 -60t-126 -89t-114 -103.5t-88.5 -105.5q-4 -6 -12.5 -18.5t-15.5 -24.5t-12.5 -24.5t-5.5 -20.5zM637 1145 q0 -23 25 -23q12 0 37.5 13.5t55 32t57.5 36t40 25.5q12 -8 36.5 -28.5t51.5 -41t50.5 -36t33.5 -15.5q27 0 27 27q0 12 -26 40.5t-58.5 57.5t-65.5 50.5t-45 21.5t-47 -20.5t-74 -47.5t-68.5 -53.5t-29.5 -38.5z" />
<glyph unicode="&#xdc;" horiz-adv-x="1404" d="M-150 596q0 -16 6.5 -30.5t28.5 -14.5q8 0 27.5 8t40 20.5t36 24.5t15.5 23q0 10 -7 16t-17 6q66 100 166 189.5t214 132.5q10 4 22.5 7t25.5 3q35 0 46 -22.5t11 -51.5q0 -45 -13.5 -90t-27.5 -88q-20 -66 -50 -143.5t-56.5 -159.5t-46 -162t-19.5 -145q0 -43 9 -83 t30.5 -71t56.5 -49t84 -18q80 0 157 47t145.5 114.5t124.5 144.5t97 136q0 -66 6.5 -130.5t31 -116.5t72.5 -85t128 -33q25 0 63.5 11.5t76.5 30t64.5 43t26.5 53.5q0 10 -6 20t-18 10q-10 0 -27.5 -14t-41 -30.5t-55.5 -31t-71 -14.5q-53 0 -86 30t-51 73t-25.5 93t-7.5 91 q0 37 4 90t17 88q18 45 40.5 104.5t43 122t35 122t14.5 108.5q0 18 -12.5 32.5t-30.5 14.5q-20 0 -35 -21q-20 -29 -38.5 -86t-34 -122.5t-28 -129t-20.5 -100.5t-38.5 -95t-74.5 -123.5t-99.5 -132.5t-112 -119t-110.5 -86t-97 -34q-33 0 -56.5 14.5t-38 38t-20.5 52 t-6 57.5q0 45 9 97.5t23.5 105.5t32 104.5t31.5 94.5q14 37 34.5 91t40 111.5t33 110.5t13.5 90q0 53 -29.5 86t-85.5 33q-23 0 -46 -5t-46 -12q-59 -20 -123.5 -60t-126 -89t-114 -103.5t-88.5 -105.5q-4 -6 -12.5 -18.5t-15.5 -24.5t-12.5 -24.5t-5.5 -20.5zM666 1188 q0 -16 10 -25.5t26 -9.5q12 0 29 6t30 17.5t23.5 25t10.5 25.5q0 16 -12.5 29.5t-28.5 13.5q-31 0 -59.5 -25.5t-28.5 -56.5zM889 1198q0 -23 16.5 -32t36.5 -9q10 0 25.5 6t29 15.5t22.5 22t9 24.5q0 23 -23.5 32t-41.5 9q-20 0 -47 -22.5t-27 -45.5z" />
<glyph unicode="&#xdd;" horiz-adv-x="1165" d="M25 406q0 -115 64.5 -180.5t178.5 -65.5q80 0 162 33.5t157 86t140.5 116t112.5 122.5q4 -117 17 -231.5t15 -231.5q-39 -49 -84 -113.5t-82.5 -135t-63.5 -143.5t-26 -138q0 -33 8.5 -65.5t25 -59.5t44 -43t64.5 -16q49 0 82.5 31.5t55.5 82.5t33 113.5t16 125t5 118.5 v86v73q0 35 -2 70q10 14 35 46t52.5 63.5t54 58.5t38.5 31q23 8 33 13t10 36q0 16 -15 23t-28 7q-16 0 -42.5 -22.5t-54 -51t-52.5 -58t-37 -42.5q-6 98 -14 197.5t-8 198.5q0 23 -1 51.5t5 48.5q4 16 14 34.5t18 35.5q31 66 48.5 123t17.5 131q0 20 -10.5 35.5t-32.5 15.5 q-16 0 -25.5 -8.5t-17.5 -20.5q-45 -70 -64.5 -148.5t-27.5 -158.5q-2 -18 -4 -26.5t-13 -24.5q-37 -63 -95 -133t-131 -129.5t-152.5 -98.5t-157.5 -39q-94 0 -145.5 57.5t-51.5 149.5q0 63 19.5 135t49.5 140.5t67.5 133t74.5 118.5q18 -2 35.5 12t31 35.5t20.5 44t7 39.5 q0 39 -37 39q-27 0 -45 -25q-51 -59 -103 -147.5t-94 -184.5t-68.5 -193.5t-26.5 -176.5zM631 1202q0 -29 28 -28q12 0 41 15t61 35.5t60.5 41t42.5 28.5q21 14 21 41q0 14 -7.5 26.5t-23.5 12.5q-10 0 -36.5 -16.5t-57.5 -38t-58.5 -42t-39.5 -28.5q-12 -10 -21.5 -20 t-9.5 -27zM690 -475q0 51 18.5 108.5t46 113.5t60.5 106.5t64 91.5q0 -35 1 -70t1 -70q0 -31 -2 -97t-13.5 -135t-35 -121t-66.5 -52q-23 0 -37 13.5t-22.5 32.5t-11.5 40.5t-3 38.5z" />
<glyph unicode="&#xde;" horiz-adv-x="1341" d="M-68 -41q-4 -16 2.5 -31.5t22.5 -17.5q39 -6 76 -7t71 3q8 0 33 3t51.5 6t50 5t27.5 0q16 -35 51 -31q16 2 27.5 11.5t15.5 25.5q12 10 39 11q29 0 59.5 -5.5t59.5 -12.5t43 -11q16 -6 44 -15.5t50 -5.5q14 4 23.5 11.5t11.5 25.5q4 23 -20.5 37t-65.5 25q-37 8 -79 12 t-79.5 5t-66.5 1h-35q-2 78 -2 172q0 96 3 199.5t11.5 211t22.5 210.5q31 10 79 18t102 13.5t109.5 7.5t98.5 2q78 0 157 -14.5t142 -43t103 -72.5t40 -102q0 -72 -43 -131t-109.5 -103t-148.5 -68.5t-159 -24.5q-61 0 -127 17t-113 58q-14 14 -34.5 36t-41.5 22 q-23 0 -45 -9.5t-22 -37.5q0 -16 10 -27.5t18 -18.5q66 -53 158 -80.5t178 -27.5q88 0 187.5 28.5t182.5 81t138 128t55 167.5q0 86 -51 144.5t-130 94.5t-173 51.5t-178 15.5q-80 0 -178.5 -6.5t-190.5 -26.5q10 63 20.5 129.5t20.5 109.5q12 4 33.5 7.5t46.5 4.5t46.5 2 t33.5 1q23 0 49.5 -2t48.5 -6q16 -4 21.5 -11.5t21.5 -7.5q41 0 41 41q0 25 -18.5 36t-44 16t-51.5 5h-39q-43 0 -87 -5t-87 -5q0 18 4 37t4 39q0 14 -10.5 21.5t-20.5 7.5q-29 0 -39 -18.5t-14 -41.5q-4 -20 -7.5 -36.5t-13.5 -18.5q-53 -10 -92 -16.5t-92 -6.5h-21 q-14 0 -29.5 1.5t-28.5 4.5t-15 7q-8 23 -23.5 31t-32.5 4q-16 -4 -26 -17.5t-10 -30.5q0 -23 18 -37t44 -21t51.5 -9t41.5 -2q53 0 108.5 11t104.5 11q-12 -59 -21.5 -129.5t-19.5 -130.5q-12 -4 -31.5 -12t-38 -19.5t-32.5 -26.5t-14 -32q0 -18 11 -27.5t27.5 -13.5 t32.5 -4t29 2q-10 -94 -16.5 -181t-9.5 -174t-4 -179.5t-1 -196.5q-16 -6 -53 -11t-78 -6t-78 0t-51 7q-31 12 -48 -0.5t-22 -30.5z" />
<glyph unicode="&#xdf;" horiz-adv-x="679" d="M-6 74q0 -55 7 -114.5t30.5 -109t65.5 -81t112 -31.5q8 0 21.5 1t25.5 4t21.5 9t9.5 19q0 18 -19.5 22t-34.5 6q-59 4 -91.5 38t-48 82t-19.5 102.5t-4 99.5v39q0 20 2 41q6 80 30.5 198.5t65.5 240.5t96 227.5t123 156.5q10 8 22.5 13t26.5 5q29 0 41 -23.5t12 -45.5 q0 -74 -36.5 -143.5t-81.5 -133t-82 -118t-37 -95.5q0 -33 28.5 -69.5t64.5 -77.5t64.5 -85t28.5 -87q0 -27 -13 -43.5t-33.5 -24.5t-44 -11t-44.5 -3q-37 0 -62.5 9t-44 19.5t-31.5 19.5t-24 9q-14 0 -21 -10t-7 -23q0 -29 22.5 -50t53 -35.5t63.5 -21.5t55 -7 q51 0 84 15.5t70 45.5q4 4 12 8q20 10 60 39t80 64t69 69.5t29 59.5q0 23 -23 22q-14 0 -24 -14q-35 -41 -71 -78t-77 -65q12 47 -16.5 100t-66.5 102.5t-72.5 88t-34.5 57.5q0 20 37.5 67.5t83 111t83 138t37.5 150.5q0 53 -29.5 97t-88.5 44q-23 0 -46.5 -9t-42.5 -20 q-53 -33 -98 -93t-82 -137t-67.5 -163t-53 -171t-37 -161.5t-20.5 -134.5q-4 -39 -6 -75.5t-2 -75.5z" />
<glyph unicode="&#xe0;" horiz-adv-x="692" d="M-51 143q0 -70 46 -118t118 -48q37 0 69.5 14.5t61 39t51 54.5t39.5 60q20 -47 58 -79.5t91 -32.5q51 0 96.5 26.5t80 66.5t56 89t25.5 94l2 10q0 10 -7 19.5t-17 9.5q-23 0 -40 -39t-41 -85t-56.5 -84t-87.5 -38q-33 0 -54.5 20.5t-34 50.5t-16.5 62.5t-4 57.5 q0 29 7 58.5t7 58.5q0 23 -20 36q16 12 16 35q0 18 -10 30.5t-25.5 22t-33 13.5t-31.5 4q-61 0 -122.5 -42t-112 -104.5t-81 -133t-30.5 -128.5zM25 154q0 39 23.5 94t60 105t80.5 85t85 35q20 0 34 -7.5t30 -19.5q-23 -12 -29 -41.5t-6 -52.5q0 -16 3 -33.5t3 -33.5 q0 -35 -14 -76t-40 -76t-59.5 -58.5t-72.5 -23.5q-47 0 -72.5 29t-25.5 74zM66 813q0 -20 18 -35q12 -10 39 -33.5t56.5 -49t55 -45t35.5 -19.5q12 0 21.5 8t9.5 20q0 10 -27.5 41t-63.5 65t-68.5 60.5t-43.5 26.5q-16 0 -24 -12.5t-8 -26.5z" />
<glyph unicode="&#xe1;" horiz-adv-x="692" d="M-51 143q0 -70 46 -118t118 -48q37 0 69.5 14.5t61 39t51 54.5t39.5 60q20 -47 58 -79.5t91 -32.5q51 0 96.5 26.5t80 66.5t56 89t25.5 94l2 10q0 10 -7 19.5t-17 9.5q-23 0 -40 -39t-41 -85t-56.5 -84t-87.5 -38q-33 0 -54.5 20.5t-34 50.5t-16.5 62.5t-4 57.5 q0 29 7 58.5t7 58.5q0 23 -20 36q16 12 16 35q0 18 -10 30.5t-25.5 22t-33 13.5t-31.5 4q-61 0 -122.5 -42t-112 -104.5t-81 -133t-30.5 -128.5zM25 154q0 39 23.5 94t60 105t80.5 85t85 35q20 0 34 -7.5t30 -19.5q-23 -12 -29 -41.5t-6 -52.5q0 -16 3 -33.5t3 -33.5 q0 -35 -14 -76t-40 -76t-59.5 -58.5t-72.5 -23.5q-47 0 -72.5 29t-25.5 74zM201 684q0 -29 28 -29q12 0 41 15.5t60.5 36t60.5 41t43 28.5q21 14 21 41q0 14 -7.5 26.5t-23.5 12.5q-10 0 -37 -16.5t-57.5 -38t-58 -42t-40.5 -28.5q-12 -10 -21 -20.5t-9 -26.5z" />
<glyph unicode="&#xe2;" horiz-adv-x="692" d="M-51 143q0 -70 46 -118t118 -48q37 0 69.5 14.5t61 39t51 54.5t39.5 60q20 -47 58 -79.5t91 -32.5q51 0 96.5 26.5t80 66.5t56 89t25.5 94l2 10q0 10 -7 19.5t-17 9.5q-23 0 -40 -39t-41 -85t-56.5 -84t-87.5 -38q-33 0 -54.5 20.5t-34 50.5t-16.5 62.5t-4 57.5 q0 29 7 58.5t7 58.5q0 23 -20 36q16 12 16 35q0 18 -10 30.5t-25.5 22t-33 13.5t-31.5 4q-61 0 -122.5 -42t-112 -104.5t-81 -133t-30.5 -128.5zM25 154q0 39 23.5 94t60 105t80.5 85t85 35q20 0 34 -7.5t30 -19.5q-23 -12 -29 -41.5t-6 -52.5q0 -16 3 -33.5t3 -33.5 q0 -35 -14 -76t-40 -76t-59.5 -58.5t-72.5 -23.5q-47 0 -72.5 29t-25.5 74zM33 604q0 -23 24 -22q12 0 38 13t55.5 31.5t57.5 36t40 25.5q12 -8 36.5 -28.5t51 -41t50.5 -36t34 -15.5q26 0 26 27q0 12 -25.5 41t-58 57.5t-65.5 50t-45 21.5t-47 -20.5t-74 -47t-68.5 -53.5 t-29.5 -39z" />
<glyph unicode="&#xe3;" horiz-adv-x="692" d="M-51 143q0 -70 46 -118t118 -48q37 0 69.5 14.5t61 39t51 54.5t39.5 60q20 -47 58 -79.5t91 -32.5q51 0 96.5 26.5t80 66.5t56 89t25.5 94l2 10q0 10 -7 19.5t-17 9.5q-23 0 -40 -39t-41 -85t-56.5 -84t-87.5 -38q-33 0 -54.5 20.5t-34 50.5t-16.5 62.5t-4 57.5 q0 29 7 58.5t7 58.5q0 23 -20 36q16 12 16 35q0 18 -10 30.5t-25.5 22t-33 13.5t-31.5 4q-61 0 -122.5 -42t-112 -104.5t-81 -133t-30.5 -128.5zM25 154q0 39 23.5 94t60 105t80.5 85t85 35q20 0 34 -7.5t30 -19.5q-23 -12 -29 -41.5t-6 -52.5q0 -16 3 -33.5t3 -33.5 q0 -35 -14 -76t-40 -76t-59.5 -58.5t-72.5 -23.5q-47 0 -72.5 29t-25.5 74zM100 662q0 -12 8.5 -22.5t22.5 -10.5q12 0 23.5 9t21.5 21.5t21.5 23.5t23.5 13q14 -10 25.5 -22t22 -23.5t23.5 -19.5t34 -8q18 0 38.5 10t37 26.5t27.5 36t11 37.5q0 33 -32 33 q-14 0 -24.5 -11.5t-20 -23.5t-18.5 -23.5t-19 -11.5q-14 8 -24.5 20.5t-22 25t-24.5 20.5t-34 8q-16 0 -37.5 -10t-40 -26.5t-31 -35t-12.5 -36.5z" />
<glyph unicode="&#xe4;" horiz-adv-x="692" d="M-51 143q0 -70 46 -118t118 -48q37 0 69.5 14.5t61 39t51 54.5t39.5 60q20 -47 58 -79.5t91 -32.5q51 0 96.5 26.5t80 66.5t56 89t25.5 94l2 10q0 10 -7 19.5t-17 9.5q-23 0 -40 -39t-41 -85t-56.5 -84t-87.5 -38q-33 0 -54.5 20.5t-34 50.5t-16.5 62.5t-4 57.5 q0 29 7 58.5t7 58.5q0 23 -20 36q16 12 16 35q0 18 -10 30.5t-25.5 22t-33 13.5t-31.5 4q-61 0 -122.5 -42t-112 -104.5t-81 -133t-30.5 -128.5zM25 154q0 39 23.5 94t60 105t80.5 85t85 35q20 0 34 -7.5t30 -19.5q-23 -12 -29 -41.5t-6 -52.5q0 -16 3 -33.5t3 -33.5 q0 -35 -14 -76t-40 -76t-59.5 -58.5t-72.5 -23.5q-47 0 -72.5 29t-25.5 74zM90 686q0 -16 10.5 -25.5t26.5 -9.5q12 0 28.5 6.5t30 17.5t23.5 24.5t10 25.5q0 16 -12 29.5t-29 13.5q-31 0 -59.5 -25.5t-28.5 -56.5zM313 696q0 -23 16.5 -32t37.5 -9q10 0 25.5 6.5t28.5 15.5 t22.5 21.5t9.5 24.5q0 23 -23.5 32t-42.5 9q-20 0 -47 -22.5t-27 -45.5z" />
<glyph unicode="&#xe5;" horiz-adv-x="692" d="M-51 143q0 -70 46 -118t118 -48q37 0 69.5 14.5t61 39t51 54.5t39.5 60q20 -47 58 -79.5t91 -32.5q51 0 96.5 26.5t80 66.5t56 89t25.5 94l2 10q0 10 -7 19.5t-17 9.5q-23 0 -40 -39t-41 -85t-56.5 -84t-87.5 -38q-33 0 -54.5 20.5t-34 50.5t-16.5 62.5t-4 57.5 q0 29 7 58.5t7 58.5q0 23 -20 36q16 12 16 35q0 18 -10 30.5t-25.5 22t-33 13.5t-31.5 4q-61 0 -122.5 -42t-112 -104.5t-81 -133t-30.5 -128.5zM25 154q0 39 23.5 94t60 105t80.5 85t85 35q20 0 34 -7.5t30 -19.5q-23 -12 -29 -41.5t-6 -52.5q0 -16 3 -33.5t3 -33.5 q0 -35 -14 -76t-40 -76t-59.5 -58.5t-72.5 -23.5q-47 0 -72.5 29t-25.5 74zM125 756q0 -53 39 -92t92 -39t92 39t39 92t-39 92t-92 39t-92 -39t-39 -92zM186 756q0 29 20.5 49t49.5 20t49.5 -20t20.5 -49t-20.5 -49.5t-49.5 -20.5t-49.5 20.5t-20.5 49.5z" />
<glyph unicode="&#xe6;" horiz-adv-x="821" d="M-59 143q0 -70 47 -118t116 -48q70 0 126.5 48.5t88.5 105.5q18 -72 70.5 -118t128.5 -46q49 0 97.5 20.5t91.5 53.5t77.5 75t55.5 83q4 12 4 18q0 10 -7.5 19.5t-19.5 9.5q-10 0 -30.5 -31t-54.5 -66.5t-82 -66.5t-115 -31q-59 0 -97.5 33t-48.5 92q45 0 90 17.5t79 49 t55.5 73.5t21.5 90q0 45 -23.5 77.5t-70.5 32.5t-86 -26.5t-68 -61.5l-16 18q16 12 16 35q0 18 -10 30.5t-25.5 22t-33 13.5t-31.5 4q-61 0 -123 -42t-111 -104.5t-80.5 -133t-31.5 -128.5zM16 154q0 39 25 94t61.5 105t80.5 85t83 35q20 0 34 -7.5t30 -19.5 q-23 -12 -29 -41.5t-6 -52.5q0 -16 3 -33.5t3 -33.5q0 -35 -14.5 -76t-40 -76t-59 -58.5t-72.5 -23.5q-45 0 -72 29t-27 74zM389 260q2 27 11.5 59.5t25.5 62.5t42 49.5t58 19.5q20 0 31.5 -25t11.5 -41q0 -25 -13 -49.5t-32.5 -44t-45 -30.5t-50.5 -11q-10 0 -20.5 2 t-18.5 8z" />
<glyph unicode="&#xe7;" horiz-adv-x="614" d="M-16 293q0 -59 20.5 -108.5t57 -85.5t87 -56t109.5 -20q57 0 118.5 21.5t116 58t97.5 85t65 101.5q4 6 4 18q0 29 -26 29q-14 0 -41 -39t-69 -85t-101.5 -84t-138.5 -38q-98 0 -160 62.5t-62 160.5q0 37 14.5 85t41 90t63.5 71t80 29q16 0 35.5 -11.5t26.5 -27.5 q-2 -33 -14.5 -65.5t-12.5 -73.5q0 -10 1 -27.5t5 -34t12.5 -29t24.5 -12.5q23 0 37 23.5t23.5 55.5t12.5 63.5t3 48.5q0 20 -2 40.5t-11 41.5q2 12 -2 28.5t-20 16.5l-10 -2q-16 16 -40 27.5t-46 11.5q-63 0 -117.5 -36t-94.5 -91.5t-63.5 -120t-23.5 -121.5zM100 -250 q0 -25 29 -24q14 0 30.5 9t30 22.5t21.5 29.5t8 31q0 25 -11 46t-11 46q0 18 8 29.5t17 20.5t17.5 16.5t8.5 15.5q0 14 -11.5 20t-23.5 6q-37 0 -63.5 -34.5t-26.5 -69.5q0 -25 10 -47.5t10 -46.5q0 -12 -7 -21.5t-14 -16.5l-14.5 -14.5t-7.5 -17.5z" />
<glyph unicode="&#xe8;" horiz-adv-x="471" d="M-12 301q0 -47 13 -89t40 -76t65.5 -53.5t88.5 -19.5q47 0 96 20.5t92 53.5t78 75t55 83q4 12 4 16q0 10 -7 19.5t-19 9.5q-10 0 -34 -32t-58.5 -68.5t-84 -68.5t-110.5 -32t-96 37t-45 96q45 -4 89 15.5t79.5 52.5t57 76t21.5 88t-24.5 75.5t-71.5 30.5q-55 0 -97 -30.5 t-72 -76.5t-45 -100.5t-15 -101.5zM-4 881q0 -20 18 -35q12 -10 39 -34t56.5 -49.5t55 -45t36.5 -19.5q12 0 21 8.5t9 20.5q0 10 -27.5 41t-63.5 64.5t-68.5 60.5t-42.5 27q-16 0 -24.5 -12.5t-8.5 -26.5zM66 354q2 27 11 59.5t25.5 62.5t41 50.5t57.5 20.5q23 0 34 -25 t11 -43q0 -25 -13.5 -48t-33 -42.5t-44 -31t-49.5 -11.5t-40 8z" />
<glyph unicode="&#xe9;" horiz-adv-x="471" d="M-12 301q0 -47 13 -89t40 -76t65.5 -53.5t88.5 -19.5q47 0 96 20.5t92 53.5t78 75t55 83q4 12 4 16q0 10 -7 19.5t-19 9.5q-10 0 -34 -32t-58.5 -68.5t-84 -68.5t-110.5 -32t-96 37t-45 96q45 -4 89 15.5t79.5 52.5t57 76t21.5 88t-24.5 75.5t-71.5 30.5q-55 0 -97 -30.5 t-72 -76.5t-45 -100.5t-15 -101.5zM66 354q2 27 11 59.5t25.5 62.5t41 50.5t57.5 20.5q23 0 34 -25t11 -43q0 -25 -13.5 -48t-33 -42.5t-44 -31t-49.5 -11.5t-40 8zM170 731q0 -29 29 -29q12 0 40.5 15.5t60.5 36t60.5 41t42.5 28.5q21 14 21 41q0 14 -7 26.5t-24 12.5 q-10 0 -36.5 -16.5t-57.5 -38t-58.5 -42t-39.5 -28.5q-12 -10 -21.5 -20t-9.5 -27z" />
<glyph unicode="&#xea;" horiz-adv-x="471" d="M-23 655q0 -23 25 -22q12 0 38 13t55.5 31.5t57 36t40.5 25.5q12 -8 36.5 -28.5t51 -41t50 -36t34.5 -15.5q26 0 26 27q0 12 -25.5 41t-58.5 57.5t-65.5 50t-44.5 21.5t-47 -20.5t-74 -47t-69 -53t-30 -39.5zM-12 301q0 -47 13 -89t40 -76t65.5 -53.5t88.5 -19.5 q47 0 96 20.5t92 53.5t78 75t55 83q4 12 4 16q0 10 -7 19.5t-19 9.5q-10 0 -34 -32t-58.5 -68.5t-84 -68.5t-110.5 -32t-96 37t-45 96q45 -4 89 15.5t79.5 52.5t57 76t21.5 88t-24.5 75.5t-71.5 30.5q-55 0 -97 -30.5t-72 -76.5t-45 -100.5t-15 -101.5zM66 354q2 27 11 59.5 t25.5 62.5t41 50.5t57.5 20.5q23 0 34 -25t11 -43q0 -25 -13.5 -48t-33 -42.5t-44 -31t-49.5 -11.5t-40 8z" />
<glyph unicode="&#xeb;" horiz-adv-x="471" d="M-12 301q0 -47 13 -89t40 -76t65.5 -53.5t88.5 -19.5q47 0 96 20.5t92 53.5t78 75t55 83q4 12 4 16q0 10 -7 19.5t-19 9.5q-10 0 -34 -32t-58.5 -68.5t-84 -68.5t-110.5 -32t-96 37t-45 96q45 -4 89 15.5t79.5 52.5t57 76t21.5 88t-24.5 75.5t-71.5 30.5q-55 0 -97 -30.5 t-72 -76.5t-45 -100.5t-15 -101.5zM35 748q0 -16 10 -25.5t27 -9.5q12 0 28.5 6t29.5 17.5t23.5 24.5t10.5 25q0 16 -12.5 29.5t-28.5 13.5q-31 0 -59.5 -25.5t-28.5 -55.5zM66 354q2 27 11 59.5t25.5 62.5t41 50.5t57.5 20.5q23 0 34 -25t11 -43q0 -25 -13.5 -48t-33 -42.5 t-44 -31t-49.5 -11.5t-40 8zM258 758q0 -23 16.5 -32t36.5 -9q10 0 25.5 6t29 15.5t22.5 21.5t9 24q0 23 -23.5 32t-41.5 9q-20 0 -47 -22.5t-27 -44.5z" />
<glyph unicode="&#xec;" horiz-adv-x="346" d="M-84 768q0 -20 18 -35q12 -10 39 -33.5t56.5 -49t55.5 -45t36 -19.5q12 0 21.5 8t9.5 20q0 10 -28 41t-63.5 65t-68.5 60.5t-43 26.5q-16 0 -24.5 -12.5t-8.5 -26.5zM-25 195q0 -31 5.5 -62t18.5 -56.5t36.5 -41t60.5 -15.5q49 0 95.5 27t84 67t67.5 88t46 89q6 8 6 20 q0 27 -26 27q-18 0 -29 -21q-14 -25 -39 -62.5t-53.5 -74.5t-62 -62.5t-66.5 -25.5q-23 0 -36 10.5t-20.5 26.5t-9.5 34.5t-2 37.5q0 33 6 68.5t13.5 70.5t13.5 64.5t6 50.5q0 16 -8 26.5t-25 10.5q-12 0 -26 -11q-16 -12 -26.5 -50t-16.5 -83t-9.5 -89t-3.5 -64z" />
<glyph unicode="&#xed;" horiz-adv-x="346" d="M-25 195q0 -31 5.5 -62t18.5 -56.5t36.5 -41t60.5 -15.5q49 0 95.5 27t84 67t67.5 88t46 89q6 8 6 20q0 27 -26 27q-18 0 -29 -21q-14 -25 -39 -62.5t-53.5 -74.5t-62 -62.5t-66.5 -25.5q-23 0 -36 10.5t-20.5 26.5t-9.5 34.5t-2 37.5q0 33 6 68.5t13.5 70.5t13.5 64.5 t6 50.5q0 16 -8 26.5t-25 10.5q-12 0 -26 -11q-16 -12 -26.5 -50t-16.5 -83t-9.5 -89t-3.5 -64zM33 629q0 -29 28 -29q12 0 41 15.5t61 36t60.5 41t42.5 28.5q21 14 21 41q0 14 -7.5 26.5t-23.5 12.5q-10 0 -36.5 -16.5t-57.5 -38t-58.5 -42t-40.5 -28.5q-12 -10 -21 -20.5 t-9 -26.5z" />
<glyph unicode="&#xee;" horiz-adv-x="346" d="M-121 578q0 -23 25 -23q12 0 37.5 13.5t55.5 31.5t57.5 35.5t39.5 26.5q12 -8 37 -29t51.5 -41.5t50 -35.5t33.5 -15q27 -1 27 26q0 12 -25.5 41t-58.5 57.5t-65.5 50t-45.5 21.5q-12 0 -47 -20.5t-73.5 -47t-68.5 -53t-30 -38.5zM-25 195q0 -31 5.5 -62t18.5 -56.5 t36.5 -41t60.5 -15.5q49 0 95.5 27t84 67t67.5 88t46 89q6 8 6 20q0 27 -26 27q-18 0 -29 -21q-14 -25 -39 -62.5t-53.5 -74.5t-62 -62.5t-66.5 -25.5q-23 0 -36 10.5t-20.5 26.5t-9.5 34.5t-2 37.5q0 33 6 68.5t13.5 70.5t13.5 64.5t6 50.5q0 16 -8 26.5t-25 10.5 q-12 0 -26 -11q-16 -12 -26.5 -50t-16.5 -83t-9.5 -89t-3.5 -64z" />
<glyph unicode="&#xef;" horiz-adv-x="346" d="M-96 649q0 -16 10 -25.5t27 -9.5q12 0 28.5 6.5t29.5 17.5t23.5 24.5t10.5 25.5q0 16 -12.5 29.5t-28.5 13.5q-31 0 -59.5 -25.5t-28.5 -56.5zM-25 195q0 -31 5.5 -62t18.5 -56.5t36.5 -41t60.5 -15.5q49 0 95.5 27t84 67t67.5 88t46 89q6 8 6 20q0 27 -26 27 q-18 0 -29 -21q-14 -25 -39 -62.5t-53.5 -74.5t-62 -62.5t-66.5 -25.5q-23 0 -36 10.5t-20.5 26.5t-9.5 34.5t-2 37.5q0 33 6 68.5t13.5 70.5t13.5 64.5t6 50.5q0 16 -8 26.5t-25 10.5q-12 0 -26 -11q-16 -12 -26.5 -50t-16.5 -83t-9.5 -89t-3.5 -64zM127 659 q0 -23 16.5 -32t36.5 -9q10 0 25.5 6.5t29 15.5t22.5 21.5t9 24.5q0 23 -23.5 32t-41.5 9q-20 0 -47 -22.5t-27 -45.5z" />
<glyph unicode="&#xf0;" horiz-adv-x="890" d="M-27 252q0 -76 42 -131t103.5 -90t132.5 -52.5t130 -17.5q68 0 143.5 18.5t139 58.5t105.5 101.5t42 147.5q0 137 -56.5 268t-156.5 225q35 23 66.5 42.5t72.5 31.5q18 6 24.5 22.5t-1.5 31t-27.5 19.5t-50.5 -9q-33 -16 -71 -44t-64 -51q-57 45 -125 74t-141 29 q-23 0 -57 -7.5t-66.5 -20.5t-55 -34.5t-22.5 -50.5q0 -14 11 -28.5t28 -14.5q27 0 41 13.5t28 31.5q12 16 48 22.5t65 6.5q47 0 93 -18.5t91 -49.5q-53 -39 -98 -59.5t-108 -42.5q-16 -6 -18.5 -19.5t4.5 -28t20.5 -23.5t29.5 -5q18 4 49 20.5t64 38t62.5 43t46.5 35.5 q63 -59 109 -133t63 -151q-74 27 -143.5 45t-153.5 18q-53 0 -129 -11t-144.5 -40t-117 -80t-48.5 -131zM55 244q0 53 36 91t89 62.5t112.5 35.5t108.5 11q14 0 64.5 -6t108 -18t103.5 -28.5t52 -37.5q4 -10 4 -24v-27q0 -68 -30.5 -119t-80 -86t-113 -52t-128.5 -17 q-49 0 -106.5 14t-106.5 41t-81 66.5t-32 93.5z" />
<glyph unicode="&#xf1;" horiz-adv-x="681" d="M-63 84q0 -14 10 -28.5t26 -14.5q14 0 47 46t75 102.5t86 102.5t83 46q18 0 24.5 -26.5t8.5 -66.5t5 -86t17.5 -86t43 -66.5t81.5 -26.5q47 0 91.5 32.5t82 79.5t65.5 99.5t42 91.5q4 6 4 20q0 12 -7 21.5t-20 9.5q-20 0 -42.5 -43t-50 -93.5t-63.5 -93.5t-83 -43 q-39 0 -55.5 26t-21.5 66t-5 85t-7 84.5t-25.5 65.5t-59.5 26q-31 0 -62.5 -16.5t-60.5 -40t-54.5 -51t-43.5 -50.5q0 18 2 61t-1 89.5t-14.5 81t-36.5 34.5q-23 0 -36 -17.5t-13 -39.5q0 -41 6.5 -83t6.5 -83q0 -18 -1 -45t-5.5 -53.5t-10.5 -51t-18 -40.5q-10 -14 -10 -25 zM82 573q0 -12 8 -22t23 -10q12 0 23 9t21.5 21.5t21.5 23.5t24 13q14 -10 25.5 -22.5t21.5 -23.5t23.5 -19t33.5 -8q18 0 39 10t37 26.5t27.5 36t11.5 37.5q0 33 -33 33q-14 0 -24.5 -11.5t-19.5 -23.5t-18.5 -23.5t-19.5 -11.5q-14 8 -24.5 20.5t-21.5 25t-24.5 20.5 t-33.5 8q-16 0 -38 -10t-40.5 -26.5t-30.5 -35t-12 -37.5z" />
<glyph unicode="&#xf2;" horiz-adv-x="694" d="M-33 215q0 -47 16.5 -88t45 -71.5t68.5 -49t87 -18.5q45 0 91.5 14t87 40t74.5 59.5t55 74.5q31 -4 68.5 1t72.5 20.5t62.5 39t37.5 56.5l3 6t1 6q0 10 -7 17.5t-17 7.5t-23.5 -14.5t-34 -32t-50.5 -31.5t-68 -14q-14 0 -21 2q10 35 10 67q0 23 -6 52.5t-19.5 56t-34 45 t-46.5 20.5q-12 0 -19 2q-4 12 -17 18.5t-29.5 9.5t-32.5 3h-27q-61 0 -119.5 -22.5t-104.5 -62.5t-75 -95t-29 -119zM51 221q0 51 18.5 94t51.5 74t77 47.5t95 16.5h8q-16 -33 -16 -68q0 -63 41 -110.5t94 -75.5q-14 -29 -38 -55.5t-52.5 -48t-60 -35t-64.5 -13.5 q-35 0 -63.5 14.5t-49 39t-31 56t-10.5 64.5zM131 805q0 -20 19 -35q12 -10 38.5 -33.5t56 -49t55.5 -45t36 -19.5q12 0 21.5 8t9.5 20q0 10 -28 41t-63.5 65t-68.5 60.5t-43 26.5q-16 0 -24.5 -12.5t-8.5 -26.5zM358 369q0 12 5.5 26.5t21.5 14.5q14 0 26.5 -11.5t20.5 -27 t13.5 -32t5.5 -28.5q0 -14 -2.5 -26.5t-6.5 -24.5q-31 16 -57.5 44t-26.5 65z" />
<glyph unicode="&#xf3;" horiz-adv-x="694" d="M-33 215q0 -47 16.5 -88t45 -71.5t68.5 -49t87 -18.5q45 0 91.5 14t87 40t74.5 59.5t55 74.5q31 -4 68.5 1t72.5 20.5t62.5 39t37.5 56.5l3 6t1 6q0 10 -7 17.5t-17 7.5t-23.5 -14.5t-34 -32t-50.5 -31.5t-68 -14q-14 0 -21 2q10 35 10 67q0 23 -6 52.5t-19.5 56t-34 45 t-46.5 20.5q-12 0 -19 2q-4 12 -17 18.5t-29.5 9.5t-32.5 3h-27q-61 0 -119.5 -22.5t-104.5 -62.5t-75 -95t-29 -119zM51 221q0 51 18.5 94t51.5 74t77 47.5t95 16.5h8q-16 -33 -16 -68q0 -63 41 -110.5t94 -75.5q-14 -29 -38 -55.5t-52.5 -48t-60 -35t-64.5 -13.5 q-35 0 -63.5 14.5t-49 39t-31 56t-10.5 64.5zM274 651q0 -29 29 -28q12 0 41 15t60.5 35.5t60.5 41t43 28.5q20 14 20 41q0 14 -7 26.5t-23 12.5q-10 0 -37 -16t-57.5 -37.5t-58.5 -42t-40 -29.5q-12 -10 -21.5 -20t-9.5 -27zM358 369q0 12 5.5 26.5t21.5 14.5 q14 0 26.5 -11.5t20.5 -27t13.5 -32t5.5 -28.5q0 -14 -2.5 -26.5t-6.5 -24.5q-31 16 -57.5 44t-26.5 65z" />
<glyph unicode="&#xf4;" horiz-adv-x="694" d="M-33 215q0 -47 16.5 -88t45 -71.5t68.5 -49t87 -18.5q45 0 91.5 14t87 40t74.5 59.5t55 74.5q31 -4 68.5 1t72.5 20.5t62.5 39t37.5 56.5l3 6t1 6q0 10 -7 17.5t-17 7.5t-23.5 -14.5t-34 -32t-50.5 -31.5t-68 -14q-14 0 -21 2q10 35 10 67q0 23 -6 52.5t-19.5 56t-34 45 t-46.5 20.5q-12 0 -19 2q-4 12 -17 18.5t-29.5 9.5t-32.5 3h-27q-61 0 -119.5 -22.5t-104.5 -62.5t-75 -95t-29 -119zM51 221q0 51 18.5 94t51.5 74t77 47.5t95 16.5h8q-16 -33 -16 -68q0 -63 41 -110.5t94 -75.5q-14 -29 -38 -55.5t-52.5 -48t-60 -35t-64.5 -13.5 q-35 0 -63.5 14.5t-49 39t-31 56t-10.5 64.5zM82 575q0 -23 24 -22q12 0 38 13.5t55.5 31.5t57.5 35.5t40 25.5q12 -8 36.5 -28.5t51.5 -41t50.5 -35.5t33.5 -15q27 -1 27 26q0 12 -26 41t-58.5 57.5t-65.5 50t-45 21.5t-47 -20.5t-74 -47t-68.5 -53t-29.5 -39.5zM358 369 q0 12 5.5 26.5t21.5 14.5q14 0 26.5 -11.5t20.5 -27t13.5 -32t5.5 -28.5q0 -14 -2.5 -26.5t-6.5 -24.5q-31 16 -57.5 44t-26.5 65z" />
<glyph unicode="&#xf5;" horiz-adv-x="694" d="M-33 215q0 -47 16.5 -88t45 -71.5t68.5 -49t87 -18.5q45 0 91.5 14t87 40t74.5 59.5t55 74.5q31 -4 68.5 1t72.5 20.5t62.5 39t37.5 56.5l3 6t1 6q0 10 -7 17.5t-17 7.5t-23.5 -14.5t-34 -32t-50.5 -31.5t-68 -14q-14 0 -21 2q10 35 10 67q0 23 -6 52.5t-19.5 56t-34 45 t-46.5 20.5q-12 0 -19 2q-4 12 -17 18.5t-29.5 9.5t-32.5 3h-27q-61 0 -119.5 -22.5t-104.5 -62.5t-75 -95t-29 -119zM51 221q0 51 18.5 94t51.5 74t77 47.5t95 16.5h8q-16 -33 -16 -68q0 -63 41 -110.5t94 -75.5q-14 -29 -38 -55.5t-52.5 -48t-60 -35t-64.5 -13.5 q-35 0 -63.5 14.5t-49 39t-31 56t-10.5 64.5zM133 635q0 -12 8.5 -22.5t22.5 -10.5q12 0 23.5 9.5t21.5 21.5t21.5 23.5t23.5 13.5q14 -10 25.5 -22.5t21.5 -24t23.5 -19.5t33.5 -8q18 0 39 10t37.5 26.5t27.5 36.5t11 38q0 33 -33 32q-14 0 -24 -11t-19.5 -23.5 t-18.5 -23.5t-20 -11q-14 8 -24 20t-21.5 24.5t-25 20.5t-33.5 8q-16 0 -37.5 -10t-40 -26.5t-31 -35t-12.5 -36.5zM358 369q0 12 5.5 26.5t21.5 14.5q14 0 26.5 -11.5t20.5 -27t13.5 -32t5.5 -28.5q0 -14 -2.5 -26.5t-6.5 -24.5q-31 16 -57.5 44t-26.5 65z" />
<glyph unicode="&#xf6;" horiz-adv-x="694" d="M-33 215q0 -47 16.5 -88t45 -71.5t68.5 -49t87 -18.5q45 0 91.5 14t87 40t74.5 59.5t55 74.5q31 -4 68.5 1t72.5 20.5t62.5 39t37.5 56.5l3 6t1 6q0 10 -7 17.5t-17 7.5t-23.5 -14.5t-34 -32t-50.5 -31.5t-68 -14q-14 0 -21 2q10 35 10 67q0 23 -6 52.5t-19.5 56t-34 45 t-46.5 20.5q-12 0 -19 2q-4 12 -17 18.5t-29.5 9.5t-32.5 3h-27q-61 0 -119.5 -22.5t-104.5 -62.5t-75 -95t-29 -119zM51 221q0 51 18.5 94t51.5 74t77 47.5t95 16.5h8q-16 -33 -16 -68q0 -63 41 -110.5t94 -75.5q-14 -29 -38 -55.5t-52.5 -48t-60 -35t-64.5 -13.5 q-35 0 -63.5 14.5t-49 39t-31 56t-10.5 64.5zM113 649q0 -16 10 -25.5t27 -9.5q12 0 28.5 6.5t29.5 17.5t23.5 24.5t10.5 25.5q0 16 -12.5 29.5t-28.5 13.5q-31 0 -59.5 -25.5t-28.5 -56.5zM336 659q0 -23 16.5 -32t36.5 -9q10 0 25.5 6.5t29 15.5t22.5 21.5t9 24.5 q0 23 -23.5 32t-41.5 9q-20 0 -47 -22.5t-27 -45.5zM358 369q0 12 5.5 26.5t21.5 14.5q14 0 26.5 -11.5t20.5 -27t13.5 -32t5.5 -28.5q0 -14 -2.5 -26.5t-6.5 -24.5q-31 16 -57.5 44t-26.5 65z" />
<glyph unicode="&#xf7;" d="M76 373h565v67h-565v-67zM281 137q0 -18 13 -29.5t32 -11.5q14 0 33.5 8.5t37 21.5t29.5 30.5t12 33.5q0 14 -11 22.5t-26 8.5q-12 0 -21 -4t-20 -4q-4 4 -8 7t-8 3q-23 -10 -43 -33.5t-20 -52.5zM281 633q0 -18 13 -29.5t32 -11.5q14 0 33.5 8t37 21.5t29.5 30t12 32.5 t-11 24.5t-26 8.5q-12 0 -21 -5t-20 -5q-8 12 -16 12q-23 -10 -43 -33.5t-20 -52.5z" />
<glyph unicode="&#xf8;" horiz-adv-x="694" d="M-66 -154q0 -29 31 -28q25 0 44.5 20.5t23.5 44.5q16 31 30.5 61.5t36.5 57.5q37 -14 84 -14q45 0 91.5 14t87 40t74.5 59.5t55 74.5q33 -4 69.5 1t70.5 19.5t61.5 38t39.5 58.5q4 8 4 14q0 10 -7 16.5t-17 6.5t-23.5 -14.5t-34 -32t-50.5 -31.5t-68 -14q-14 0 -21 2 q10 35 10 67q0 45 -17 92t-58 72q6 10 23.5 32.5t33.5 48.5t29.5 48.5t13.5 32.5q0 16 -11.5 24.5t-25.5 8.5q-31 0 -44 -27t-24 -49q-12 -25 -26 -45.5t-31 -42.5q-23 8 -47.5 10t-46.5 2q-61 0 -119.5 -22.5t-104.5 -62.5t-75 -95t-29 -119q0 -51 21.5 -98t58.5 -82 q-8 -12 -26.5 -39t-38 -55.5t-34 -55t-14.5 -39.5zM51 221q0 51 19.5 94t53.5 74t78 47.5t95 16.5h4q-10 -16 -13 -34t-3 -34q0 -8 1 -14t1 -15q-47 -66 -96.5 -130t-96.5 -130q-23 27 -33 59.5t-10 65.5zM143 63q41 57 84 113.5t86 116.5q18 -31 46 -54.5t61 -39.5 q-14 -29 -38 -55.5t-52.5 -48t-60 -35t-64.5 -13.5t-62 16zM360 354q10 12 19.5 25.5t17.5 26.5q27 -14 40.5 -40t13.5 -55q0 -12 -2.5 -25.5t-6.5 -25.5q-29 14 -52 38t-30 56z" />
<glyph unicode="&#xf9;" horiz-adv-x="747" d="M-29 193q0 -33 6.5 -66t21.5 -58.5t39.5 -42t63.5 -16.5q33 0 67 14.5t65.5 36t60.5 46t51 47.5q20 -49 67.5 -85t102.5 -36q39 0 82 26.5t81 65.5t68.5 82t45.5 76q4 12 4 16q0 27 -27 27q-20 0 -42.5 -34t-51.5 -74t-67 -73.5t-89 -33.5q-20 0 -39.5 11t-36 27.5 t-26.5 38t-10 39.5q0 12 9 32t20.5 42.5t20.5 49t9 55.5q0 18 -9 37.5t-32 19.5q-29 0 -47.5 -28.5t-28.5 -66.5t-15 -77t-5 -58q-16 -23 -40 -48t-51.5 -48.5t-57 -39t-58.5 -15.5q-23 0 -37 11t-23.5 28.5t-13.5 38t-4 39.5q0 14 3 36.5t7 47t11.5 46t13.5 33.5 q10 18 25.5 44t15.5 49q0 37 -37 37q-29 0 -49.5 -38t-34.5 -88.5t-21.5 -100.5t-7.5 -72zM92 721q0 -20 19 -35q12 -10 38.5 -33.5t56.5 -49t55.5 -45t35.5 -19.5q12 0 21.5 8t9.5 20q0 10 -28 41t-63.5 65t-68.5 60.5t-43 26.5q-16 0 -24.5 -12.5t-8.5 -26.5z" />
<glyph unicode="&#xfa;" horiz-adv-x="747" d="M-29 193q0 -33 6.5 -66t21.5 -58.5t39.5 -42t63.5 -16.5q33 0 67 14.5t65.5 36t60.5 46t51 47.5q20 -49 67.5 -85t102.5 -36q39 0 82 26.5t81 65.5t68.5 82t45.5 76q4 12 4 16q0 27 -27 27q-20 0 -42.5 -34t-51.5 -74t-67 -73.5t-89 -33.5q-20 0 -39.5 11t-36 27.5 t-26.5 38t-10 39.5q0 12 9 32t20.5 42.5t20.5 49t9 55.5q0 18 -9 37.5t-32 19.5q-29 0 -47.5 -28.5t-28.5 -66.5t-15 -77t-5 -58q-16 -23 -40 -48t-51.5 -48.5t-57 -39t-58.5 -15.5q-23 0 -37 11t-23.5 28.5t-13.5 38t-4 39.5q0 14 3 36.5t7 47t11.5 46t13.5 33.5 q10 18 25.5 44t15.5 49q0 37 -37 37q-29 0 -49.5 -38t-34.5 -88.5t-21.5 -100.5t-7.5 -72zM205 596q0 -29 28 -29q12 0 41 15.5t61 36t60.5 41t42.5 28.5q21 14 21 41q0 14 -7.5 26.5t-23.5 12.5q-10 0 -36.5 -16.5t-57.5 -38t-58.5 -42t-39.5 -28.5q-12 -10 -21.5 -20.5 t-9.5 -26.5z" />
<glyph unicode="&#xfb;" horiz-adv-x="747" d="M-29 193q0 -33 6.5 -66t21.5 -58.5t39.5 -42t63.5 -16.5q33 0 67 14.5t65.5 36t60.5 46t51 47.5q20 -49 67.5 -85t102.5 -36q39 0 82 26.5t81 65.5t68.5 82t45.5 76q4 12 4 16q0 27 -27 27q-20 0 -42.5 -34t-51.5 -74t-67 -73.5t-89 -33.5q-20 0 -39.5 11t-36 27.5 t-26.5 38t-10 39.5q0 12 9 32t20.5 42.5t20.5 49t9 55.5q0 18 -9 37.5t-32 19.5q-29 0 -47.5 -28.5t-28.5 -66.5t-15 -77t-5 -58q-16 -23 -40 -48t-51.5 -48.5t-57 -39t-58.5 -15.5q-23 0 -37 11t-23.5 28.5t-13.5 38t-4 39.5q0 14 3 36.5t7 47t11.5 46t13.5 33.5 q10 18 25.5 44t15.5 49q0 37 -37 37q-29 0 -49.5 -38t-34.5 -88.5t-21.5 -100.5t-7.5 -72zM33 565q0 -23 24 -22q12 0 38 13t55.5 31.5t57.5 36t40 25.5q12 -8 36.5 -28.5t51 -41t50.5 -36t34 -15.5q26 0 26 27q0 12 -25.5 41t-58 57.5t-65.5 50t-45 21.5t-47 -20.5t-74 -47 t-68.5 -53t-29.5 -39.5z" />
<glyph unicode="&#xfc;" horiz-adv-x="747" d="M-29 193q0 -33 6.5 -66t21.5 -58.5t39.5 -42t63.5 -16.5q33 0 67 14.5t65.5 36t60.5 46t51 47.5q20 -49 67.5 -85t102.5 -36q39 0 82 26.5t81 65.5t68.5 82t45.5 76q4 12 4 16q0 27 -27 27q-20 0 -42.5 -34t-51.5 -74t-67 -73.5t-89 -33.5q-20 0 -39.5 11t-36 27.5 t-26.5 38t-10 39.5q0 12 9 32t20.5 42.5t20.5 49t9 55.5q0 18 -9 37.5t-32 19.5q-29 0 -47.5 -28.5t-28.5 -66.5t-15 -77t-5 -58q-16 -23 -40 -48t-51.5 -48.5t-57 -39t-58.5 -15.5q-23 0 -37 11t-23.5 28.5t-13.5 38t-4 39.5q0 14 3 36.5t7 47t11.5 46t13.5 33.5 q10 18 25.5 44t15.5 49q0 37 -37 37q-29 0 -49.5 -38t-34.5 -88.5t-21.5 -100.5t-7.5 -72zM104 612q0 -16 10.5 -25t26.5 -9q12 0 28.5 6t30 17t23.5 24.5t10 25.5q0 16 -12 29.5t-28 13.5q-31 0 -60 -25.5t-29 -56.5zM328 623q0 -23 16 -32t37 -9q10 0 25.5 6t29 15 t22.5 21.5t9 24.5q0 23 -23.5 32t-42.5 9q-20 0 -46.5 -22.5t-26.5 -44.5z" />
<glyph unicode="&#xfd;" horiz-adv-x="702" d="M-100 -451q0 -66 27.5 -110.5t71.5 -72.5t100.5 -40t111.5 -12q147 0 225 65.5t78 219.5q0 102 -26.5 210.5t-59.5 206.5q25 20 77 57.5t105.5 79.5t93 83.5t39.5 74.5q0 12 -6 22.5t-20 10.5q-12 0 -18.5 -6t-12.5 -16q-23 -35 -55.5 -69t-70.5 -64.5t-77 -57.5t-75 -47 q-6 29 -14.5 57.5t-8.5 59.5q0 16 8 39.5t18.5 53.5t18.5 62.5t8 65.5q0 8 -1 20.5t-5 24.5t-11 20.5t-20 8.5q-29 0 -48 -31t-30.5 -72t-16.5 -82t-5 -61v-23q0 -10 2 -20q-35 -47 -93 -89t-120 -42q-39 0 -59.5 16.5t-20.5 57.5q0 59 31 126.5t63 116.5q27 14 27 43 q0 27 -29 27q-31 0 -60.5 -43t-54 -100.5t-39 -112.5t-14.5 -82q0 -55 38 -89t91 -34q33 0 68 11.5t66.5 28.5t61.5 38.5t54 42.5q4 -18 10.5 -43t10.5 -43q-59 -37 -135 -87t-142.5 -111.5t-111.5 -134.5t-45 -155zM-20 -449q0 70 38.5 133.5t96 119t123 100.5t118.5 73 q31 -90 59.5 -197.5t28.5 -203.5q0 -109 -51 -154t-155 -45q-43 0 -89.5 7.5t-83 27t-61 53t-24.5 86.5zM205 602q0 -29 28 -29q12 0 41 15.5t61 36t60.5 41t42.5 28.5q21 14 21 41q0 14 -7.5 26.5t-23.5 12.5q-10 0 -36.5 -16.5t-57.5 -38t-58.5 -42t-39.5 -28.5 q-12 -10 -21.5 -20.5t-9.5 -26.5z" />
<glyph unicode="&#xfe;" horiz-adv-x="675" d="M-145 -193q0 -39 4 -87t16 -97t32.5 -93t53.5 -75q14 -14 35 -14q18 0 35 16q33 39 41 196t2 470q51 -23 105 -36t112 -13q104 0 204.5 41t172.5 116q12 12 30.5 35t18.5 39q0 23 -16.5 26t-32.5 -9q-41 -37 -82 -73t-90 -65q20 25 31.5 52.5t11.5 62.5q0 47 -11.5 92 t-36 80t-64.5 56.5t-97 21.5q-45 0 -87 -13.5t-81 -35.5q39 57 74.5 122.5t62.5 134t42 138.5t15 137q0 20 -2 46t-10 47.5t-25.5 37t-46.5 15.5q-41 0 -67 -27q-63 -59 -104.5 -163.5t-66 -226.5t-35.5 -243t-13 -213q-66 -117 -98.5 -239.5t-32.5 -258.5zM-78 -158 q0 27 5 76t14.5 101.5t22.5 98.5t30 64q4 6 11 -3t7 -29q0 -139 1 -232.5t-1 -159t-6 -111.5t-14 -87v-2q-18 6 -31.5 46t-22 89t-12.5 93t-4 56zM61 477q8 66 22.5 151t34 169t46 157.5t59.5 116.5q6 8 17.5 20.5t21.5 12.5q8 0 16.5 -22.5t8.5 -77.5q0 -68 -18.5 -138.5 t-49.5 -138.5t-72 -131.5t-86 -118.5zM71 255q-1 15 0 30.5t1 25.5q2 33 28.5 62.5t62.5 51t74.5 34t67.5 12.5q39 0 67.5 -16.5t48 -43t29 -61t9.5 -71.5t-18.5 -63t-48.5 -41t-65.5 -21.5t-72.5 -6.5q-47 0 -91 14.5t-79 45.5q-6 6 -9 19.5t-4 28.5z" />
<glyph unicode="&#xff;" horiz-adv-x="702" d="M-100 -451q0 -66 27.5 -110.5t71.5 -72.5t100.5 -40t111.5 -12q147 0 225 65.5t78 219.5q0 102 -26.5 210.5t-59.5 206.5q25 20 77 57.5t105.5 79.5t93 83.5t39.5 74.5q0 12 -6 22.5t-20 10.5q-12 0 -18.5 -6t-12.5 -16q-23 -35 -55.5 -69t-70.5 -64.5t-77 -57.5t-75 -47 q-6 29 -14.5 57.5t-8.5 59.5q0 16 8 39.5t18.5 53.5t18.5 62.5t8 65.5q0 8 -1 20.5t-5 24.5t-11 20.5t-20 8.5q-29 0 -48 -31t-30.5 -72t-16.5 -82t-5 -61v-23q0 -10 2 -20q-35 -47 -93 -89t-120 -42q-39 0 -59.5 16.5t-20.5 57.5q0 59 31 126.5t63 116.5q27 14 27 43 q0 27 -29 27q-31 0 -60.5 -43t-54 -100.5t-39 -112.5t-14.5 -82q0 -55 38 -89t91 -34q33 0 68 11.5t66.5 28.5t61.5 38.5t54 42.5q4 -18 10.5 -43t10.5 -43q-59 -37 -135 -87t-142.5 -111.5t-111.5 -134.5t-45 -155zM-20 -449q0 70 38.5 133.5t96 119t123 100.5t118.5 73 q31 -90 59.5 -197.5t28.5 -203.5q0 -109 -51 -154t-155 -45q-43 0 -89.5 7.5t-83 27t-61 53t-24.5 86.5zM61 621q0 -16 10.5 -25.5t26.5 -9.5q12 0 28.5 6t30 17.5t23.5 24.5t10 25q0 16 -12 29.5t-28 13.5q-31 0 -60 -25.5t-29 -55.5zM285 631q0 -23 16 -32t37 -9 q10 0 25.5 6t29 15.5t22.5 21.5t9 24q0 23 -23.5 32t-42.5 9q-20 0 -46.5 -22.5t-26.5 -44.5z" />
<glyph unicode="&#x152;" horiz-adv-x="2402" d="M-10 494q0 -115 48 -213.5t128 -170t183.5 -112.5t213.5 -41q106 0 207.5 28.5t194.5 86.5q29 -41 91 -63.5t135 -33t144.5 -13.5t118.5 -3q174 0 337 32t329 85q35 12 70.5 23.5t70.5 25.5q12 6 21.5 15.5t9.5 25.5q0 27 -29 27q-4 0 -16 -5q-188 -72 -383 -117.5 t-398 -45.5q-37 0 -99 5t-125.5 16t-118 31.5t-76.5 51.5q66 55 125 129t85 158q39 20 85.5 37.5t95.5 31t97 21.5t91 8q47 0 94 -6t95 -6q20 0 38.5 10t18.5 33q0 20 -17.5 32.5t-42 18.5t-50 7t-40.5 1q-43 0 -85 -5t-83 -13q-66 12 -131 28.5t-127 40.5q-6 90 -41.5 171 t-101.5 143q45 29 101.5 48t114.5 30.5t116.5 16.5t111.5 5t134 -8t162 -29.5t145.5 -58.5t85.5 -96q-10 -4 -19.5 -9.5t-9.5 -17.5q0 -20 20.5 -25.5t32.5 -5.5t28.5 3t32 10.5t27 18.5t11.5 28q0 14 -15 32q-51 68 -125.5 112t-159.5 70.5t-174.5 37t-168.5 10.5 q-129 0 -265.5 -23.5t-246.5 -93.5q-82 59 -178.5 87t-196.5 28q-72 0 -158 -15.5t-169 -45t-157.5 -72.5t-123.5 -99q-8 -10 -16.5 -21.5t-8.5 -25.5q0 -16 12 -24q-47 -78 -76.5 -164t-29.5 -178zM61 512q0 119 52.5 218t138.5 171t194.5 112t219.5 40q55 0 100 -13.5 t79 -29t57.5 -27.5t33.5 -12q16 0 25.5 10t9.5 27v4l61 -37q-25 -25 -41 -55.5t-16 -65.5q0 -47 25.5 -85t64.5 -68.5t82 -53t80 -37.5q-4 -80 -27 -147q-39 -23 -85 -53.5t-86 -70.5t-66.5 -86t-26.5 -97q0 -6 1 -12.5t1 -10.5q-72 -49 -158 -73.5t-174 -24.5 q-104 0 -202.5 31.5t-174 93t-122 150.5t-46.5 202zM1032 209q10 41 45 77.5t70 63.5q-23 -41 -52.5 -75.5t-62.5 -65.5zM1063 854q0 37 31 68q102 -96 127 -232q-23 10 -49.5 26.5t-51 38t-41 46t-16.5 53.5zM1284 504q8 39 12 80q29 -8 57.5 -16.5t57.5 -14.5 q-68 -23 -127 -49z" />
<glyph unicode="&#x153;" horiz-adv-x="966" d="M-33 215q0 -47 16.5 -88t45 -71.5t68.5 -49t87 -18.5q80 0 159 43t126 108q16 -72 69.5 -121t131.5 -49q47 0 96 20.5t93 53.5t79 75t53 83q4 12 4 16q0 10 -7 20.5t-19 10.5q-10 0 -34 -32t-59.5 -69.5t-85 -69.5t-110.5 -32q-59 0 -94 38t-45 93q45 0 89 18.5t79.5 49 t57 72.5t21.5 90q0 43 -24.5 77.5t-71.5 34.5q-59 0 -106 -40t-76 -89q-25 61 -88.5 93t-126.5 32q-61 0 -120.5 -22.5t-105.5 -62.5t-74 -95t-28 -119zM51 221q0 111 73 171.5t177 60.5q-10 -16 -13 -34t-3 -34q0 -63 41 -110t92 -76q-14 -29 -38 -55.5t-53.5 -47 t-61.5 -34t-64 -13.5q-35 0 -62.5 14.5t-47 39t-30 55t-10.5 63.5zM358 369q0 12 5.5 26.5t21.5 14.5q14 0 26.5 -11.5t20.5 -27t13.5 -32t5.5 -28.5q0 -14 -2.5 -26.5t-6.5 -24.5q-31 16 -57.5 44t-26.5 65zM541 242v10q-2 29 7 63.5t27.5 65.5t44 51.5t60.5 20.5 q23 0 31 -21t8 -37q0 -35 -15.5 -63.5t-41 -49t-57.5 -31.5t-64 -9z" />
<glyph unicode="&#x178;" horiz-adv-x="1165" d="M25 406q0 -115 64.5 -180.5t178.5 -65.5q80 0 162 33.5t157 86t140.5 116t112.5 122.5q4 -117 17 -231.5t15 -231.5q-39 -49 -84 -113.5t-82.5 -135t-63.5 -143.5t-26 -138q0 -33 8.5 -65.5t25 -59.5t44 -43t64.5 -16q49 0 82.5 31.5t55.5 82.5t33 113.5t16 125t5 118.5 v86v73q0 35 -2 70q10 14 35 46t52.5 63.5t54 58.5t38.5 31q23 8 33 13t10 36q0 16 -15 23t-28 7q-16 0 -42.5 -22.5t-54 -51t-52.5 -58t-37 -42.5q-6 98 -14 197.5t-8 198.5q0 23 -1 51.5t5 48.5q4 16 14 34.5t18 35.5q31 66 48.5 123t17.5 131q0 20 -10.5 35.5t-32.5 15.5 q-16 0 -25.5 -8.5t-17.5 -20.5q-45 -70 -64.5 -148.5t-27.5 -158.5q-2 -18 -4 -26.5t-13 -24.5q-37 -63 -95 -133t-131 -129.5t-152.5 -98.5t-157.5 -39q-94 0 -145.5 57.5t-51.5 149.5q0 63 19.5 135t49.5 140.5t67.5 133t74.5 118.5q18 -2 35.5 12t31 35.5t20.5 44t7 39.5 q0 39 -37 39q-27 0 -45 -25q-51 -59 -103 -147.5t-94 -184.5t-68.5 -193.5t-26.5 -176.5zM506 1219q0 -16 10 -25.5t27 -9.5q12 0 28.5 6t29.5 17.5t23.5 24.5t10.5 25q0 16 -12.5 29.5t-28.5 13.5q-31 0 -59.5 -25.5t-28.5 -55.5zM690 -475q0 51 18.5 108.5t46 113.5 t60.5 106.5t64 91.5q0 -35 1 -70t1 -70q0 -31 -2 -97t-13.5 -135t-35 -121t-66.5 -52q-23 0 -37 13.5t-22.5 32.5t-11.5 40.5t-3 38.5zM729 1229q0 -23 16.5 -32t36.5 -9q10 0 25.5 6t29 15.5t22.5 21.5t9 24q0 23 -23.5 32t-41.5 9q-20 0 -47 -22.5t-27 -44.5z" />
<glyph unicode="&#x2c6;" horiz-adv-x="512" d="M70 651q0 -23 24 -22q12 0 38 13t55.5 31.5t57 36t40.5 25.5q12 -8 36.5 -28.5t51 -41t50 -36t34.5 -15.5q26 0 26 27q0 12 -25.5 41t-58 57.5t-65.5 50t-45 21.5t-47 -20.5t-74 -47t-68.5 -53t-29.5 -39.5z" />
<glyph unicode="&#x2dc;" horiz-adv-x="512" d="M94 643q0 -23 27 -22q14 0 26.5 9t24.5 21.5t24.5 23.5t26.5 13q16 -10 28.5 -22.5t25 -23.5t26.5 -19.5t37 -8.5q18 0 39.5 11.5t40 28t31 38t12.5 39.5q0 27 -29 27q-16 0 -28.5 -11.5t-22.5 -23.5t-20.5 -23.5t-20.5 -11.5q-16 8 -28.5 20.5t-26 24.5t-28.5 20.5 t-36 8.5q-16 0 -38.5 -12.5t-42 -31t-34 -39t-14.5 -36.5z" />
<glyph unicode="&#x2000;" horiz-adv-x="847" />
<glyph unicode="&#x2001;" horiz-adv-x="1694" />
<glyph unicode="&#x2002;" horiz-adv-x="847" />
<glyph unicode="&#x2003;" horiz-adv-x="1694" />
<glyph unicode="&#x2004;" horiz-adv-x="564" />
<glyph unicode="&#x2005;" horiz-adv-x="423" />
<glyph unicode="&#x2006;" horiz-adv-x="282" />
<glyph unicode="&#x2007;" horiz-adv-x="282" />
<glyph unicode="&#x2008;" horiz-adv-x="211" />
<glyph unicode="&#x2009;" horiz-adv-x="338" />
<glyph unicode="&#x200a;" horiz-adv-x="94" />
<glyph unicode="&#x2010;" horiz-adv-x="604" d="M100 317q0 -29 28 -35t50 -6q53 0 107.5 8.5t107.5 8.5q23 0 42.5 -6t39.5 -6q18 0 31.5 13.5t13.5 31.5q0 29 -26.5 34t-47.5 5q-57 0 -113.5 -7.5t-113.5 -7.5q-23 0 -31 4t-12 10.5t-9 10.5t-17 4q-23 0 -36.5 -20.5t-13.5 -41.5z" />
<glyph unicode="&#x2011;" horiz-adv-x="604" d="M100 317q0 -29 28 -35t50 -6q53 0 107.5 8.5t107.5 8.5q23 0 42.5 -6t39.5 -6q18 0 31.5 13.5t13.5 31.5q0 29 -26.5 34t-47.5 5q-57 0 -113.5 -7.5t-113.5 -7.5q-23 0 -31 4t-12 10.5t-9 10.5t-17 4q-23 0 -36.5 -20.5t-13.5 -41.5z" />
<glyph unicode="&#x2012;" horiz-adv-x="604" d="M100 317q0 -29 28 -35t50 -6q53 0 107.5 8.5t107.5 8.5q23 0 42.5 -6t39.5 -6q18 0 31.5 13.5t13.5 31.5q0 29 -26.5 34t-47.5 5q-57 0 -113.5 -7.5t-113.5 -7.5q-23 0 -31 4t-12 10.5t-9 10.5t-17 4q-23 0 -36.5 -20.5t-13.5 -41.5z" />
<glyph unicode="&#x2013;" horiz-adv-x="907" d="M98 352q0 -35 29 -45q35 -10 81 -13t83 -3q86 0 173 8t173 8q35 0 67.5 -4t67.5 -14q8 -4 14 -4q14 0 24.5 10t10.5 24q0 20 -13 31.5t-32.5 17t-40 6.5t-35.5 1q-96 0 -190 -9.5t-193 -9.5q-39 0 -85 4.5t-80 24.5q-4 2 -9.5 4t-11.5 2q-16 0 -24.5 -12t-8.5 -27z" />
<glyph unicode="&#x2014;" horiz-adv-x="1230" d="M119 354q0 -37 35 -45q53 -14 115.5 -15t117.5 -1q123 0 246 8t246 8q49 0 98 -3t96 -17q4 0 8 -1t9 -1q16 0 29.5 10.5t13.5 26.5q0 20 -18.5 30.5t-44.5 15.5t-51.5 6t-37.5 1q-141 0 -279.5 -9.5t-279.5 -9.5q-53 0 -119.5 4.5t-120.5 24.5q-12 6 -24 6q-39 0 -39 -39 z" />
<glyph unicode="&#x2018;" horiz-adv-x="167" d="M25 936q0 -31 7 -53.5t29 -22.5q20 0 27.5 17.5t9.5 40t0 44t-2 31.5q0 12 2 24.5t2 26.5q0 10 -1 28t-5 34t-12 27.5t-25 11.5q-18 0 -25 -11.5t-7 -27.5t3 -29.5t3 -29.5q0 -18 -3 -49t-3 -62z" />
<glyph unicode="&#x2019;" horiz-adv-x="167" d="M14 891q0 -14 6.5 -25.5t22.5 -11.5t25.5 15.5t13.5 29.5t13 45t18.5 63.5t16.5 62.5t7 40q0 12 -7 22.5t-21 10.5q-16 0 -28.5 -11.5t-17.5 -27.5q-6 -23 -14 -50.5t-16 -57t-13.5 -57.5t-5.5 -48z" />
<glyph unicode="&#x201a;" horiz-adv-x="235" d="M2 -121q0 -14 6 -26.5t23 -12.5q14 0 24 15q6 6 19.5 47t28 89t25.5 90t11 52q0 12 -8 21.5t-20 9.5q-16 0 -28.5 -10.5t-16.5 -26.5q-6 -25 -17.5 -57.5t-22 -67.5t-17.5 -67.5t-7 -55.5z" />
<glyph unicode="&#x201c;" horiz-adv-x="327" d="M31 936q0 -31 7 -53.5t30 -22.5q20 0 27 17.5t9 40t0 44t-2 31.5q0 12 2 24.5t2 26.5q0 10 -1 28t-5 34t-12 27.5t-25 11.5q-18 0 -25 -11.5t-7 -27.5t3 -29.5t3 -29.5q0 -18 -3 -49t-3 -62zM172 1106q0 -18 4 -35.5t4 -34.5q0 -16 -2 -44.5t1 -58.5t11.5 -51.5 t30.5 -21.5q16 0 24.5 12.5t8.5 28.5q0 23 -1 48.5t-5 47.5q4 20 4 31q0 12 -2 31.5t-7 39t-14.5 33t-25.5 13.5q-18 0 -24.5 -11.5t-6.5 -27.5z" />
<glyph unicode="&#x201d;" horiz-adv-x="327" d="M14 891q0 -14 6.5 -25.5t22.5 -11.5t25.5 15.5t13.5 29.5t13 45t18.5 64.5t16.5 62.5t7 41q0 31 -28 31q-16 0 -28.5 -11.5t-17.5 -27.5q-6 -23 -14 -50.5t-16 -57t-13.5 -57.5t-5.5 -48zM162 889q0 -33 28 -33q16 0 26.5 14.5t14.5 26.5q4 14 15.5 45t23 64.5t19.5 63.5 t8 40q0 12 -7 21.5t-22 9.5q-16 0 -29.5 -10.5t-17.5 -26.5q-6 -18 -15 -48t-19.5 -62.5t-17.5 -61.5t-7 -43z" />
<glyph unicode="&#x201e;" horiz-adv-x="495" d="M55 -121q0 -14 6.5 -26.5t22.5 -12.5q14 0 25 15q6 6 19 47t27.5 89t26 90t11.5 52q0 12 -8.5 21.5t-20.5 9.5q-16 0 -28.5 -10.5t-16.5 -26.5q-6 -25 -17.5 -57.5t-21.5 -67.5t-17.5 -67.5t-7.5 -55.5zM209 -123q0 -12 5 -23.5t22 -11.5q16 0 27 14.5t16 28.5 q4 12 15 47t22.5 74t20.5 72t9 41q0 29 -29 28q-16 0 -29.5 -9t-17.5 -25q-6 -16 -16 -50t-20.5 -71t-17.5 -69t-7 -46z" />
<glyph unicode="&#x2022;" horiz-adv-x="456" d="M70 395q0 -27 11 -53.5t31.5 -47t45 -33.5t53.5 -13q27 0 50.5 13t42 33.5t29.5 46t11 50.5q0 51 -42 87t-91 36q-23 0 -47.5 -9t-46 -25.5t-34.5 -38t-13 -46.5z" />
<glyph unicode="&#x2026;" horiz-adv-x="1191" d="M78 18q0 -25 16.5 -40t40.5 -15q16 0 38 9.5t40 23.5t31.5 33t13.5 37q0 23 -15.5 35t-35.5 12q-8 0 -17.5 -2t-15.5 -7q-10 10 -20 11q-12 0 -25.5 -10.5t-25 -26t-18.5 -31.5t-7 -29zM492 18q0 -25 15 -40t40 -15q18 0 39.5 9.5t40 23.5t31 34t12.5 38q0 23 -15.5 34 t-36.5 11q-18 0 -32 -7q-6 8 -19 9q-12 0 -25.5 -10.5t-24.5 -26t-18 -31.5t-7 -29zM903 18q0 -25 16.5 -40t41.5 -15q16 0 37.5 9.5t40 23.5t31.5 33t13 37q0 23 -15 35t-36 12q-8 0 -17 -2t-16 -7q-10 10 -20 11q-12 0 -25.5 -10.5t-24.5 -26t-18.5 -31.5t-7.5 -29z" />
<glyph unicode="&#x202f;" horiz-adv-x="338" />
<glyph unicode="&#x2039;" horiz-adv-x="460" d="M41 289q0 -14 30.5 -60.5t69.5 -96.5t77 -89t54 -39q25 0 25 27q0 10 -22.5 46t-50 77t-55.5 78.5t-36 52.5q12 14 42 48t61.5 70.5t55 70.5t23.5 48q0 29 -26 29q-12 0 -45 -29.5t-71 -67.5t-71.5 -75t-44.5 -49q-16 -16 -16 -41z" />
<glyph unicode="&#x203a;" horiz-adv-x="460" d="M49 37q0 -29 27 -29q8 0 29.5 16.5t48 43l57.5 57.5t55.5 60.5t41 52t16.5 30.5q0 14 -31 61.5t-71 96.5t-78 88t-54 39q-23 0 -22 -25q0 -10 21.5 -46t50 -76.5t55 -78.5t36.5 -53q-12 -14 -41.5 -47.5t-61.5 -71.5t-55.5 -72t-23.5 -46z" />
<glyph unicode="&#x205f;" horiz-adv-x="423" />
<glyph unicode="&#x2122;" horiz-adv-x="1245" d="M115 1020h8q16 84 98 84q10 0 19.5 -1t19.5 -3v-357q0 -16 -14.5 -28.5t-30.5 -12.5q-8 0 -12 3v-11h182v11q-18 -4 -36.5 6t-18.5 32v357q10 2 18 3t19 1q47 0 67.5 -19.5t30.5 -64.5h12v102h-362v-102zM526 1110q23 2 41.5 -6t18.5 -35v-326q0 -18 -13.5 -29.5 t-29.5 -11.5q-4 0 -5 1.5t-6 1.5v-11h130v11q-18 -4 -36 5t-18 31v310l170 -363h13l165 363v-308q0 -16 -12 -28.5t-29 -12.5q-8 0 -12 3v-11h174v11q-18 -4 -36.5 6t-18.5 32v326q0 27 19.5 34t39.5 7v12h-120l-158 -334l-152 334h-125v-12z" />
<glyph unicode="&#x25fc;" horiz-adv-x="532" d="M0 0v532h532v-532h-532z" />
<glyph unicode="&#xfb01;" horiz-adv-x="929" d="M-72 291q0 -29 18.5 -49.5t41.5 -34.5q0 -61 7 -141t31.5 -152t74 -121t132.5 -49q57 0 102.5 27.5t76 71.5t47 97.5t16.5 106.5q0 35 -9 57.5t-11 55.5q57 18 104 59q0 -33 3 -67.5t15.5 -64.5t37 -48.5t65.5 -18.5q49 0 95 27t84 67t67.5 88t46.5 89q6 8 6 20 q0 27 -27 27q-18 0 -28 -21l-40 -62.5t-52.5 -74.5t-62.5 -62.5t-67 -25.5q-23 0 -36 10.5t-20 26.5t-9 34.5t-2 37.5q0 33 6 68.5t13.5 70.5t13.5 64.5t6 50.5q0 16 -8.5 26.5t-24.5 10.5q-23 0 -36 -21.5t-21.5 -51.5t-11.5 -59.5t-5 -46.5q-25 -29 -60.5 -54.5 t-72.5 -37.5q-47 76 -125 120t-164 46q39 53 91.5 129t99.5 160t80 168t33 153q0 53 -27 95.5t-86 42.5q-55 0 -99 -45.5t-80 -116t-63.5 -157.5t-46 -171t-30 -157.5t-15.5 -114.5q-29 -10 -51.5 -29.5t-22.5 -52.5zM57 180q57 -23 112.5 -34t115.5 -11q25 0 50 2l50 4 q10 -23 15.5 -49t5.5 -53q0 -29 -7.5 -68t-25 -72.5t-44 -57t-63.5 -23.5q-68 0 -107.5 38t-62 93t-31 117.5t-8.5 113.5zM63 260v8q0 37 17.5 42t48.5 5q63 0 130 -26.5t101 -83.5q-16 -2 -31.5 -3t-31.5 -1q-55 0 -120.5 13t-113.5 46zM74 412q2 27 11 86t25.5 130.5 t39 148.5t50 140.5t60.5 104.5t72 41q29 0 39 -22.5t10 -45.5q0 -53 -34 -137t-81 -170t-100 -161.5t-92 -114.5zM584 580q0 -23 15.5 -34t35.5 -11q41 0 66.5 32.5t25.5 71.5q0 25 -12.5 47.5t-40.5 22.5q-23 0 -40.5 -13.5t-28.5 -33t-16 -42t-5 -40.5z" />
<glyph unicode="&#xfb02;" horiz-adv-x="980" d="M-72 291q0 -29 18.5 -49.5t41.5 -34.5q0 -61 7 -141t31.5 -152t74 -121t132.5 -49q57 0 102.5 27.5t76 71.5t47 97.5t16.5 106.5q0 20 -1 34.5t-4 25t-6 22.5t-9 31q35 10 63.5 29.5t54.5 41.5q8 -37 22.5 -73.5t38 -66.5t56.5 -48t76 -18q47 0 93 26.5t82 67.5t58.5 89 t22.5 91q0 29 -25 29q-18 0 -35.5 -36t-40 -79t-54 -79t-81.5 -36q-27 0 -53 20.5t-47.5 50.5t-35 62.5t-13.5 57.5q0 8 1 16t7 14l4 7q45 57 91 133t84 157.5t61.5 165.5t23.5 160q0 20 -5 44t-16 44.5t-29.5 33.5t-43.5 13q-45 0 -82 -42t-64.5 -108.5t-49 -146.5 t-35 -156.5t-19.5 -141t-6 -97.5v-41q0 -18 4 -37q-29 -27 -61.5 -50.5t-67.5 -35.5q-47 76 -125 120t-164 46q39 53 91.5 129t99.5 160t80 168t33 153q0 53 -27 95.5t-86 42.5q-55 0 -99 -45.5t-80 -116t-63.5 -157.5t-46 -171t-30 -157.5t-15.5 -114.5 q-29 -10 -51.5 -29.5t-22.5 -52.5zM57 180q57 -23 112.5 -34t115.5 -11q25 0 50 2l50 4q10 -23 15.5 -49t5.5 -53q0 -29 -7.5 -68t-25 -72.5t-44 -57t-63.5 -23.5q-68 0 -107.5 38t-62 93t-31 117.5t-8.5 113.5zM63 260v8q0 37 17.5 42t48.5 5q63 0 129.5 -26.5t101.5 -83.5 q-16 -2 -31.5 -3t-31.5 -1q-55 0 -120.5 13t-113.5 46zM74 412q2 27 11 86t25.5 130.5t39 148.5t50 140.5t60.5 104.5t72 41q29 0 39 -22.5t10 -45.5q0 -53 -34 -137t-81 -170t-100 -161.5t-92 -114.5zM635 414v37q0 53 7 127.5t23.5 151.5t45 145.5t69.5 107.5q6 6 12.5 11 t16.5 5t17.5 -9t11.5 -21.5t5 -25.5t1 -21q0 -55 -20.5 -125t-52.5 -139.5t-68.5 -134t-67.5 -109.5z" />
</font>
</defs>
</svg>
