<?xml version="1.0" encoding="utf-8"?>
<!-- Generator: Adobe Illustrator 16.0.0, SVG Export Plug-In . SVG Version: 6.00 Build 0)  -->
<!DOCTYPE svg PUBLIC "-//W3C//DTD SVG 1.1//EN" "http://www.w3.org/Graphics/SVG/1.1/DTD/svg11.dtd">
<svg version="1.1" id="Layer_1" xmlns="http://www.w3.org/2000/svg" xmlns:xlink="http://www.w3.org/1999/xlink" x="0px" y="0px"
	 width="571.073px" height="166.93px" viewBox="0 0 571.073 166.93" enable-background="new 0 0 571.073 166.93"
	 xml:space="preserve">
<path fill-rule="evenodd" clip-rule="evenodd" fill="#A29487" d="M66.581,42.393c-1.129,14.699-2.049,29.231-2.279,44.139
	c-0.104,7.632,0.251,15.306-0.104,22.874c-0.126,2.677-0.355,2.405-1.15,4.454c-1.923,4.977,1.924,10.267,6.064,10.538
	c7.883,0.502,6.377-10.309,6.377-16.853c0-22.352,0.021-44.934,2.216-67.077c0.982-0.543,12.524-2.927,14.615-3.387
	c9.911-2.112,21.265-4.37,31.447-4.537c3.429-0.062,5.019,0.209,8.008,1.15c3.429,1.108,4.328,1.129,7.109-0.418
	c-1.38,3.387-2.739,6.481-3.91,10.246c-3.283,10.559-6.272,25.927-6.147,36.904c0.062,5.624,0.878,3.429-3.722,10.434
	c-1.777,2.697-4.349,6.042-6.628,7.841c-10.936,8.656-7.548-9.242-6.273-15.347c0.669-3.199,2.405-9.137,0.753-11.96
	c-1.756-3.011-6.921-3.178-9.158,0.961c-2.53,4.621-3.952,18.965-3.471,25.07c0.69,8.74,5.123,15.264,15.097,13.151
	c9.242-1.944,14.741-11.061,16.309-12.315c0.606,0.753,1.693,3.45,2.383,4.537c7.109,11.166,19.194,9.368,27.6,1.066
	c1.15-1.129,2.739-3.408,3.513-3.889c1.694,4.391,5.604,8.636,10.266,9.995c4.14,1.212,8.97,0.501,12.713-1.59
	c1.087-0.606,2.384-1.631,3.408-1.944c0.711,1.986,3.283,3.889,5.646,4.914c2.844,1.233,6.461,1.191,9.535,0.438
	c2.613-0.648,5.457-1.84,7.506-3.011c2.488-1.442,4.35-2.886,6.44-4.203l0.564,1.84c-2.258,0.837-13.946,9.158-15.682,10.518
	c-9.702,7.569-21.118,19.759-17.94,33.915c3.366,14.991,23.042,18.002,35.629,15.075c7.318-1.715,12.357-5.416,14.866-11.521
	c4.746-11.583,0.648-27.6-2.76-39.351c-0.459-1.589-1.254-3.638-1.568-5.228c2.112-1.756,4.684-3.429,7.067-5.206
	c5.081-3.784,18.776-12.9,17.396-20.156c-0.711-3.68-4.872-4.872-7.443-2.132c-1.38,1.463-2.321,3.659-5.625,6.983
	c-1.903,1.923-4.328,3.973-6.628,5.75c-1.422,1.087-5.938,4.6-7.611,5.102c-0.418-2.593-1.485-4.58-0.627-7.507
	c1.61-5.541,6.23-15.41,2.655-21.453c-1.17-1.965-3.345-3.073-6.314-1.84c-5.353,2.216-7.172,13.675-7.611,19.027
	c-0.376,4.809,1.505,5.207-6.566,10.957c-3.513,2.509-11.688,4.977-12.168,0.021c-0.502-5.248,4.474-16.288,7.506-19.152
	c1.422-1.338,2.739-3.66,1.673-6.335c-1.234-3.053-6.398-4.203-10.81,2.091c-4.767,6.837-6.44,16.393-12.712,22.791
	c-5.834,5.98-12.483-4.203-13.779-9.304c-0.773-3.053,0.836-4.203,2.195-6.022c2.363-3.157,4.893-7.088,6.963-10.789
	c5.436-9.723,14.323-28.436,11.73-40.751c-0.941-4.496-3.848-8.74-8.614-9.054c-9.054-0.564-13.758,11.333-16.393,19.006
	c-3.011,8.844-5.039,19.236-6.105,29.21c-0.272,2.634-0.522,5.499-0.585,8.217c-0.104,5.5,0.899,4.412-0.732,7.716
	c-4.098,8.259-9.262,19.989-17.521,9.367c-1.171-1.526-2.384-3.513-3.157-5.729c-1.338-3.868-0.397-4.098,1.296-6.419
	c8.447-11.521,21.913-35.712,19.424-51.248c-0.753-4.663-3.366-9.158-7.778-9.953c-3.91-0.711-7.339,1.129-9.597,3.721
	c-0.313,0.376-0.648,0.711-0.961,1.129c-0.481,0.627-0.502,0.773-1.129,1.275c-0.501-17.312-51.29-0.564-61.953,0.732
	c0.188-2.049,0.439-4.37,0.857-6.335c0.418-2.07,1.296-3.68,1.673-5.29c1.024-4.286-2.446-7.924-6.607-7.339
	c-6.753,0.941-6.879,14.344-7.381,21.139c-3.701,1.129-13.214,2.07-17.417,2.426c-6.524,0.543-12.692,0.627-19.132-0.021
	c-10.162-1.025-23.983-4.956-19.989-18.295c3.638,0.23,4.474-0.627,5.708-3.408c1.024-2.321,1.505-5.52,0.878-8.28
	C16.42-1.997,9.917-0.722,6.384,3.711C1.115,10.34-3.046,24.62,2.955,33.444c9.953,14.574,38.159,12.023,54.97,10.079
	c2.781-0.314,5.917-0.92,8.698-1.087L66.581,42.393L66.581,42.393z M112.142,48.415h-0.021c10.559-2.593,10.81,15.452,0.794,17.71
	c-4.851,1.087-9.263-1.401-8.112-8.113C105.618,53.308,108.106,49.397,112.142,48.415L112.142,48.415z M324.556,28.677
	c-1.274,6.67-1.4,10.413-2.049,17.459c-0.543,6.001-1.254,12.043-1.693,18.044c-2.153,1.506-4.517,2.844-5.06,6.293
	c-0.879,5.437,3.596,6.796,3.909,7.444c0.272,4.642-0.104,9.911,0,14.72c0.126,5.039,0,22.31,4.936,24.505
	c4.809,2.133,7.38-2.676,7.61-6.586c0.962,0.355,1.882,1.004,2.844,1.526c6.649,3.617,17.166,5.688,24.568,4.83
	c16.706-1.966,35.461-14.281,36.026-32.2c0.271-8.468-3.137-15.577-9.556-20.156c-0.628-0.46-2.07-1.233-2.593-1.735
	c8.489-4.517,16.873-8.384,23-16.476c7.15-9.43,6.105-19.697-5.186-25.76c-26.011-13.946-86.417-3.638-115.857,9.577
	c-4.517,2.028-9.786,4.349-10.957,8.886c-1.631,6.21,4.224,10.266,10.12,9.2c2.676-0.481,4.035-2.488,4.203-5.583
	c0.125-2.049,0.502-1.986,1.986-2.948c1.087-0.711,2.07-1.255,3.283-1.861c4.349-2.195,9.514-3.973,14.469-5.374
	c4.391-1.255,11.458-3.283,15.995-3.764V28.677L324.556,28.677z M331.038,78.733c12.337-1.484,21.787-5.206,32.807-8.531
	c3.68-1.108,4.349-1.777,8.426-0.753c2.677,0.648,5.228,1.945,6.941,3.346c3.827,3.136,6.252,8.071,4.977,15.159
	c-2.906,16.058-28.102,24.589-39.539,16.853c-2.069-1.401-1.714-4.286-4.286-6.001c-3.011-2.007-5.269-1.108-8.677-1.046
	C331.414,93.704,330.243,82.12,331.038,78.733L331.038,78.733z M332.94,27.025l0.021-0.021c14.992-1.902,24.171-4.558,40.501-3.366
	c6.753,0.481,20.846,2.384,24.902,8.029c1.715,2.384,1.38,6.084-0.104,8.468c-4.956,7.946-18.191,13.612-26.492,17.417
	c-1.631,0.752-2.278,1.338-4.224,1.024c-4.035-0.669-11.792-0.543-15.849-0.418c-10.392,0.314-10.371,0.753-19.696,2.279
	c0.229-5.583,0.92-11.27,1.255-16.874l0.418-12.859C333.651,28.76,333.213,28.53,332.94,27.025L332.94,27.025z M431.568,103.364
	l-0.021-0.021c-0.271,0.146-3.492,4.182-5.457,5.959c-7.444,6.712-17.94,6.816-23.837-0.502
	c-10.224-12.712,5.416-36.528,18.902-42.738c8.405-3.889,19.048-0.313,17.124,8.029c-0.251,1.024,0.711,2.781,0.627,4.705
	c-0.188,3.973-1.358,6.021-1.003,10.496c0.313,4.036,1.651,10.58,6.502,10.518c1.736-0.021,3.074-0.502,4.203-1.401
	c2.823-2.279,8.092-11.75,8.301-14.657c0.502-7.005,1.485-13.173,3.011-19.822c2.572-11.207,7.13-24.589,12.546-32.974
	c2.53-3.91,6.732-9.932,13.8-8.719c5.792,1.003,8.719,6.712,9.367,13.256c1.004,10.35-4.203,21.767-9.576,30.088
	c-0.732,1.108-1.735,2.425-2.195,3.471c5.687,0,8.05,1.861,10.099,5.708c2.488,4.663,1.882,8.113,1.924,13.486
	c4.768,0.585,7.841-1.756,10.267-3.743c1.61-1.317,3.157-5.374,5.373-8.636c5.27-7.778,12.273-4.412,10.936,1.359
	c-0.606,2.593-1.902,2.53-2.927,4.077c-1.736,2.593-3.639,6.398-4.83,9.409c-0.983,2.488-3.283,9.681-0.251,10.956
	c6.147,2.614,12.775-3.722,16.477-7.318c0.94-0.92,0.773-1.004,0.773-2.697c0-5.353,1.004-11.604,2.822-16.121
	c0.878-2.154,2.092-4.265,3.659-5.457c1.903-1.443,5.27-1.61,6.838,0.104c4.6,5.081,0.083,16.267-1.799,21.976
	c-0.773,2.362-0.48,5.938,0.669,7.946c2.342-0.816,8.698-6.001,10.978-7.988c0.627-0.543,1.066-0.815,1.651-1.401
	c5.27-5.248,4.914-6.084,7.109-8.531c2.301-2.551,6.712-1.442,7.443,2.363c1.715,8.928-19.173,20.323-24.421,25.32
	c0.355,2.279,1.86,6.273,2.529,8.74c5.813,21.139,9.451,48.279-22.33,48.279c-9.995,0-17.46-2.823-22.436-8.196
	c-5.144-5.562-5.729-15.452-2.091-23.355c3.011-6.565,8.572-12.002,13.8-16.561c7.13-6.21,11.646-7.945,17.856-12.42l-0.397-1.819
	c-1.15,0.586-2.614,1.841-3.973,2.719c-7.276,4.684-17.898,8.447-24.485,0.544c-2.509-3.011-2.613-6.42-2.049-11.019
	c-4.202,0.669-5.248,1.024-9.89,0.731c-2.78,6.335-8.845,13.612-15.849,15.64c-14.281,4.119-17.689-10.12-18.672-11.166
	c-2.572,3.367-8.071,7.067-12.964,7.758c-3.346,0.46-6.189-0.062-8.803-1.464C434.412,106.96,433.367,105.329,431.568,103.364
	L431.568,103.364z M428.202,75.199c0,0.313-0.94,3.534-1.108,4.768c-0.752,5.854,1.903,8.363-1.714,15.577
	c-7.527,15.013-24.547,10.267-11.082-10.162C416.953,81.347,422.599,74.091,428.202,75.199L428.202,75.199z M484.218,93.997
	c-4.057-3.596-7.862-6.586-8.259-14.741l-7.276,7.485c-1.694,1.944-1.715,1.171-1.13,5.604c1.15,8.907,5.646,16.121,13.801,6.356
	C482.127,97.76,483.987,95.376,484.218,93.997L484.218,93.997z M468.348,73.589c4.391-4.747,8.614-10.246,12.127-17.104
	c2.153-4.203,7.883-18.818,3.408-23.481c-1.191,0.251-2.739,2.53-3.45,3.596C475.311,44.191,469.059,65.581,468.348,73.589
	L468.348,73.589z M528.732,157.56c10.184,0,14.407-3.407,14.386-13.82c-0.021-7.423-1.86-14.678-3.931-21.62
	c-0.648-2.153-1.548-4.579-2.008-6.67c-2.634,0.836-10.496,6.858-12.775,8.782c-3.951,3.324-7.276,6.565-10.37,11.354
	c-2.697,4.202-5.354,11.625-1.506,16.455c3.241,4.057,9.283,5.541,16.226,5.541L528.732,157.56L528.732,157.56z M215.997,157.56
	v0.021c-7.276,0-12.901-1.464-16.246-5.521c-3.91-4.746-1.297-12.169,1.38-16.393c2.823-4.453,6.628-8.238,10.329-11.396
	c2.216-1.882,10.204-7.861,12.712-8.781c0.878,1.213,3.45,10.977,4.036,13.277c1.192,4.62,2.091,9.827,2.091,14.971
	C230.319,154.047,226.159,157.56,215.997,157.56L215.997,157.56z M139.428,69.428c-0.544-6.795,2.927-22.414,6.147-29.021
	c0.836-1.714,2.174-4.098,3.471-5.395l1.547-1.275c2.676,3.889-1.673,16.163-3.136,19.738
	C146.181,56.59,141.289,67.275,139.428,69.428L139.428,69.428z M171.92,69.428h0.021c0.167-6.711,1.359-14.323,3.115-20.344
	c1.192-4.098,4.37-13.737,8.28-15.431c1.694,6.67-1.087,14.051-3.283,19.717C178.82,56.569,173.572,67.798,171.92,69.428z"/>
</svg>
